%TF.GenerationSoftware,KiCad,Pcbnew,10.0.3*%
%TF.CreationDate,2026-06-09T21:24:23-04:00*%
%TF.ProjectId,nametag,6e616d65-7461-4672-9e6b-696361645f70,rev?*%
%TF.SameCoordinates,Original*%
%TF.FileFunction,Legend,Top*%
%TF.FilePolarity,Positive*%
%FSLAX46Y46*%
G04 Gerber Fmt 4.6, Leading zero omitted, Abs format (unit mm)*
G04 Created by KiCad (PCBNEW 10.0.3) date 2026-06-09 21:24:23*
%MOMM*%
%LPD*%
G01*
G04 APERTURE LIST*
%ADD10C,0.300000*%
%ADD11C,0.150000*%
%ADD12C,0.120000*%
%ADD13C,0.250000*%
%ADD14C,0.060000*%
%ADD15C,0.000000*%
G04 APERTURE END LIST*
D10*
X34149748Y-48322775D02*
X34149748Y-43322775D01*
X34149748Y-45703727D02*
X36435463Y-45703727D01*
X36435463Y-48322775D02*
X36435463Y-43322775D01*
X39864034Y-48084680D02*
X39483082Y-48322775D01*
X39483082Y-48322775D02*
X38721177Y-48322775D01*
X38721177Y-48322775D02*
X38340224Y-48084680D01*
X38340224Y-48084680D02*
X38149748Y-47608489D01*
X38149748Y-47608489D02*
X38149748Y-45703727D01*
X38149748Y-45703727D02*
X38340224Y-45227537D01*
X38340224Y-45227537D02*
X38721177Y-44989441D01*
X38721177Y-44989441D02*
X39483082Y-44989441D01*
X39483082Y-44989441D02*
X39864034Y-45227537D01*
X39864034Y-45227537D02*
X40054510Y-45703727D01*
X40054510Y-45703727D02*
X40054510Y-46179918D01*
X40054510Y-46179918D02*
X38149748Y-46656108D01*
X42340224Y-48322775D02*
X41959272Y-48084680D01*
X41959272Y-48084680D02*
X41768795Y-47608489D01*
X41768795Y-47608489D02*
X41768795Y-43322775D01*
X44435462Y-48322775D02*
X44054510Y-48084680D01*
X44054510Y-48084680D02*
X43864033Y-47608489D01*
X43864033Y-47608489D02*
X43864033Y-43322775D01*
X46530700Y-48322775D02*
X46149748Y-48084680D01*
X46149748Y-48084680D02*
X45959271Y-47846584D01*
X45959271Y-47846584D02*
X45768795Y-47370394D01*
X45768795Y-47370394D02*
X45768795Y-45941822D01*
X45768795Y-45941822D02*
X45959271Y-45465632D01*
X45959271Y-45465632D02*
X46149748Y-45227537D01*
X46149748Y-45227537D02*
X46530700Y-44989441D01*
X46530700Y-44989441D02*
X47102129Y-44989441D01*
X47102129Y-44989441D02*
X47483081Y-45227537D01*
X47483081Y-45227537D02*
X47673557Y-45465632D01*
X47673557Y-45465632D02*
X47864033Y-45941822D01*
X47864033Y-45941822D02*
X47864033Y-47370394D01*
X47864033Y-47370394D02*
X47673557Y-47846584D01*
X47673557Y-47846584D02*
X47483081Y-48084680D01*
X47483081Y-48084680D02*
X47102129Y-48322775D01*
X47102129Y-48322775D02*
X46530700Y-48322775D01*
X49768796Y-48084680D02*
X49768796Y-48322775D01*
X49768796Y-48322775D02*
X49578319Y-48798965D01*
X49578319Y-48798965D02*
X49387843Y-49037060D01*
X34149748Y-56372495D02*
X34149748Y-51372495D01*
X34149748Y-51372495D02*
X35483082Y-54943923D01*
X35483082Y-54943923D02*
X36816415Y-51372495D01*
X36816415Y-51372495D02*
X36816415Y-56372495D01*
X38340225Y-53039161D02*
X39292606Y-56372495D01*
X40244987Y-53039161D02*
X39292606Y-56372495D01*
X39292606Y-56372495D02*
X38911654Y-57562971D01*
X38911654Y-57562971D02*
X38721177Y-57801066D01*
X38721177Y-57801066D02*
X38340225Y-58039161D01*
X44816415Y-56372495D02*
X44816415Y-51372495D01*
X44816415Y-51372495D02*
X47102130Y-56372495D01*
X47102130Y-56372495D02*
X47102130Y-51372495D01*
X50721177Y-56372495D02*
X50721177Y-53753447D01*
X50721177Y-53753447D02*
X50530701Y-53277257D01*
X50530701Y-53277257D02*
X50149749Y-53039161D01*
X50149749Y-53039161D02*
X49387844Y-53039161D01*
X49387844Y-53039161D02*
X49006891Y-53277257D01*
X50721177Y-56134400D02*
X50340225Y-56372495D01*
X50340225Y-56372495D02*
X49387844Y-56372495D01*
X49387844Y-56372495D02*
X49006891Y-56134400D01*
X49006891Y-56134400D02*
X48816415Y-55658209D01*
X48816415Y-55658209D02*
X48816415Y-55182019D01*
X48816415Y-55182019D02*
X49006891Y-54705828D01*
X49006891Y-54705828D02*
X49387844Y-54467733D01*
X49387844Y-54467733D02*
X50340225Y-54467733D01*
X50340225Y-54467733D02*
X50721177Y-54229638D01*
X52625939Y-56372495D02*
X52625939Y-53039161D01*
X52625939Y-53515352D02*
X52816416Y-53277257D01*
X52816416Y-53277257D02*
X53197368Y-53039161D01*
X53197368Y-53039161D02*
X53768797Y-53039161D01*
X53768797Y-53039161D02*
X54149749Y-53277257D01*
X54149749Y-53277257D02*
X54340225Y-53753447D01*
X54340225Y-53753447D02*
X54340225Y-56372495D01*
X54340225Y-53753447D02*
X54530701Y-53277257D01*
X54530701Y-53277257D02*
X54911654Y-53039161D01*
X54911654Y-53039161D02*
X55483082Y-53039161D01*
X55483082Y-53039161D02*
X55864035Y-53277257D01*
X55864035Y-53277257D02*
X56054511Y-53753447D01*
X56054511Y-53753447D02*
X56054511Y-56372495D01*
X59483082Y-56134400D02*
X59102130Y-56372495D01*
X59102130Y-56372495D02*
X58340225Y-56372495D01*
X58340225Y-56372495D02*
X57959272Y-56134400D01*
X57959272Y-56134400D02*
X57768796Y-55658209D01*
X57768796Y-55658209D02*
X57768796Y-53753447D01*
X57768796Y-53753447D02*
X57959272Y-53277257D01*
X57959272Y-53277257D02*
X58340225Y-53039161D01*
X58340225Y-53039161D02*
X59102130Y-53039161D01*
X59102130Y-53039161D02*
X59483082Y-53277257D01*
X59483082Y-53277257D02*
X59673558Y-53753447D01*
X59673558Y-53753447D02*
X59673558Y-54229638D01*
X59673558Y-54229638D02*
X57768796Y-54705828D01*
X64435462Y-56372495D02*
X64435462Y-51372495D01*
X66149748Y-56134400D02*
X66530701Y-56372495D01*
X66530701Y-56372495D02*
X67292605Y-56372495D01*
X67292605Y-56372495D02*
X67673558Y-56134400D01*
X67673558Y-56134400D02*
X67864034Y-55658209D01*
X67864034Y-55658209D02*
X67864034Y-55420114D01*
X67864034Y-55420114D02*
X67673558Y-54943923D01*
X67673558Y-54943923D02*
X67292605Y-54705828D01*
X67292605Y-54705828D02*
X66721177Y-54705828D01*
X66721177Y-54705828D02*
X66340224Y-54467733D01*
X66340224Y-54467733D02*
X66149748Y-53991542D01*
X66149748Y-53991542D02*
X66149748Y-53753447D01*
X66149748Y-53753447D02*
X66340224Y-53277257D01*
X66340224Y-53277257D02*
X66721177Y-53039161D01*
X66721177Y-53039161D02*
X67292605Y-53039161D01*
X67292605Y-53039161D02*
X67673558Y-53277257D01*
D11*
X78559580Y-87966666D02*
X78607200Y-88014285D01*
X78607200Y-88014285D02*
X78654819Y-88157142D01*
X78654819Y-88157142D02*
X78654819Y-88252380D01*
X78654819Y-88252380D02*
X78607200Y-88395237D01*
X78607200Y-88395237D02*
X78511961Y-88490475D01*
X78511961Y-88490475D02*
X78416723Y-88538094D01*
X78416723Y-88538094D02*
X78226247Y-88585713D01*
X78226247Y-88585713D02*
X78083390Y-88585713D01*
X78083390Y-88585713D02*
X77892914Y-88538094D01*
X77892914Y-88538094D02*
X77797676Y-88490475D01*
X77797676Y-88490475D02*
X77702438Y-88395237D01*
X77702438Y-88395237D02*
X77654819Y-88252380D01*
X77654819Y-88252380D02*
X77654819Y-88157142D01*
X77654819Y-88157142D02*
X77702438Y-88014285D01*
X77702438Y-88014285D02*
X77750057Y-87966666D01*
X78654819Y-87014285D02*
X78654819Y-87585713D01*
X78654819Y-87299999D02*
X77654819Y-87299999D01*
X77654819Y-87299999D02*
X77797676Y-87395237D01*
X77797676Y-87395237D02*
X77892914Y-87490475D01*
X77892914Y-87490475D02*
X77940533Y-87585713D01*
X89654819Y-89366666D02*
X89178628Y-89699999D01*
X89654819Y-89938094D02*
X88654819Y-89938094D01*
X88654819Y-89938094D02*
X88654819Y-89557142D01*
X88654819Y-89557142D02*
X88702438Y-89461904D01*
X88702438Y-89461904D02*
X88750057Y-89414285D01*
X88750057Y-89414285D02*
X88845295Y-89366666D01*
X88845295Y-89366666D02*
X88988152Y-89366666D01*
X88988152Y-89366666D02*
X89083390Y-89414285D01*
X89083390Y-89414285D02*
X89131009Y-89461904D01*
X89131009Y-89461904D02*
X89178628Y-89557142D01*
X89178628Y-89557142D02*
X89178628Y-89938094D01*
X89083390Y-88795237D02*
X89035771Y-88890475D01*
X89035771Y-88890475D02*
X88988152Y-88938094D01*
X88988152Y-88938094D02*
X88892914Y-88985713D01*
X88892914Y-88985713D02*
X88845295Y-88985713D01*
X88845295Y-88985713D02*
X88750057Y-88938094D01*
X88750057Y-88938094D02*
X88702438Y-88890475D01*
X88702438Y-88890475D02*
X88654819Y-88795237D01*
X88654819Y-88795237D02*
X88654819Y-88604761D01*
X88654819Y-88604761D02*
X88702438Y-88509523D01*
X88702438Y-88509523D02*
X88750057Y-88461904D01*
X88750057Y-88461904D02*
X88845295Y-88414285D01*
X88845295Y-88414285D02*
X88892914Y-88414285D01*
X88892914Y-88414285D02*
X88988152Y-88461904D01*
X88988152Y-88461904D02*
X89035771Y-88509523D01*
X89035771Y-88509523D02*
X89083390Y-88604761D01*
X89083390Y-88604761D02*
X89083390Y-88795237D01*
X89083390Y-88795237D02*
X89131009Y-88890475D01*
X89131009Y-88890475D02*
X89178628Y-88938094D01*
X89178628Y-88938094D02*
X89273866Y-88985713D01*
X89273866Y-88985713D02*
X89464342Y-88985713D01*
X89464342Y-88985713D02*
X89559580Y-88938094D01*
X89559580Y-88938094D02*
X89607200Y-88890475D01*
X89607200Y-88890475D02*
X89654819Y-88795237D01*
X89654819Y-88795237D02*
X89654819Y-88604761D01*
X89654819Y-88604761D02*
X89607200Y-88509523D01*
X89607200Y-88509523D02*
X89559580Y-88461904D01*
X89559580Y-88461904D02*
X89464342Y-88414285D01*
X89464342Y-88414285D02*
X89273866Y-88414285D01*
X89273866Y-88414285D02*
X89178628Y-88461904D01*
X89178628Y-88461904D02*
X89131009Y-88509523D01*
X89131009Y-88509523D02*
X89083390Y-88604761D01*
X94633333Y-90654819D02*
X94300000Y-90178628D01*
X94061905Y-90654819D02*
X94061905Y-89654819D01*
X94061905Y-89654819D02*
X94442857Y-89654819D01*
X94442857Y-89654819D02*
X94538095Y-89702438D01*
X94538095Y-89702438D02*
X94585714Y-89750057D01*
X94585714Y-89750057D02*
X94633333Y-89845295D01*
X94633333Y-89845295D02*
X94633333Y-89988152D01*
X94633333Y-89988152D02*
X94585714Y-90083390D01*
X94585714Y-90083390D02*
X94538095Y-90131009D01*
X94538095Y-90131009D02*
X94442857Y-90178628D01*
X94442857Y-90178628D02*
X94061905Y-90178628D01*
X94966667Y-89654819D02*
X95633333Y-89654819D01*
X95633333Y-89654819D02*
X95204762Y-90654819D01*
X88054819Y-89366666D02*
X87578628Y-89699999D01*
X88054819Y-89938094D02*
X87054819Y-89938094D01*
X87054819Y-89938094D02*
X87054819Y-89557142D01*
X87054819Y-89557142D02*
X87102438Y-89461904D01*
X87102438Y-89461904D02*
X87150057Y-89414285D01*
X87150057Y-89414285D02*
X87245295Y-89366666D01*
X87245295Y-89366666D02*
X87388152Y-89366666D01*
X87388152Y-89366666D02*
X87483390Y-89414285D01*
X87483390Y-89414285D02*
X87531009Y-89461904D01*
X87531009Y-89461904D02*
X87578628Y-89557142D01*
X87578628Y-89557142D02*
X87578628Y-89938094D01*
X87054819Y-88509523D02*
X87054819Y-88699999D01*
X87054819Y-88699999D02*
X87102438Y-88795237D01*
X87102438Y-88795237D02*
X87150057Y-88842856D01*
X87150057Y-88842856D02*
X87292914Y-88938094D01*
X87292914Y-88938094D02*
X87483390Y-88985713D01*
X87483390Y-88985713D02*
X87864342Y-88985713D01*
X87864342Y-88985713D02*
X87959580Y-88938094D01*
X87959580Y-88938094D02*
X88007200Y-88890475D01*
X88007200Y-88890475D02*
X88054819Y-88795237D01*
X88054819Y-88795237D02*
X88054819Y-88604761D01*
X88054819Y-88604761D02*
X88007200Y-88509523D01*
X88007200Y-88509523D02*
X87959580Y-88461904D01*
X87959580Y-88461904D02*
X87864342Y-88414285D01*
X87864342Y-88414285D02*
X87626247Y-88414285D01*
X87626247Y-88414285D02*
X87531009Y-88461904D01*
X87531009Y-88461904D02*
X87483390Y-88509523D01*
X87483390Y-88509523D02*
X87435771Y-88604761D01*
X87435771Y-88604761D02*
X87435771Y-88795237D01*
X87435771Y-88795237D02*
X87483390Y-88890475D01*
X87483390Y-88890475D02*
X87531009Y-88938094D01*
X87531009Y-88938094D02*
X87626247Y-88985713D01*
X102433333Y-89254819D02*
X102100000Y-88778628D01*
X101861905Y-89254819D02*
X101861905Y-88254819D01*
X101861905Y-88254819D02*
X102242857Y-88254819D01*
X102242857Y-88254819D02*
X102338095Y-88302438D01*
X102338095Y-88302438D02*
X102385714Y-88350057D01*
X102385714Y-88350057D02*
X102433333Y-88445295D01*
X102433333Y-88445295D02*
X102433333Y-88588152D01*
X102433333Y-88588152D02*
X102385714Y-88683390D01*
X102385714Y-88683390D02*
X102338095Y-88731009D01*
X102338095Y-88731009D02*
X102242857Y-88778628D01*
X102242857Y-88778628D02*
X101861905Y-88778628D01*
X103338095Y-88254819D02*
X102861905Y-88254819D01*
X102861905Y-88254819D02*
X102814286Y-88731009D01*
X102814286Y-88731009D02*
X102861905Y-88683390D01*
X102861905Y-88683390D02*
X102957143Y-88635771D01*
X102957143Y-88635771D02*
X103195238Y-88635771D01*
X103195238Y-88635771D02*
X103290476Y-88683390D01*
X103290476Y-88683390D02*
X103338095Y-88731009D01*
X103338095Y-88731009D02*
X103385714Y-88826247D01*
X103385714Y-88826247D02*
X103385714Y-89064342D01*
X103385714Y-89064342D02*
X103338095Y-89159580D01*
X103338095Y-89159580D02*
X103290476Y-89207200D01*
X103290476Y-89207200D02*
X103195238Y-89254819D01*
X103195238Y-89254819D02*
X102957143Y-89254819D01*
X102957143Y-89254819D02*
X102861905Y-89207200D01*
X102861905Y-89207200D02*
X102814286Y-89159580D01*
X94633333Y-89254819D02*
X94300000Y-88778628D01*
X94061905Y-89254819D02*
X94061905Y-88254819D01*
X94061905Y-88254819D02*
X94442857Y-88254819D01*
X94442857Y-88254819D02*
X94538095Y-88302438D01*
X94538095Y-88302438D02*
X94585714Y-88350057D01*
X94585714Y-88350057D02*
X94633333Y-88445295D01*
X94633333Y-88445295D02*
X94633333Y-88588152D01*
X94633333Y-88588152D02*
X94585714Y-88683390D01*
X94585714Y-88683390D02*
X94538095Y-88731009D01*
X94538095Y-88731009D02*
X94442857Y-88778628D01*
X94442857Y-88778628D02*
X94061905Y-88778628D01*
X95490476Y-88588152D02*
X95490476Y-89254819D01*
X95252381Y-88207200D02*
X95014286Y-88921485D01*
X95014286Y-88921485D02*
X95633333Y-88921485D01*
X85854819Y-84566666D02*
X85378628Y-84899999D01*
X85854819Y-85138094D02*
X84854819Y-85138094D01*
X84854819Y-85138094D02*
X84854819Y-84757142D01*
X84854819Y-84757142D02*
X84902438Y-84661904D01*
X84902438Y-84661904D02*
X84950057Y-84614285D01*
X84950057Y-84614285D02*
X85045295Y-84566666D01*
X85045295Y-84566666D02*
X85188152Y-84566666D01*
X85188152Y-84566666D02*
X85283390Y-84614285D01*
X85283390Y-84614285D02*
X85331009Y-84661904D01*
X85331009Y-84661904D02*
X85378628Y-84757142D01*
X85378628Y-84757142D02*
X85378628Y-85138094D01*
X84854819Y-84233332D02*
X84854819Y-83614285D01*
X84854819Y-83614285D02*
X85235771Y-83947618D01*
X85235771Y-83947618D02*
X85235771Y-83804761D01*
X85235771Y-83804761D02*
X85283390Y-83709523D01*
X85283390Y-83709523D02*
X85331009Y-83661904D01*
X85331009Y-83661904D02*
X85426247Y-83614285D01*
X85426247Y-83614285D02*
X85664342Y-83614285D01*
X85664342Y-83614285D02*
X85759580Y-83661904D01*
X85759580Y-83661904D02*
X85807200Y-83709523D01*
X85807200Y-83709523D02*
X85854819Y-83804761D01*
X85854819Y-83804761D02*
X85854819Y-84090475D01*
X85854819Y-84090475D02*
X85807200Y-84185713D01*
X85807200Y-84185713D02*
X85759580Y-84233332D01*
X102433333Y-90854819D02*
X102100000Y-90378628D01*
X101861905Y-90854819D02*
X101861905Y-89854819D01*
X101861905Y-89854819D02*
X102242857Y-89854819D01*
X102242857Y-89854819D02*
X102338095Y-89902438D01*
X102338095Y-89902438D02*
X102385714Y-89950057D01*
X102385714Y-89950057D02*
X102433333Y-90045295D01*
X102433333Y-90045295D02*
X102433333Y-90188152D01*
X102433333Y-90188152D02*
X102385714Y-90283390D01*
X102385714Y-90283390D02*
X102338095Y-90331009D01*
X102338095Y-90331009D02*
X102242857Y-90378628D01*
X102242857Y-90378628D02*
X101861905Y-90378628D01*
X102814286Y-89950057D02*
X102861905Y-89902438D01*
X102861905Y-89902438D02*
X102957143Y-89854819D01*
X102957143Y-89854819D02*
X103195238Y-89854819D01*
X103195238Y-89854819D02*
X103290476Y-89902438D01*
X103290476Y-89902438D02*
X103338095Y-89950057D01*
X103338095Y-89950057D02*
X103385714Y-90045295D01*
X103385714Y-90045295D02*
X103385714Y-90140533D01*
X103385714Y-90140533D02*
X103338095Y-90283390D01*
X103338095Y-90283390D02*
X102766667Y-90854819D01*
X102766667Y-90854819D02*
X103385714Y-90854819D01*
X80824819Y-84454166D02*
X80348628Y-84787499D01*
X80824819Y-85025594D02*
X79824819Y-85025594D01*
X79824819Y-85025594D02*
X79824819Y-84644642D01*
X79824819Y-84644642D02*
X79872438Y-84549404D01*
X79872438Y-84549404D02*
X79920057Y-84501785D01*
X79920057Y-84501785D02*
X80015295Y-84454166D01*
X80015295Y-84454166D02*
X80158152Y-84454166D01*
X80158152Y-84454166D02*
X80253390Y-84501785D01*
X80253390Y-84501785D02*
X80301009Y-84549404D01*
X80301009Y-84549404D02*
X80348628Y-84644642D01*
X80348628Y-84644642D02*
X80348628Y-85025594D01*
X80824819Y-83501785D02*
X80824819Y-84073213D01*
X80824819Y-83787499D02*
X79824819Y-83787499D01*
X79824819Y-83787499D02*
X79967676Y-83882737D01*
X79967676Y-83882737D02*
X80062914Y-83977975D01*
X80062914Y-83977975D02*
X80110533Y-84073213D01*
X111466667Y-85207200D02*
X111609524Y-85254819D01*
X111609524Y-85254819D02*
X111847619Y-85254819D01*
X111847619Y-85254819D02*
X111942857Y-85207200D01*
X111942857Y-85207200D02*
X111990476Y-85159580D01*
X111990476Y-85159580D02*
X112038095Y-85064342D01*
X112038095Y-85064342D02*
X112038095Y-84969104D01*
X112038095Y-84969104D02*
X111990476Y-84873866D01*
X111990476Y-84873866D02*
X111942857Y-84826247D01*
X111942857Y-84826247D02*
X111847619Y-84778628D01*
X111847619Y-84778628D02*
X111657143Y-84731009D01*
X111657143Y-84731009D02*
X111561905Y-84683390D01*
X111561905Y-84683390D02*
X111514286Y-84635771D01*
X111514286Y-84635771D02*
X111466667Y-84540533D01*
X111466667Y-84540533D02*
X111466667Y-84445295D01*
X111466667Y-84445295D02*
X111514286Y-84350057D01*
X111514286Y-84350057D02*
X111561905Y-84302438D01*
X111561905Y-84302438D02*
X111657143Y-84254819D01*
X111657143Y-84254819D02*
X111895238Y-84254819D01*
X111895238Y-84254819D02*
X112038095Y-84302438D01*
X112371429Y-84254819D02*
X112609524Y-85254819D01*
X112609524Y-85254819D02*
X112800000Y-84540533D01*
X112800000Y-84540533D02*
X112990476Y-85254819D01*
X112990476Y-85254819D02*
X113228572Y-84254819D01*
X114133333Y-85254819D02*
X113561905Y-85254819D01*
X113847619Y-85254819D02*
X113847619Y-84254819D01*
X113847619Y-84254819D02*
X113752381Y-84397676D01*
X113752381Y-84397676D02*
X113657143Y-84492914D01*
X113657143Y-84492914D02*
X113561905Y-84540533D01*
X73054819Y-88166666D02*
X73054819Y-88642856D01*
X73054819Y-88642856D02*
X72054819Y-88642856D01*
X73054819Y-87309523D02*
X73054819Y-87880951D01*
X73054819Y-87595237D02*
X72054819Y-87595237D01*
X72054819Y-87595237D02*
X72197676Y-87690475D01*
X72197676Y-87690475D02*
X72292914Y-87785713D01*
X72292914Y-87785713D02*
X72340533Y-87880951D01*
X82838095Y-92054819D02*
X82838095Y-92864342D01*
X82838095Y-92864342D02*
X82885714Y-92959580D01*
X82885714Y-92959580D02*
X82933333Y-93007200D01*
X82933333Y-93007200D02*
X83028571Y-93054819D01*
X83028571Y-93054819D02*
X83219047Y-93054819D01*
X83219047Y-93054819D02*
X83314285Y-93007200D01*
X83314285Y-93007200D02*
X83361904Y-92959580D01*
X83361904Y-92959580D02*
X83409523Y-92864342D01*
X83409523Y-92864342D02*
X83409523Y-92054819D01*
X83790476Y-92054819D02*
X84409523Y-92054819D01*
X84409523Y-92054819D02*
X84076190Y-92435771D01*
X84076190Y-92435771D02*
X84219047Y-92435771D01*
X84219047Y-92435771D02*
X84314285Y-92483390D01*
X84314285Y-92483390D02*
X84361904Y-92531009D01*
X84361904Y-92531009D02*
X84409523Y-92626247D01*
X84409523Y-92626247D02*
X84409523Y-92864342D01*
X84409523Y-92864342D02*
X84361904Y-92959580D01*
X84361904Y-92959580D02*
X84314285Y-93007200D01*
X84314285Y-93007200D02*
X84219047Y-93054819D01*
X84219047Y-93054819D02*
X83933333Y-93054819D01*
X83933333Y-93054819D02*
X83838095Y-93007200D01*
X83838095Y-93007200D02*
X83790476Y-92959580D01*
X72254819Y-92161904D02*
X73064342Y-92161904D01*
X73064342Y-92161904D02*
X73159580Y-92114285D01*
X73159580Y-92114285D02*
X73207200Y-92066666D01*
X73207200Y-92066666D02*
X73254819Y-91971428D01*
X73254819Y-91971428D02*
X73254819Y-91780952D01*
X73254819Y-91780952D02*
X73207200Y-91685714D01*
X73207200Y-91685714D02*
X73159580Y-91638095D01*
X73159580Y-91638095D02*
X73064342Y-91590476D01*
X73064342Y-91590476D02*
X72254819Y-91590476D01*
X72350057Y-91161904D02*
X72302438Y-91114285D01*
X72302438Y-91114285D02*
X72254819Y-91019047D01*
X72254819Y-91019047D02*
X72254819Y-90780952D01*
X72254819Y-90780952D02*
X72302438Y-90685714D01*
X72302438Y-90685714D02*
X72350057Y-90638095D01*
X72350057Y-90638095D02*
X72445295Y-90590476D01*
X72445295Y-90590476D02*
X72540533Y-90590476D01*
X72540533Y-90590476D02*
X72683390Y-90638095D01*
X72683390Y-90638095D02*
X73254819Y-91209523D01*
X73254819Y-91209523D02*
X73254819Y-90590476D01*
X79633333Y-86959580D02*
X79585714Y-87007200D01*
X79585714Y-87007200D02*
X79442857Y-87054819D01*
X79442857Y-87054819D02*
X79347619Y-87054819D01*
X79347619Y-87054819D02*
X79204762Y-87007200D01*
X79204762Y-87007200D02*
X79109524Y-86911961D01*
X79109524Y-86911961D02*
X79061905Y-86816723D01*
X79061905Y-86816723D02*
X79014286Y-86626247D01*
X79014286Y-86626247D02*
X79014286Y-86483390D01*
X79014286Y-86483390D02*
X79061905Y-86292914D01*
X79061905Y-86292914D02*
X79109524Y-86197676D01*
X79109524Y-86197676D02*
X79204762Y-86102438D01*
X79204762Y-86102438D02*
X79347619Y-86054819D01*
X79347619Y-86054819D02*
X79442857Y-86054819D01*
X79442857Y-86054819D02*
X79585714Y-86102438D01*
X79585714Y-86102438D02*
X79633333Y-86150057D01*
X80014286Y-86150057D02*
X80061905Y-86102438D01*
X80061905Y-86102438D02*
X80157143Y-86054819D01*
X80157143Y-86054819D02*
X80395238Y-86054819D01*
X80395238Y-86054819D02*
X80490476Y-86102438D01*
X80490476Y-86102438D02*
X80538095Y-86150057D01*
X80538095Y-86150057D02*
X80585714Y-86245295D01*
X80585714Y-86245295D02*
X80585714Y-86340533D01*
X80585714Y-86340533D02*
X80538095Y-86483390D01*
X80538095Y-86483390D02*
X79966667Y-87054819D01*
X79966667Y-87054819D02*
X80585714Y-87054819D01*
%TO.C,C1*%
D12*
X77690000Y-90940580D02*
X77690000Y-90659420D01*
X78710000Y-90940580D02*
X78710000Y-90659420D01*
%TO.C,R8*%
X88677500Y-86949758D02*
X88677500Y-86475242D01*
X89722500Y-86949758D02*
X89722500Y-86475242D01*
%TO.C,R7*%
X92150242Y-89777500D02*
X92624758Y-89777500D01*
X92150242Y-90822500D02*
X92624758Y-90822500D01*
%TO.C,R6*%
X87077500Y-86949758D02*
X87077500Y-86475242D01*
X88122500Y-86949758D02*
X88122500Y-86475242D01*
%TO.C,R5*%
X99975242Y-88177500D02*
X100449758Y-88177500D01*
X99975242Y-89222500D02*
X100449758Y-89222500D01*
%TO.C,R4*%
X92150242Y-88177500D02*
X92624758Y-88177500D01*
X92150242Y-89222500D02*
X92624758Y-89222500D01*
%TO.C,R3*%
X83277500Y-84524758D02*
X83277500Y-84050242D01*
X84322500Y-84524758D02*
X84322500Y-84050242D01*
%TO.C,R2*%
X99975242Y-89777500D02*
X100449758Y-89777500D01*
X99975242Y-90822500D02*
X100449758Y-90822500D01*
%TO.C,R1*%
X81277500Y-84524758D02*
X81277500Y-84050242D01*
X82322500Y-84524758D02*
X82322500Y-84050242D01*
%TO.C,D16*%
X94254309Y-71199306D02*
X94757078Y-69817958D01*
X94757078Y-69817958D02*
X92609881Y-69036442D01*
X92107111Y-70417790D02*
X94254309Y-71199306D01*
%TO.C,D15*%
X100688191Y-69772690D02*
X101190960Y-71154038D01*
X101190960Y-71154038D02*
X103338158Y-70372522D01*
X102835388Y-68991174D02*
X100688191Y-69772690D01*
%TO.C,D14*%
X85872603Y-79559443D02*
X84927705Y-80685528D01*
X84927705Y-80685528D02*
X86678117Y-82154298D01*
X87623014Y-81028212D02*
X85872603Y-79559443D01*
%TO.C,D13*%
X107096283Y-81341522D02*
X108041181Y-82467607D01*
X108041181Y-82467607D02*
X109791592Y-80998838D01*
X108846695Y-79872752D02*
X107096283Y-81341522D01*
%TO.C,D12*%
X88717188Y-63904170D02*
X88845307Y-62439764D01*
X88845307Y-62439764D02*
X86569002Y-62240613D01*
X86440883Y-63705020D02*
X88717188Y-63904170D01*
%TO.C,D11*%
X107875383Y-63588372D02*
X107620120Y-62140705D01*
X107620120Y-62140705D02*
X105369834Y-62537491D01*
X105625097Y-63985158D02*
X107875383Y-63588372D01*
%TO.C,D10*%
X95883019Y-84333464D02*
X95883019Y-85803464D01*
X95883019Y-85803464D02*
X98168019Y-85803464D01*
X98168019Y-84333464D02*
X95883019Y-84333464D01*
%TO.C,D9*%
X105998996Y-53981934D02*
X104959549Y-52942487D01*
X104959549Y-52942487D02*
X103343810Y-54558226D01*
X104383257Y-55597673D02*
X105998996Y-53981934D01*
%TO.C,D8*%
X111144409Y-65253077D02*
X112582286Y-65558707D01*
X112582286Y-65558707D02*
X113057364Y-63323640D01*
X111619487Y-63018010D02*
X111144409Y-65253077D01*
%TO.C,D7*%
X112668409Y-59030077D02*
X114106286Y-59335707D01*
X114106286Y-59335707D02*
X114581364Y-57100640D01*
X113143487Y-56795010D02*
X112668409Y-59030077D01*
%TO.C,D6*%
X113938409Y-53315077D02*
X115376286Y-53620707D01*
X115376286Y-53620707D02*
X115851364Y-51385640D01*
X114413487Y-51080010D02*
X113938409Y-53315077D01*
%TO.C,D5*%
X115339532Y-47429998D02*
X116777409Y-47735628D01*
X116777409Y-47735628D02*
X117252487Y-45500561D01*
X115814610Y-45194931D02*
X115339532Y-47429998D01*
%TO.C,D4*%
X82805906Y-65675749D02*
X84243783Y-65370119D01*
X84243783Y-65370119D02*
X83768705Y-63135052D01*
X82330828Y-63440682D02*
X82805906Y-65675749D01*
%TO.C,D3*%
X81391752Y-59716707D02*
X82829629Y-59411077D01*
X82829629Y-59411077D02*
X82354551Y-57176010D01*
X80916674Y-57481640D02*
X81391752Y-59716707D01*
%TO.C,D2*%
X80011906Y-54001707D02*
X81449783Y-53696077D01*
X81449783Y-53696077D02*
X80974705Y-51461010D01*
X79536828Y-51766640D02*
X80011906Y-54001707D01*
%TO.C,D1*%
X78496152Y-47844949D02*
X79934029Y-47539319D01*
X79934029Y-47539319D02*
X79458951Y-45304252D01*
X78021074Y-45609882D02*
X78496152Y-47844949D01*
%TO.C,SW1*%
D11*
X110970000Y-85660000D02*
X110970000Y-86090000D01*
X110970000Y-88740000D02*
X110970000Y-88310000D01*
X115030000Y-85660000D02*
X110970000Y-85660000D01*
X115030000Y-85660000D02*
X115030000Y-86090000D01*
X115030000Y-88310000D02*
X115030000Y-88740000D01*
X115030000Y-88740000D02*
X110970000Y-88740000D01*
D13*
X113900000Y-87200000D02*
G75*
G02*
X112100000Y-87200000I-900000J0D01*
G01*
X112100000Y-87200000D02*
G75*
G02*
X113900000Y-87200000I900000J0D01*
G01*
D14*
X115530000Y-85730000D02*
G75*
G02*
X115470000Y-85730000I-30000J0D01*
G01*
X115470000Y-85730000D02*
G75*
G02*
X115530000Y-85730000I30000J0D01*
G01*
%TO.C,L1*%
D13*
X73400000Y-85300000D02*
X73600000Y-85100000D01*
X73400000Y-85450000D02*
X73400000Y-85300000D01*
X73400000Y-86500000D02*
X73400000Y-85450000D01*
X73400000Y-87500000D02*
X73400000Y-88550000D01*
X73400000Y-88550000D02*
X73400000Y-88700000D01*
X73400000Y-88700000D02*
X73600000Y-88900000D01*
X75600000Y-85100000D02*
X73600000Y-85100000D01*
X75600000Y-88900000D02*
X73600000Y-88900000D01*
X75800000Y-85300000D02*
X75600000Y-85100000D01*
X75800000Y-85450000D02*
X75800000Y-85300000D01*
X75800000Y-86500000D02*
X75800000Y-85450000D01*
X75800000Y-87500000D02*
X75800000Y-88550000D01*
X75800000Y-88550000D02*
X75800000Y-88700000D01*
X75800000Y-88700000D02*
X75600000Y-88900000D01*
D14*
X73830000Y-86000000D02*
G75*
G02*
X73770000Y-86000000I-30000J0D01*
G01*
X73770000Y-86000000D02*
G75*
G02*
X73830000Y-86000000I30000J0D01*
G01*
%TO.C,U3*%
D11*
X82020000Y-88420000D02*
X82500000Y-88420000D01*
X82020000Y-88900000D02*
X82020000Y-88420000D01*
X82020000Y-91100000D02*
X82020000Y-91580000D01*
X82020000Y-91580000D02*
X82500000Y-91580000D01*
X85180000Y-88420000D02*
X84700000Y-88420000D01*
X85180000Y-88900000D02*
X85180000Y-88420000D01*
X85180000Y-91100000D02*
X85180000Y-91580000D01*
X85180000Y-91580000D02*
X84700000Y-91580000D01*
X84470000Y-87960000D02*
G75*
G02*
X84330000Y-87960000I-70000J0D01*
G01*
X84330000Y-87960000D02*
G75*
G02*
X84470000Y-87960000I70000J0D01*
G01*
D14*
X85130000Y-88500000D02*
G75*
G02*
X85070000Y-88500000I-30000J0D01*
G01*
X85070000Y-88500000D02*
G75*
G02*
X85130000Y-88500000I30000J0D01*
G01*
%TO.C,U2*%
D11*
X73460000Y-90320000D02*
X73460000Y-92080000D01*
X73460000Y-92080000D02*
X74510000Y-92080000D01*
X74540000Y-90320000D02*
X75460000Y-90320000D01*
X76540000Y-90320000D02*
X76540000Y-92080000D01*
X76540000Y-92080000D02*
X75490000Y-92080000D01*
D14*
X76490000Y-89800000D02*
G75*
G02*
X76430000Y-89800000I-30000J0D01*
G01*
X76430000Y-89800000D02*
G75*
G02*
X76490000Y-89800000I30000J0D01*
G01*
%TO.C,C2*%
D12*
X81627836Y-87240000D02*
X81412164Y-87240000D01*
X81627836Y-87960000D02*
X81412164Y-87960000D01*
D15*
%TO.C,G\u002A\u002A\u002A*%
G36*
X115404296Y-43530173D02*
G01*
X115581240Y-43553743D01*
X115813579Y-43597085D01*
X116111419Y-43660995D01*
X116484865Y-43746270D01*
X116820850Y-43824773D01*
X117185721Y-43910914D01*
X117524278Y-43991800D01*
X117824143Y-44064400D01*
X118072935Y-44125681D01*
X118258276Y-44172612D01*
X118367787Y-44202159D01*
X118388500Y-44208772D01*
X118534854Y-44312258D01*
X118628012Y-44477136D01*
X118652643Y-44632016D01*
X118641778Y-44693172D01*
X118609831Y-44843597D01*
X118557774Y-45079098D01*
X118486579Y-45395481D01*
X118397218Y-45788552D01*
X118290661Y-46254117D01*
X118167882Y-46787982D01*
X118029851Y-47385954D01*
X117877541Y-48043837D01*
X117711924Y-48757439D01*
X117533970Y-49522566D01*
X117344653Y-50335023D01*
X117144943Y-51190617D01*
X116935813Y-52085153D01*
X116718234Y-53014438D01*
X116493177Y-53974278D01*
X116261616Y-54960479D01*
X116107841Y-55614646D01*
X115872773Y-56614490D01*
X115643567Y-57589998D01*
X115421191Y-58537020D01*
X115206614Y-59451410D01*
X115000807Y-60329019D01*
X114804738Y-61165698D01*
X114619376Y-61957300D01*
X114445690Y-62699676D01*
X114284651Y-63388678D01*
X114137226Y-64020158D01*
X114004385Y-64589968D01*
X113887098Y-65093960D01*
X113786333Y-65527985D01*
X113703060Y-65887895D01*
X113638248Y-66169542D01*
X113592866Y-66368778D01*
X113567883Y-66481454D01*
X113563040Y-66506434D01*
X113603057Y-66576654D01*
X113659121Y-66607866D01*
X113706579Y-66625257D01*
X113744254Y-66649516D01*
X113771054Y-66688272D01*
X113785889Y-66749151D01*
X113787668Y-66839782D01*
X113775301Y-66967792D01*
X113747696Y-67140809D01*
X113703763Y-67366462D01*
X113642411Y-67652377D01*
X113562549Y-68006184D01*
X113463087Y-68435508D01*
X113342934Y-68947980D01*
X113295903Y-69147921D01*
X112745466Y-71487187D01*
X112862921Y-71880410D01*
X113076391Y-72759410D01*
X113196159Y-73647107D01*
X113223601Y-74538728D01*
X113160095Y-75429504D01*
X113007021Y-76314663D01*
X112765755Y-77189435D01*
X112437676Y-78049048D01*
X112024161Y-78888731D01*
X111526590Y-79703714D01*
X110946338Y-80489226D01*
X110284786Y-81240495D01*
X110106936Y-81422322D01*
X109270204Y-82193033D01*
X108363473Y-82901230D01*
X107391254Y-83544982D01*
X106358055Y-84122359D01*
X105268387Y-84631430D01*
X104126760Y-85070264D01*
X102937682Y-85436931D01*
X101705665Y-85729500D01*
X100435216Y-85946040D01*
X99235557Y-86076512D01*
X99013350Y-86089605D01*
X98716865Y-86100304D01*
X98366331Y-86108494D01*
X97981978Y-86114061D01*
X97584035Y-86116892D01*
X97192731Y-86116871D01*
X96828295Y-86113886D01*
X96510957Y-86107821D01*
X96260945Y-86098563D01*
X96181565Y-86093744D01*
X94965086Y-85970394D01*
X93779262Y-85778406D01*
X92627927Y-85520467D01*
X91814046Y-85285589D01*
X93828824Y-85285589D01*
X93873981Y-85304117D01*
X93999296Y-85331496D01*
X94189538Y-85365507D01*
X94429477Y-85403928D01*
X94703881Y-85444539D01*
X94997518Y-85485121D01*
X95295159Y-85523452D01*
X95581570Y-85557313D01*
X95841522Y-85584482D01*
X95941490Y-85593565D01*
X96208912Y-85610605D01*
X96550793Y-85623494D01*
X96945779Y-85632214D01*
X97372516Y-85636747D01*
X97809650Y-85637074D01*
X98235827Y-85633179D01*
X98629694Y-85625041D01*
X98969895Y-85612645D01*
X99230526Y-85596356D01*
X99634467Y-85557644D01*
X100065943Y-85508176D01*
X100492417Y-85452170D01*
X100881355Y-85393841D01*
X101141674Y-85348703D01*
X101298072Y-85314390D01*
X101376071Y-85281196D01*
X101392761Y-85240045D01*
X101385940Y-85218965D01*
X101323139Y-85063595D01*
X101256836Y-84877447D01*
X101196236Y-84689354D01*
X101150546Y-84528144D01*
X101128970Y-84422648D01*
X101128362Y-84412290D01*
X101110504Y-84317333D01*
X101085647Y-84281456D01*
X101031958Y-84277195D01*
X100889945Y-84273054D01*
X100667314Y-84269098D01*
X100371773Y-84265393D01*
X100011026Y-84262004D01*
X99592782Y-84258993D01*
X99124745Y-84256428D01*
X98614623Y-84254371D01*
X98070122Y-84252889D01*
X97594814Y-84252138D01*
X94145457Y-84248452D01*
X94086844Y-84535795D01*
X94035440Y-84740374D01*
X93968320Y-84948167D01*
X93928528Y-85048535D01*
X93872031Y-85178323D01*
X93835895Y-85265304D01*
X93828824Y-85285589D01*
X91814046Y-85285589D01*
X91514913Y-85199262D01*
X90444053Y-84817475D01*
X89419181Y-84377794D01*
X88444130Y-83882904D01*
X87522733Y-83335489D01*
X86658823Y-82738237D01*
X85856233Y-82093831D01*
X85118796Y-81404958D01*
X84450345Y-80674304D01*
X83854713Y-79904553D01*
X83335734Y-79098393D01*
X82897240Y-78258507D01*
X82543064Y-77387582D01*
X82277040Y-76488303D01*
X82239186Y-76325303D01*
X82082278Y-75407824D01*
X82021181Y-74493739D01*
X82026865Y-74344582D01*
X82497255Y-74344582D01*
X82544554Y-75241232D01*
X82684734Y-76123982D01*
X82915224Y-76989435D01*
X83233451Y-77834191D01*
X83636844Y-78654852D01*
X84122829Y-79448021D01*
X84688835Y-80210300D01*
X85332288Y-80938290D01*
X86050618Y-81628593D01*
X86841251Y-82277812D01*
X87701615Y-82882547D01*
X88629138Y-83439401D01*
X89621247Y-83944976D01*
X89840931Y-84045835D01*
X90299713Y-84252528D01*
X90383659Y-84144934D01*
X90442030Y-84043675D01*
X90511131Y-83886144D01*
X90569569Y-83725241D01*
X90637869Y-83422915D01*
X90671016Y-83062531D01*
X90669018Y-82675394D01*
X90631883Y-82292809D01*
X90569115Y-81980843D01*
X90375536Y-81385108D01*
X90111269Y-80780945D01*
X89877982Y-80347461D01*
X89635682Y-79901084D01*
X89460124Y-79495985D01*
X89345439Y-79110601D01*
X89285756Y-78723369D01*
X89275204Y-78312724D01*
X89280048Y-78204242D01*
X89520452Y-78204242D01*
X89523577Y-78660652D01*
X89586660Y-79078615D01*
X89716673Y-79487151D01*
X89920588Y-79915278D01*
X89940108Y-79950891D01*
X90214599Y-80465003D01*
X90435044Y-80919876D01*
X90607372Y-81331269D01*
X90737513Y-81714942D01*
X90831394Y-82086653D01*
X90894946Y-82462164D01*
X90900129Y-82502687D01*
X90923650Y-82887084D01*
X90903565Y-83274220D01*
X90843707Y-83640085D01*
X90747909Y-83960667D01*
X90629520Y-84197735D01*
X90588183Y-84291588D01*
X90595337Y-84349466D01*
X90667108Y-84388368D01*
X90815578Y-84448826D01*
X91025243Y-84525561D01*
X91280597Y-84613294D01*
X91566136Y-84706748D01*
X91866353Y-84800644D01*
X92165744Y-84889703D01*
X92268333Y-84918999D01*
X92605431Y-85013720D01*
X92863665Y-85085006D01*
X93056458Y-85135976D01*
X93197232Y-85169747D01*
X93299410Y-85189436D01*
X93376415Y-85198162D01*
X93441669Y-85199043D01*
X93468711Y-85197829D01*
X93553169Y-85183323D01*
X93614014Y-85136946D01*
X93670612Y-85037022D01*
X93721534Y-84914890D01*
X93787897Y-84722470D01*
X93840674Y-84525625D01*
X93860102Y-84422735D01*
X93889892Y-84205392D01*
X93491840Y-84205392D01*
X93093788Y-84205392D01*
X93108024Y-83721201D01*
X93588749Y-83721201D01*
X93960866Y-83737566D01*
X94068104Y-83740302D01*
X94263082Y-83743143D01*
X94537508Y-83746038D01*
X94883091Y-83748934D01*
X95291541Y-83751779D01*
X95754566Y-83754518D01*
X96263875Y-83757102D01*
X96811179Y-83759475D01*
X97388184Y-83761587D01*
X97986602Y-83763384D01*
X98066159Y-83763593D01*
X101799335Y-83773256D01*
X101798913Y-83257093D01*
X101780962Y-82536232D01*
X101730348Y-81772612D01*
X101650236Y-80989922D01*
X101543789Y-80211848D01*
X101414173Y-79462077D01*
X101264551Y-78764296D01*
X101130128Y-78250908D01*
X100892255Y-77514888D01*
X100622661Y-76843340D01*
X100324360Y-76239460D01*
X100000370Y-75706447D01*
X99653706Y-75247497D01*
X99287384Y-74865806D01*
X98904420Y-74564572D01*
X98507830Y-74346991D01*
X98100629Y-74216261D01*
X97685834Y-74175578D01*
X97323145Y-74215501D01*
X97000901Y-74306977D01*
X96701454Y-74447964D01*
X96405501Y-74650098D01*
X96093738Y-74925016D01*
X96011045Y-75006503D01*
X95824401Y-75201509D01*
X95644976Y-75402499D01*
X95494160Y-75584728D01*
X95399370Y-75714072D01*
X95000950Y-76403471D01*
X94651499Y-77174816D01*
X94351277Y-78027292D01*
X94100545Y-78960086D01*
X93899562Y-79972383D01*
X93782890Y-80773194D01*
X93738852Y-81158019D01*
X93697380Y-81581830D01*
X93660209Y-82021157D01*
X93629075Y-82452530D01*
X93605714Y-82852479D01*
X93591861Y-83197534D01*
X93588749Y-83398300D01*
X93588749Y-83721201D01*
X93108024Y-83721201D01*
X93117517Y-83398300D01*
X93122374Y-83233086D01*
X93134936Y-82877326D01*
X93151897Y-82498589D01*
X93171621Y-82128141D01*
X93192467Y-81797251D01*
X93208961Y-81580747D01*
X93266962Y-80900714D01*
X93090264Y-80660003D01*
X92932746Y-80414185D01*
X92780248Y-80121733D01*
X92649494Y-79818930D01*
X92557208Y-79542056D01*
X92537830Y-79461535D01*
X92488058Y-78996497D01*
X92531920Y-78519879D01*
X92669689Y-78030779D01*
X92901639Y-77528293D01*
X93228042Y-77011517D01*
X93314198Y-76893622D01*
X93448204Y-76705031D01*
X93561412Y-76527957D01*
X93639560Y-76385741D01*
X93666251Y-76317440D01*
X93694079Y-76111429D01*
X93692210Y-75847106D01*
X93659909Y-75515530D01*
X93596444Y-75107758D01*
X93543985Y-74827304D01*
X93451486Y-74280747D01*
X93405268Y-73805866D01*
X93406760Y-73389425D01*
X93457389Y-73018190D01*
X93558581Y-72678926D01*
X93711764Y-72358397D01*
X93830821Y-72167198D01*
X93905578Y-72040782D01*
X93942687Y-71945460D01*
X93939758Y-71911190D01*
X93878687Y-71881227D01*
X93731498Y-71823465D01*
X93503415Y-71739749D01*
X93199659Y-71631927D01*
X92825452Y-71501846D01*
X92386017Y-71351352D01*
X91886575Y-71182293D01*
X91727065Y-71128649D01*
X90993737Y-70882371D01*
X90874793Y-71025829D01*
X90673085Y-71304742D01*
X90489204Y-71623677D01*
X90348877Y-71936991D01*
X90327943Y-71996032D01*
X90262658Y-72230961D01*
X90229073Y-72465928D01*
X90228724Y-72716567D01*
X90263145Y-72998509D01*
X90333871Y-73327387D01*
X90442437Y-73718833D01*
X90522546Y-73978171D01*
X90630497Y-74380311D01*
X90689124Y-74744509D01*
X90696754Y-75055877D01*
X90665870Y-75253809D01*
X90617099Y-75381720D01*
X90531015Y-75560320D01*
X90422517Y-75759700D01*
X90366855Y-75853998D01*
X90089172Y-76335366D01*
X89874075Y-76766960D01*
X89715358Y-77166010D01*
X89606817Y-77549747D01*
X89542246Y-77935400D01*
X89520452Y-78204242D01*
X89280048Y-78204242D01*
X89282089Y-78158535D01*
X89327647Y-77731788D01*
X89415525Y-77322415D01*
X89552421Y-76911243D01*
X89745034Y-76479097D01*
X90000062Y-76006804D01*
X90083324Y-75865164D01*
X90239895Y-75593973D01*
X90354140Y-75364805D01*
X90427353Y-75158777D01*
X90460829Y-74957008D01*
X90455860Y-74740616D01*
X90413741Y-74490719D01*
X90335766Y-74188434D01*
X90223706Y-73816417D01*
X90082860Y-73289994D01*
X90009592Y-72820085D01*
X90005537Y-72393397D01*
X90072331Y-71996634D01*
X90211609Y-71616503D01*
X90425006Y-71239709D01*
X90564988Y-71041771D01*
X90757409Y-70785683D01*
X90408523Y-70670817D01*
X90239912Y-70614095D01*
X90110657Y-70568342D01*
X90044499Y-70542014D01*
X90041008Y-70539893D01*
X90040836Y-70488443D01*
X90063198Y-70382888D01*
X90098079Y-70258211D01*
X90135461Y-70149392D01*
X90165329Y-70091412D01*
X90170129Y-70088946D01*
X90217883Y-70104072D01*
X90346068Y-70147083D01*
X90544376Y-70214425D01*
X90802499Y-70302547D01*
X91110130Y-70407895D01*
X91456961Y-70526918D01*
X91832683Y-70656063D01*
X92226989Y-70791778D01*
X92629572Y-70930510D01*
X93030122Y-71068706D01*
X93418333Y-71202815D01*
X93783897Y-71329283D01*
X94116505Y-71444558D01*
X94405850Y-71545089D01*
X94641624Y-71627322D01*
X94813520Y-71687704D01*
X94911228Y-71722684D01*
X94918947Y-71725558D01*
X94980534Y-71754297D01*
X95001241Y-71796624D01*
X94984347Y-71880611D01*
X94949418Y-71986522D01*
X94895788Y-72110735D01*
X94842943Y-72181029D01*
X94819598Y-72187609D01*
X94746267Y-72162330D01*
X94614996Y-72118394D01*
X94505934Y-72082348D01*
X94246748Y-71997113D01*
X94157269Y-72111366D01*
X93947520Y-72417282D01*
X93793797Y-72734704D01*
X93694400Y-73076102D01*
X93647628Y-73453941D01*
X93651778Y-73880691D01*
X93705149Y-74368818D01*
X93786049Y-74831726D01*
X93873597Y-75329937D01*
X93922300Y-75745033D01*
X93932364Y-76081629D01*
X93903995Y-76344342D01*
X93859891Y-76490327D01*
X93797191Y-76608532D01*
X93692187Y-76774989D01*
X93562350Y-76962787D01*
X93485863Y-77066508D01*
X93156131Y-77558385D01*
X92920904Y-78037777D01*
X92779708Y-78506376D01*
X92732071Y-78965874D01*
X92777518Y-79417963D01*
X92800287Y-79517893D01*
X92851710Y-79681213D01*
X92927474Y-79872511D01*
X93016863Y-80069936D01*
X93109161Y-80251637D01*
X93193654Y-80395764D01*
X93259625Y-80480467D01*
X93278386Y-80492801D01*
X93303366Y-80454568D01*
X93337273Y-80339050D01*
X93375684Y-80164058D01*
X93414172Y-79947404D01*
X93414707Y-79944058D01*
X93574558Y-79096321D01*
X93776266Y-78285709D01*
X94016413Y-77519785D01*
X94291581Y-76806114D01*
X94598352Y-76152259D01*
X94933309Y-75565785D01*
X95293033Y-75054255D01*
X95674106Y-74625235D01*
X95917106Y-74406033D01*
X96367336Y-74089299D01*
X96828478Y-73865942D01*
X97296517Y-73736244D01*
X97767440Y-73700490D01*
X98237234Y-73758963D01*
X98701885Y-73911948D01*
X99157379Y-74159728D01*
X99180816Y-74175262D01*
X99630837Y-74530996D01*
X100052426Y-74975972D01*
X100443829Y-75507183D01*
X100803297Y-76121622D01*
X101129076Y-76816282D01*
X101419415Y-77588156D01*
X101672563Y-78434236D01*
X101681366Y-78467585D01*
X101758104Y-78779029D01*
X101838222Y-79136400D01*
X101911072Y-79490624D01*
X101956232Y-79734505D01*
X102067092Y-80377229D01*
X102220104Y-80090150D01*
X102406017Y-79652717D01*
X102499642Y-79209270D01*
X102500629Y-78757585D01*
X102408625Y-78295443D01*
X102223281Y-77820622D01*
X101944245Y-77330902D01*
X101737760Y-77037057D01*
X101600542Y-76844903D01*
X101481066Y-76660975D01*
X101394824Y-76510046D01*
X101362384Y-76436868D01*
X101317231Y-76209136D01*
X101310035Y-75909823D01*
X101341072Y-75534262D01*
X101410618Y-75077787D01*
X101457131Y-74831726D01*
X101552222Y-74275065D01*
X101599943Y-73797446D01*
X101600537Y-73394515D01*
X101555164Y-73065884D01*
X101488449Y-72855680D01*
X101383771Y-72611039D01*
X101259969Y-72370945D01*
X101135883Y-72174381D01*
X101104691Y-72133727D01*
X100990934Y-71993819D01*
X100705989Y-72097715D01*
X100553923Y-72151739D01*
X100440717Y-72189310D01*
X100394476Y-72201611D01*
X100364981Y-72160482D01*
X100319748Y-72055837D01*
X100293593Y-71983510D01*
X100270819Y-71912296D01*
X101304280Y-71912296D01*
X101307203Y-71968277D01*
X101355949Y-72074457D01*
X101411069Y-72164015D01*
X101597210Y-72480996D01*
X101730261Y-72809033D01*
X101811646Y-73161296D01*
X101842786Y-73550955D01*
X101825104Y-73991180D01*
X101760022Y-74495141D01*
X101699178Y-74831726D01*
X101621747Y-75243334D01*
X101569436Y-75577395D01*
X101543975Y-75849499D01*
X101547096Y-76075235D01*
X101580529Y-76270196D01*
X101646003Y-76449970D01*
X101745250Y-76630150D01*
X101880000Y-76826324D01*
X101927712Y-76890768D01*
X102275439Y-77410583D01*
X102528854Y-77915367D01*
X102688302Y-78406261D01*
X102754129Y-78884407D01*
X102726682Y-79350948D01*
X102706208Y-79461535D01*
X102646127Y-79671978D01*
X102550527Y-79925898D01*
X102435035Y-80187402D01*
X102315277Y-80420601D01*
X102226623Y-80563051D01*
X102183665Y-80627118D01*
X102155926Y-80688815D01*
X102142248Y-80767054D01*
X102141473Y-80880746D01*
X102152444Y-81048803D01*
X102174004Y-81290137D01*
X102178911Y-81342715D01*
X102197734Y-81582558D01*
X102216757Y-81893502D01*
X102234759Y-82250627D01*
X102250517Y-82629015D01*
X102262810Y-83003746D01*
X102265673Y-83113048D01*
X102293557Y-84253407D01*
X101830378Y-84253407D01*
X101615984Y-84254984D01*
X101480037Y-84262014D01*
X101404976Y-84277947D01*
X101373238Y-84306231D01*
X101367199Y-84344380D01*
X101384401Y-84459795D01*
X101428640Y-84629364D01*
X101488862Y-84819089D01*
X101554014Y-84994970D01*
X101613043Y-85123009D01*
X101628333Y-85147617D01*
X101672242Y-85201516D01*
X101723245Y-85225236D01*
X101807845Y-85221075D01*
X101952543Y-85191333D01*
X102001867Y-85180019D01*
X102177969Y-85137460D01*
X102411315Y-85078394D01*
X102666577Y-85011859D01*
X102831660Y-84967766D01*
X103142912Y-84879522D01*
X103480482Y-84776842D01*
X103818184Y-84668270D01*
X104129830Y-84562350D01*
X104389234Y-84467626D01*
X104500377Y-84423301D01*
X104637216Y-84349893D01*
X104678480Y-84283848D01*
X104635335Y-84231321D01*
X104582513Y-84159624D01*
X104520424Y-84016448D01*
X104456461Y-83824888D01*
X104398017Y-83608039D01*
X104352486Y-83388995D01*
X104339884Y-83308389D01*
X104311291Y-82887371D01*
X104342054Y-82446261D01*
X104434416Y-81977245D01*
X104590622Y-81472509D01*
X104812915Y-80924238D01*
X105103539Y-80324620D01*
X105303930Y-79950891D01*
X105540526Y-79434149D01*
X105684098Y-78906979D01*
X105734495Y-78367895D01*
X105691566Y-77815411D01*
X105555160Y-77248041D01*
X105325127Y-76664298D01*
X105001315Y-76062695D01*
X104891211Y-75886793D01*
X104735813Y-75624734D01*
X104627245Y-75382533D01*
X104564579Y-75142922D01*
X104546886Y-74888632D01*
X104573238Y-74602395D01*
X104642708Y-74266943D01*
X104754367Y-73865005D01*
X104778308Y-73786110D01*
X104906428Y-73323275D01*
X104983712Y-72925648D01*
X105009941Y-72576830D01*
X104984899Y-72260425D01*
X104908368Y-71960035D01*
X104780131Y-71659261D01*
X104749327Y-71599631D01*
X104642568Y-71415322D01*
X104522746Y-71235226D01*
X104404202Y-71078059D01*
X104301278Y-70962539D01*
X104228315Y-70907383D01*
X104217253Y-70905203D01*
X104156439Y-70920444D01*
X104019139Y-70963059D01*
X103818837Y-71028387D01*
X103569016Y-71111766D01*
X103283158Y-71208534D01*
X102974747Y-71314031D01*
X102657265Y-71423595D01*
X102344197Y-71532565D01*
X102049024Y-71636278D01*
X101785230Y-71730074D01*
X101566298Y-71809291D01*
X101405712Y-71869267D01*
X101316953Y-71905342D01*
X101304280Y-71912296D01*
X100270819Y-71912296D01*
X100251395Y-71851560D01*
X100244666Y-71781900D01*
X100276864Y-71746283D01*
X100325091Y-71726231D01*
X100453364Y-71679978D01*
X100651655Y-71610094D01*
X100909752Y-71520068D01*
X101217442Y-71413392D01*
X101564515Y-71293557D01*
X101940758Y-71164054D01*
X102335960Y-71028374D01*
X102739909Y-70890009D01*
X103142392Y-70752450D01*
X103533199Y-70619187D01*
X103902117Y-70493711D01*
X104238935Y-70379515D01*
X104533440Y-70280089D01*
X104775422Y-70198925D01*
X104954668Y-70139512D01*
X105060966Y-70105343D01*
X105086669Y-70098374D01*
X105114480Y-70161179D01*
X105152589Y-70274648D01*
X105187949Y-70396294D01*
X105207513Y-70483632D01*
X105208408Y-70494789D01*
X105166056Y-70535271D01*
X105054272Y-70590956D01*
X104895966Y-70650687D01*
X104872302Y-70658445D01*
X104709611Y-70716483D01*
X104590249Y-70769812D01*
X104537062Y-70808026D01*
X104536197Y-70811526D01*
X104563346Y-70871575D01*
X104633424Y-70979665D01*
X104702388Y-71074080D01*
X104877535Y-71340812D01*
X105036304Y-71650244D01*
X105159375Y-71961464D01*
X105213467Y-72156267D01*
X105252486Y-72507176D01*
X105229095Y-72911452D01*
X105142565Y-73375358D01*
X105020331Y-73816417D01*
X104906567Y-74197538D01*
X104828890Y-74506941D01*
X104787783Y-74762095D01*
X104783728Y-74980467D01*
X104817207Y-75179526D01*
X104888703Y-75376741D01*
X104998697Y-75589578D01*
X105072730Y-75714625D01*
X105372358Y-76236648D01*
X105604419Y-76712186D01*
X105774596Y-77156851D01*
X105888576Y-77586254D01*
X105952042Y-78016005D01*
X105962752Y-78158535D01*
X105970265Y-78534961D01*
X105942421Y-78880415D01*
X105873621Y-79214815D01*
X105758269Y-79558080D01*
X105590766Y-79930127D01*
X105365514Y-80350874D01*
X105328289Y-80416128D01*
X105011305Y-81029806D01*
X104781303Y-81617793D01*
X104635604Y-82188787D01*
X104571530Y-82751490D01*
X104568012Y-82884976D01*
X104584536Y-83245426D01*
X104637728Y-83583944D01*
X104722397Y-83878465D01*
X104833350Y-84106925D01*
X104866574Y-84153695D01*
X104957293Y-84270051D01*
X105935119Y-83785531D01*
X106959569Y-83233786D01*
X107908341Y-82631832D01*
X108779651Y-81981358D01*
X109571718Y-81284054D01*
X110282759Y-80541610D01*
X110910993Y-79755713D01*
X111454637Y-78928054D01*
X111860219Y-78169500D01*
X112198042Y-77365947D01*
X112458858Y-76526658D01*
X112638499Y-75669606D01*
X112732801Y-74812762D01*
X112746783Y-74344582D01*
X112740148Y-74116913D01*
X112722035Y-73840055D01*
X112695129Y-73538832D01*
X112662115Y-73238064D01*
X112625680Y-72962571D01*
X112588508Y-72737177D01*
X112558449Y-72603905D01*
X112519165Y-72465695D01*
X112488024Y-72585732D01*
X112471962Y-72651947D01*
X112435830Y-72803654D01*
X112381512Y-73032857D01*
X112310897Y-73331563D01*
X112225870Y-73691777D01*
X112128317Y-74105504D01*
X112020126Y-74564750D01*
X111903183Y-75061520D01*
X111779375Y-75587820D01*
X111712870Y-75870672D01*
X111586127Y-76407470D01*
X111464644Y-76917473D01*
X111350350Y-77392862D01*
X111245176Y-77825819D01*
X111151052Y-78208526D01*
X111069908Y-78533163D01*
X111003675Y-78791913D01*
X110954284Y-78976957D01*
X110923664Y-79080477D01*
X110915646Y-79099689D01*
X110825210Y-79156485D01*
X110781870Y-79163804D01*
X110719430Y-79153049D01*
X110573548Y-79122293D01*
X110354194Y-79073804D01*
X110071341Y-79009847D01*
X109734959Y-78932689D01*
X109355019Y-78844596D01*
X108941493Y-78747835D01*
X108663080Y-78682231D01*
X108155068Y-78561678D01*
X107732882Y-78459943D01*
X107388705Y-78374562D01*
X107114720Y-78303074D01*
X106903109Y-78243017D01*
X106746056Y-78191927D01*
X106635744Y-78147342D01*
X106564356Y-78106800D01*
X106524075Y-78067838D01*
X106507084Y-78027994D01*
X106504817Y-78002335D01*
X106515639Y-77947897D01*
X106547048Y-77806762D01*
X106547869Y-77803162D01*
X107048775Y-77803162D01*
X107096174Y-77816392D01*
X107224473Y-77848578D01*
X107421084Y-77896727D01*
X107673417Y-77957843D01*
X107968885Y-78028934D01*
X108294899Y-78107005D01*
X108638871Y-78189062D01*
X108988212Y-78272112D01*
X109330334Y-78353159D01*
X109652650Y-78429210D01*
X109942569Y-78497272D01*
X110187505Y-78554349D01*
X110374869Y-78597449D01*
X110492072Y-78623576D01*
X110526083Y-78630211D01*
X110581817Y-78617340D01*
X110586102Y-78607204D01*
X110596876Y-78557766D01*
X110628310Y-78420534D01*
X110679077Y-78201195D01*
X110747845Y-77905434D01*
X110833286Y-77538935D01*
X110934071Y-77107385D01*
X111048869Y-76616469D01*
X111176353Y-76071872D01*
X111315191Y-75479280D01*
X111464055Y-74844378D01*
X111621616Y-74172851D01*
X111786543Y-73470385D01*
X111934240Y-72841682D01*
X112104366Y-72116503D01*
X112267934Y-71416939D01*
X112423635Y-70748708D01*
X112570158Y-70117532D01*
X112706196Y-69529130D01*
X112830438Y-68989222D01*
X112941574Y-68503529D01*
X113038296Y-68077769D01*
X113119294Y-67717664D01*
X113183259Y-67428933D01*
X113228881Y-67217297D01*
X113254850Y-67088475D01*
X113260467Y-67048282D01*
X113210821Y-67025714D01*
X113080213Y-66985411D01*
X112881320Y-66930394D01*
X112626822Y-66863687D01*
X112329397Y-66788311D01*
X112001723Y-66707289D01*
X111656479Y-66623642D01*
X111306342Y-66540394D01*
X110963992Y-66460565D01*
X110642106Y-66387179D01*
X110353363Y-66323257D01*
X110110441Y-66271822D01*
X109926019Y-66235896D01*
X109812775Y-66218501D01*
X109782382Y-66219194D01*
X109768607Y-66267838D01*
X109734602Y-66402952D01*
X109681986Y-66617671D01*
X109612381Y-66905128D01*
X109527407Y-67258457D01*
X109428683Y-67670794D01*
X109317830Y-68135271D01*
X109196469Y-68645023D01*
X109066219Y-69193184D01*
X108928700Y-69772888D01*
X108785534Y-70377270D01*
X108638339Y-70999462D01*
X108488737Y-71632600D01*
X108338348Y-72269818D01*
X108188791Y-72904249D01*
X108041687Y-73529028D01*
X107898657Y-74137289D01*
X107761320Y-74722165D01*
X107631297Y-75276792D01*
X107510208Y-75794302D01*
X107399673Y-76267831D01*
X107301313Y-76690512D01*
X107216747Y-77055479D01*
X107147596Y-77355867D01*
X107095480Y-77584810D01*
X107062019Y-77735441D01*
X107048834Y-77800895D01*
X107048775Y-77803162D01*
X106547869Y-77803162D01*
X106597455Y-77585669D01*
X106665272Y-77291354D01*
X106748910Y-76930557D01*
X106846782Y-76510014D01*
X106957298Y-76036464D01*
X107078872Y-75516646D01*
X107209914Y-74957297D01*
X107348836Y-74365154D01*
X107494050Y-73746957D01*
X107643968Y-73109443D01*
X107797001Y-72459350D01*
X107951562Y-71803416D01*
X108106062Y-71148379D01*
X108258912Y-70500977D01*
X108408525Y-69867948D01*
X108553312Y-69256031D01*
X108691685Y-68671962D01*
X108822056Y-68122481D01*
X108942837Y-67614325D01*
X109052438Y-67154232D01*
X109149273Y-66748940D01*
X109231752Y-66405187D01*
X109298287Y-66129711D01*
X109347291Y-65929251D01*
X109377175Y-65810544D01*
X109383247Y-65789034D01*
X110255440Y-65789034D01*
X110305749Y-65805072D01*
X110435341Y-65839148D01*
X110629888Y-65887876D01*
X110875064Y-65947868D01*
X111156540Y-66015740D01*
X111459991Y-66088107D01*
X111771088Y-66161581D01*
X112075504Y-66232777D01*
X112358912Y-66298310D01*
X112606984Y-66354793D01*
X112805394Y-66398842D01*
X112939814Y-66427069D01*
X112993657Y-66436127D01*
X113065241Y-66398230D01*
X113098019Y-66331763D01*
X113313198Y-65420995D01*
X113534552Y-64482921D01*
X113761071Y-63521872D01*
X113991745Y-62542177D01*
X114225565Y-61548167D01*
X114461519Y-60544171D01*
X114698598Y-59534520D01*
X114935792Y-58523544D01*
X115172090Y-57515573D01*
X115406483Y-56514936D01*
X115637960Y-55525965D01*
X115865511Y-54552989D01*
X116088126Y-53600338D01*
X116304795Y-52672342D01*
X116514508Y-51773332D01*
X116716254Y-50907637D01*
X116909024Y-50079588D01*
X117091807Y-49293515D01*
X117263594Y-48553747D01*
X117423373Y-47864616D01*
X117570136Y-47230450D01*
X117702871Y-46655580D01*
X117820569Y-46144336D01*
X117922219Y-45701049D01*
X118006812Y-45330048D01*
X118073337Y-45035663D01*
X118120784Y-44822225D01*
X118148143Y-44694063D01*
X118154771Y-44655221D01*
X118104286Y-44638527D01*
X117975146Y-44603675D01*
X117781338Y-44554026D01*
X117536855Y-44492942D01*
X117255685Y-44423785D01*
X116951817Y-44349917D01*
X116639243Y-44274698D01*
X116331950Y-44201492D01*
X116043930Y-44133660D01*
X115789172Y-44074563D01*
X115581666Y-44027564D01*
X115435401Y-43996024D01*
X115364367Y-43983305D01*
X115359850Y-43983593D01*
X115346916Y-44032841D01*
X115313375Y-44170453D01*
X115260396Y-44391425D01*
X115189153Y-44690754D01*
X115100816Y-45063438D01*
X114996556Y-45504472D01*
X114877543Y-46008856D01*
X114744950Y-46571585D01*
X114599948Y-47187657D01*
X114443707Y-47852068D01*
X114277399Y-48559817D01*
X114102194Y-49305899D01*
X113919265Y-50085313D01*
X113729781Y-50893054D01*
X113534915Y-51724121D01*
X113335837Y-52573510D01*
X113133718Y-53436219D01*
X112929730Y-54307244D01*
X112725044Y-55181582D01*
X112520830Y-56054232D01*
X112318261Y-56920189D01*
X112118506Y-57774451D01*
X111922737Y-58612015D01*
X111732126Y-59427878D01*
X111547843Y-60217037D01*
X111371060Y-60974489D01*
X111202948Y-61695232D01*
X111044677Y-62374262D01*
X110897419Y-63006576D01*
X110762346Y-63587172D01*
X110640627Y-64111047D01*
X110533435Y-64573197D01*
X110441940Y-64968620D01*
X110367314Y-65292313D01*
X110310727Y-65539274D01*
X110273351Y-65704498D01*
X110256358Y-65782983D01*
X110255440Y-65789034D01*
X109383247Y-65789034D01*
X109385913Y-65779589D01*
X109446303Y-65701008D01*
X109556658Y-65672708D01*
X109599848Y-65671555D01*
X109720933Y-65658276D01*
X109779000Y-65607019D01*
X109793598Y-65563521D01*
X109929212Y-64990776D01*
X110044238Y-64503959D01*
X110140150Y-64095537D01*
X110218422Y-63757976D01*
X110280525Y-63483741D01*
X110327933Y-63265298D01*
X110362118Y-63095115D01*
X110384555Y-62965657D01*
X110396715Y-62869389D01*
X110400072Y-62798779D01*
X110396099Y-62746293D01*
X110386268Y-62704396D01*
X110372053Y-62665555D01*
X110364069Y-62645696D01*
X110331729Y-62569619D01*
X110294961Y-62512417D01*
X110239662Y-62469495D01*
X110151727Y-62436256D01*
X110017050Y-62408104D01*
X109821526Y-62380443D01*
X109551051Y-62348677D01*
X109400633Y-62331763D01*
X109070828Y-62302672D01*
X108677977Y-62280739D01*
X108244741Y-62266130D01*
X107793778Y-62259011D01*
X107347747Y-62259547D01*
X106929308Y-62267904D01*
X106561121Y-62284247D01*
X106265844Y-62308741D01*
X106264741Y-62308866D01*
X105170237Y-62466126D01*
X104140091Y-62681717D01*
X103159771Y-62959216D01*
X102214745Y-63302198D01*
X102194681Y-63310328D01*
X101605718Y-63549511D01*
X101296891Y-63195411D01*
X100920067Y-62735848D01*
X100612095Y-62301558D01*
X100375915Y-61897908D01*
X100214471Y-61530264D01*
X100130705Y-61203991D01*
X100118805Y-61046955D01*
X100165236Y-60746688D01*
X100300580Y-60470160D01*
X100518916Y-60226006D01*
X100814322Y-60022860D01*
X100825065Y-60017089D01*
X101015283Y-59925985D01*
X101231749Y-59843891D01*
X101488166Y-59767160D01*
X101798237Y-59692142D01*
X102175669Y-59615190D01*
X102634163Y-59532654D01*
X102663607Y-59527606D01*
X103097622Y-59451625D01*
X103450450Y-59385374D01*
X103736031Y-59325454D01*
X103968307Y-59268470D01*
X104161220Y-59211023D01*
X104328710Y-59149718D01*
X104472773Y-59086783D01*
X104670742Y-58975876D01*
X104823137Y-58843571D01*
X104933234Y-58678685D01*
X105004307Y-58470033D01*
X105039632Y-58206429D01*
X105042483Y-57876690D01*
X105016137Y-57469630D01*
X104998910Y-57289998D01*
X104950397Y-56755885D01*
X104924074Y-56301676D01*
X104921034Y-55913594D01*
X104942369Y-55577858D01*
X104989172Y-55280691D01*
X105062535Y-55008312D01*
X105163551Y-54746944D01*
X105208207Y-54650160D01*
X105455095Y-54244809D01*
X105784768Y-53879580D01*
X106190133Y-53560777D01*
X106664098Y-53294701D01*
X106804092Y-53232217D01*
X106947676Y-53166922D01*
X107047569Y-53112971D01*
X107080179Y-53084990D01*
X107035382Y-53058314D01*
X106909665Y-53030948D01*
X106718116Y-53004219D01*
X106475825Y-52979454D01*
X106197879Y-52957981D01*
X105899368Y-52941128D01*
X105595380Y-52930222D01*
X105301004Y-52926591D01*
X105280431Y-52926647D01*
X104945298Y-52930200D01*
X104682865Y-52939330D01*
X104469868Y-52956065D01*
X104283042Y-52982438D01*
X104099122Y-53020479D01*
X104038630Y-53035066D01*
X103496079Y-53214685D01*
X103008614Y-53470492D01*
X102580628Y-53800074D01*
X102493981Y-53883148D01*
X102384063Y-53994052D01*
X102289687Y-54094196D01*
X102201867Y-54195842D01*
X102111613Y-54311251D01*
X102009939Y-54452685D01*
X101887857Y-54632407D01*
X101736379Y-54862678D01*
X101546517Y-55155759D01*
X101439426Y-55321858D01*
X101146295Y-55745773D01*
X100863856Y-56085795D01*
X100580903Y-56351531D01*
X100286229Y-56552586D01*
X99968628Y-56698567D01*
X99755097Y-56765682D01*
X99478700Y-56815057D01*
X99120026Y-56839278D01*
X98689422Y-56838541D01*
X98197233Y-56813045D01*
X97653806Y-56762987D01*
X97285913Y-56718418D01*
X96678381Y-56639870D01*
X96155626Y-56576130D01*
X95707635Y-56526620D01*
X95324395Y-56490761D01*
X94995893Y-56467975D01*
X94712116Y-56457683D01*
X94463052Y-56459309D01*
X94238687Y-56472272D01*
X94029009Y-56495995D01*
X93871369Y-56521212D01*
X93498085Y-56609329D01*
X93196273Y-56731397D01*
X92944606Y-56896674D01*
X92881460Y-56950833D01*
X92662759Y-57212917D01*
X92507593Y-57545793D01*
X92416018Y-57948195D01*
X92388091Y-58418858D01*
X92423868Y-58956516D01*
X92523406Y-59559903D01*
X92686762Y-60227753D01*
X92728107Y-60372405D01*
X92791572Y-60576995D01*
X92874753Y-60826877D01*
X92972053Y-61107038D01*
X93077872Y-61402463D01*
X93186612Y-61698137D01*
X93292675Y-61979045D01*
X93390461Y-62230174D01*
X93474372Y-62436507D01*
X93538809Y-62583031D01*
X93578174Y-62654730D01*
X93579815Y-62656528D01*
X93603744Y-62620990D01*
X93657406Y-62505064D01*
X93736900Y-62318311D01*
X93838324Y-62070289D01*
X93957777Y-61770559D01*
X94091359Y-61428680D01*
X94235169Y-61054213D01*
X94255792Y-61000006D01*
X94401954Y-60617119D01*
X94539044Y-60261321D01*
X94663000Y-59942910D01*
X94769757Y-59672182D01*
X94855254Y-59459431D01*
X94915426Y-59314955D01*
X94946211Y-59249049D01*
X94947486Y-59247215D01*
X94980635Y-59211133D01*
X95014748Y-59192355D01*
X95053312Y-59196765D01*
X95099818Y-59230253D01*
X95157754Y-59298703D01*
X95230609Y-59408002D01*
X95321872Y-59564037D01*
X95435032Y-59772695D01*
X95573578Y-60039861D01*
X95740998Y-60371424D01*
X95940782Y-60773268D01*
X96176418Y-61251282D01*
X96375339Y-61656322D01*
X96596854Y-62109332D01*
X96805105Y-62538272D01*
X96996292Y-62935109D01*
X97166616Y-63291808D01*
X97312276Y-63600335D01*
X97429474Y-63852657D01*
X97514408Y-64040740D01*
X97563279Y-64156550D01*
X97574004Y-64190627D01*
X97540860Y-64280327D01*
X97502124Y-64309713D01*
X97440799Y-64303938D01*
X97297563Y-64275447D01*
X97083142Y-64226826D01*
X96808263Y-64160660D01*
X96483653Y-64079535D01*
X96120036Y-63986036D01*
X95728141Y-63882749D01*
X95703112Y-63876070D01*
X95308491Y-63771353D01*
X94940480Y-63674971D01*
X94610004Y-63589689D01*
X94327990Y-63518273D01*
X94105364Y-63463488D01*
X93953052Y-63428100D01*
X93881982Y-63414874D01*
X93880781Y-63414844D01*
X93783461Y-63444498D01*
X93747184Y-63479826D01*
X93675304Y-63550870D01*
X93646780Y-63564515D01*
X93613806Y-63611190D01*
X93546063Y-63735960D01*
X93448172Y-63929340D01*
X93324751Y-64181843D01*
X93180419Y-64483984D01*
X93019797Y-64826277D01*
X92847502Y-65199236D01*
X92797498Y-65308524D01*
X92622411Y-65689275D01*
X92457451Y-66042793D01*
X92307287Y-66359461D01*
X92176586Y-66629659D01*
X92070015Y-66843770D01*
X91992242Y-66992176D01*
X91947934Y-67065259D01*
X91942260Y-67070859D01*
X91849795Y-67076291D01*
X91798674Y-67050432D01*
X91761465Y-66994034D01*
X91689858Y-66860159D01*
X91588577Y-66659032D01*
X91462342Y-66400875D01*
X91315879Y-66095913D01*
X91153909Y-65754369D01*
X90981155Y-65386467D01*
X90802340Y-65002431D01*
X90622188Y-64612484D01*
X90445420Y-64226851D01*
X90276759Y-63855754D01*
X90120929Y-63509418D01*
X89982653Y-63198067D01*
X89866653Y-62931924D01*
X89777651Y-62721213D01*
X89729064Y-62598170D01*
X90094426Y-62598170D01*
X90109080Y-62653814D01*
X90162354Y-62790421D01*
X90251685Y-63002206D01*
X90374509Y-63283379D01*
X90528263Y-63628156D01*
X90710383Y-64030747D01*
X90918307Y-64485366D01*
X91149469Y-64986227D01*
X91211237Y-65119381D01*
X91351038Y-65420661D01*
X91482714Y-65704813D01*
X91599013Y-65956158D01*
X91692683Y-66159017D01*
X91756473Y-66297712D01*
X91773834Y-66335753D01*
X91831394Y-66453586D01*
X91872429Y-66521020D01*
X91882877Y-66527814D01*
X91905476Y-66481996D01*
X91963376Y-66358590D01*
X92052058Y-66167393D01*
X92167002Y-65918203D01*
X92303691Y-65620816D01*
X92457606Y-65285030D01*
X92624226Y-64920641D01*
X92628051Y-64912266D01*
X92793734Y-64547231D01*
X92944806Y-64210020D01*
X93077006Y-63910482D01*
X93186074Y-63658466D01*
X93267746Y-63463821D01*
X93317764Y-63336397D01*
X93331864Y-63286042D01*
X93331716Y-63285851D01*
X93277773Y-63267253D01*
X93144181Y-63232815D01*
X92944041Y-63185319D01*
X92690456Y-63127549D01*
X92396528Y-63062288D01*
X92075358Y-62992320D01*
X91958570Y-62967280D01*
X93867418Y-62967280D01*
X93873963Y-62993328D01*
X93908223Y-63022022D01*
X93978890Y-63056187D01*
X94094654Y-63098648D01*
X94264204Y-63152231D01*
X94496230Y-63219762D01*
X94799423Y-63304067D01*
X95182473Y-63407970D01*
X95413323Y-63469940D01*
X95854653Y-63588001D01*
X96211938Y-63683063D01*
X96493865Y-63757091D01*
X96709119Y-63812052D01*
X96866383Y-63849911D01*
X96974344Y-63872633D01*
X97041685Y-63882185D01*
X97077093Y-63880532D01*
X97089251Y-63869640D01*
X97086845Y-63851474D01*
X97085850Y-63848492D01*
X97051854Y-63768172D01*
X96981955Y-63617403D01*
X96881228Y-63406367D01*
X96754748Y-63145243D01*
X96607590Y-62844214D01*
X96444829Y-62513459D01*
X96271541Y-62163161D01*
X96092800Y-61803500D01*
X95913681Y-61444656D01*
X95739260Y-61096811D01*
X95574612Y-60770146D01*
X95424812Y-60474842D01*
X95294934Y-60221080D01*
X95190055Y-60019040D01*
X95115249Y-59878904D01*
X95075591Y-59810852D01*
X95070739Y-59806057D01*
X95046455Y-59857580D01*
X94993444Y-59986448D01*
X94916518Y-60180024D01*
X94820486Y-60425669D01*
X94710161Y-60710745D01*
X94590352Y-61022613D01*
X94465870Y-61348635D01*
X94341527Y-61676174D01*
X94222132Y-61992590D01*
X94112496Y-62285247D01*
X94017431Y-62541504D01*
X93941747Y-62748725D01*
X93890255Y-62894271D01*
X93867765Y-62965503D01*
X93867418Y-62967280D01*
X91958570Y-62967280D01*
X91740050Y-62920428D01*
X91403705Y-62849395D01*
X91079425Y-62782003D01*
X90780314Y-62721038D01*
X90519471Y-62669281D01*
X90310001Y-62629515D01*
X90165005Y-62604525D01*
X90097586Y-62597094D01*
X90094426Y-62598170D01*
X89729064Y-62598170D01*
X89720372Y-62576158D01*
X89699537Y-62506982D01*
X89699524Y-62506309D01*
X89675897Y-62454556D01*
X89597833Y-62411618D01*
X89454551Y-62374580D01*
X89235274Y-62340529D01*
X88979101Y-62311555D01*
X88609487Y-62283589D01*
X88170982Y-62266042D01*
X87690141Y-62258742D01*
X87193518Y-62261516D01*
X86707666Y-62274192D01*
X86259140Y-62296596D01*
X85874495Y-62328556D01*
X85843405Y-62331953D01*
X85534474Y-62366991D01*
X85306864Y-62395877D01*
X85146468Y-62423206D01*
X85039178Y-62453570D01*
X84970889Y-62491564D01*
X84927493Y-62541782D01*
X84894883Y-62608817D01*
X84879968Y-62645696D01*
X84864166Y-62685756D01*
X84852038Y-62725239D01*
X84845057Y-62771681D01*
X84844697Y-62832614D01*
X84852429Y-62915572D01*
X84869728Y-63028090D01*
X84898066Y-63177702D01*
X84938917Y-63371941D01*
X84993752Y-63618340D01*
X85064046Y-63924435D01*
X85151270Y-64297759D01*
X85256899Y-64745845D01*
X85382404Y-65276228D01*
X85450439Y-65563521D01*
X85489052Y-65639288D01*
X85575826Y-65668794D01*
X85644190Y-65671555D01*
X85773932Y-65688986D01*
X85844820Y-65752240D01*
X85858214Y-65779589D01*
X85873511Y-65836046D01*
X85909055Y-65979046D01*
X85963258Y-66201850D01*
X86034533Y-66497722D01*
X86121291Y-66859924D01*
X86221945Y-67281720D01*
X86334908Y-67756372D01*
X86458591Y-68277144D01*
X86591406Y-68837298D01*
X86731766Y-69430097D01*
X86878083Y-70048804D01*
X87028769Y-70686682D01*
X87182237Y-71336994D01*
X87336898Y-71993003D01*
X87491164Y-72647971D01*
X87643449Y-73295162D01*
X87792164Y-73927839D01*
X87935722Y-74539264D01*
X88072533Y-75122700D01*
X88201012Y-75671410D01*
X88319570Y-76178658D01*
X88426619Y-76637706D01*
X88520571Y-77041816D01*
X88599839Y-77384253D01*
X88662835Y-77658278D01*
X88707971Y-77857155D01*
X88733659Y-77974146D01*
X88739221Y-78003848D01*
X88732877Y-78045908D01*
X88708622Y-78085327D01*
X88658618Y-78124576D01*
X88575029Y-78166125D01*
X88450021Y-78212446D01*
X88275755Y-78266010D01*
X88044396Y-78329288D01*
X87748107Y-78404750D01*
X87379053Y-78494869D01*
X86929397Y-78602114D01*
X86581749Y-78684164D01*
X86151932Y-78784921D01*
X85749280Y-78878487D01*
X85383774Y-78962602D01*
X85065396Y-79035008D01*
X84804127Y-79093444D01*
X84609947Y-79135651D01*
X84492837Y-79159370D01*
X84462959Y-79163804D01*
X84362239Y-79129311D01*
X84328392Y-79099689D01*
X84308639Y-79043130D01*
X84269078Y-78900851D01*
X84211640Y-78680673D01*
X84138256Y-78390411D01*
X84050856Y-78037887D01*
X83951371Y-77630917D01*
X83841730Y-77177320D01*
X83723863Y-76684915D01*
X83599702Y-76161521D01*
X83531168Y-75870672D01*
X83404533Y-75332170D01*
X83283783Y-74819038D01*
X83170803Y-74339271D01*
X83067480Y-73900863D01*
X82975701Y-73511809D01*
X82897352Y-73180104D01*
X82834319Y-72913741D01*
X82788490Y-72720716D01*
X82761750Y-72609022D01*
X82756014Y-72585732D01*
X82724873Y-72465695D01*
X82685589Y-72603905D01*
X82649894Y-72767469D01*
X82612661Y-73002149D01*
X82576575Y-73283124D01*
X82544323Y-73585572D01*
X82518590Y-73884673D01*
X82502062Y-74155604D01*
X82497255Y-74344582D01*
X82026865Y-74344582D01*
X82055944Y-73581522D01*
X82186613Y-72669647D01*
X82379306Y-71872075D01*
X82494650Y-71470516D01*
X81946174Y-69139585D01*
X81818773Y-68597272D01*
X81712447Y-68140755D01*
X81626105Y-67762393D01*
X81558657Y-67454544D01*
X81509012Y-67209566D01*
X81481074Y-67048590D01*
X81983755Y-67048590D01*
X81991718Y-67101628D01*
X82020464Y-67242400D01*
X82068685Y-67465186D01*
X82135071Y-67764264D01*
X82218313Y-68133915D01*
X82317101Y-68568418D01*
X82430127Y-69062052D01*
X82556080Y-69609097D01*
X82693653Y-70203833D01*
X82841535Y-70840539D01*
X82998418Y-71513494D01*
X83162992Y-72216979D01*
X83309680Y-72842033D01*
X83479929Y-73566670D01*
X83643962Y-74265290D01*
X83800448Y-74932206D01*
X83948057Y-75561733D01*
X84085461Y-76148186D01*
X84211330Y-76685880D01*
X84324334Y-77169128D01*
X84423143Y-77592246D01*
X84506428Y-77949548D01*
X84572860Y-78235349D01*
X84621108Y-78443962D01*
X84649843Y-78569704D01*
X84657936Y-78607247D01*
X84656386Y-78617088D01*
X84657529Y-78624532D01*
X84670055Y-78627713D01*
X84702652Y-78624769D01*
X84764011Y-78613835D01*
X84862819Y-78593046D01*
X85007766Y-78560539D01*
X85207542Y-78514448D01*
X85470836Y-78452911D01*
X85806336Y-78374062D01*
X86222733Y-78276038D01*
X86439324Y-78225055D01*
X86833300Y-78132133D01*
X87196696Y-78046034D01*
X87519187Y-77969232D01*
X87790447Y-77904205D01*
X88000150Y-77853428D01*
X88137971Y-77819378D01*
X88193584Y-77804530D01*
X88194213Y-77804213D01*
X88185346Y-77756674D01*
X88155885Y-77622576D01*
X88107448Y-77408785D01*
X88041657Y-77122167D01*
X87960129Y-76769588D01*
X87864485Y-76357914D01*
X87756343Y-75894012D01*
X87637324Y-75384747D01*
X87509046Y-74836987D01*
X87373129Y-74257597D01*
X87231193Y-73653443D01*
X87084856Y-73031391D01*
X86935739Y-72398309D01*
X86785461Y-71761061D01*
X86635640Y-71126515D01*
X86487897Y-70501536D01*
X86343851Y-69892991D01*
X86205121Y-69307746D01*
X86073327Y-68752666D01*
X85950088Y-68234619D01*
X85837024Y-67760471D01*
X85735754Y-67337087D01*
X85647897Y-66971334D01*
X85575072Y-66670078D01*
X85518900Y-66440185D01*
X85481000Y-66288522D01*
X85462991Y-66221954D01*
X85461918Y-66219456D01*
X85408315Y-66221627D01*
X85274336Y-66244504D01*
X85072656Y-66285066D01*
X84815952Y-66340289D01*
X84516899Y-66407153D01*
X84188174Y-66482635D01*
X83842452Y-66563715D01*
X83492410Y-66647370D01*
X83150723Y-66730578D01*
X82830069Y-66810318D01*
X82543122Y-66883569D01*
X82302559Y-66947307D01*
X82121056Y-66998512D01*
X82011289Y-67034161D01*
X81983755Y-67048590D01*
X81481074Y-67048590D01*
X81476081Y-67019819D01*
X81458772Y-66877661D01*
X81455996Y-66775451D01*
X81466662Y-66705547D01*
X81489680Y-66660307D01*
X81523959Y-66632092D01*
X81568409Y-66613259D01*
X81584917Y-66607866D01*
X81662813Y-66554110D01*
X81680998Y-66507638D01*
X81670154Y-66455080D01*
X81638268Y-66313196D01*
X81586308Y-66086133D01*
X81515244Y-65778038D01*
X81426045Y-65393060D01*
X81319680Y-64935344D01*
X81197117Y-64409038D01*
X81059326Y-63818290D01*
X80907275Y-63167248D01*
X80741934Y-62460057D01*
X80564272Y-61700867D01*
X80375257Y-60893823D01*
X80175859Y-60043074D01*
X79967046Y-59152767D01*
X79749787Y-58227049D01*
X79525052Y-57270067D01*
X79293810Y-56285969D01*
X79136197Y-55615550D01*
X78900921Y-54614262D01*
X78671518Y-53636544D01*
X78448959Y-52686595D01*
X78234216Y-51768611D01*
X78028262Y-50886792D01*
X77832068Y-50045333D01*
X77646605Y-49248433D01*
X77472846Y-48500290D01*
X77311762Y-47805100D01*
X77164326Y-47167061D01*
X77031508Y-46590372D01*
X76914281Y-46079228D01*
X76813617Y-45637829D01*
X76730487Y-45270371D01*
X76665863Y-44981052D01*
X76620717Y-44774070D01*
X76596379Y-44655366D01*
X77089121Y-44655366D01*
X77097572Y-44703818D01*
X77127084Y-44841642D01*
X77176702Y-45064741D01*
X77245468Y-45369015D01*
X77332428Y-45750365D01*
X77436624Y-46204692D01*
X77557100Y-46727898D01*
X77692900Y-47315882D01*
X77843068Y-47964546D01*
X78006647Y-48669792D01*
X78182682Y-49427520D01*
X78370215Y-50233631D01*
X78568291Y-51084026D01*
X78775954Y-51974606D01*
X78992247Y-52901272D01*
X79216214Y-53859926D01*
X79446898Y-54846468D01*
X79683344Y-55856799D01*
X79924595Y-56886820D01*
X80169695Y-57932432D01*
X80417687Y-58989537D01*
X80667616Y-60054035D01*
X80918525Y-61121827D01*
X81169458Y-62188815D01*
X81419458Y-63250898D01*
X81667570Y-64303979D01*
X81912837Y-65343959D01*
X82146041Y-66331763D01*
X82189891Y-66416065D01*
X82235149Y-66439797D01*
X82296747Y-66429090D01*
X82439295Y-66398847D01*
X82650350Y-66351878D01*
X82917468Y-66290997D01*
X83228208Y-66219015D01*
X83570125Y-66138746D01*
X83634386Y-66123547D01*
X83978051Y-66041695D01*
X84290271Y-65966410D01*
X84559115Y-65900643D01*
X84772652Y-65847346D01*
X84918950Y-65809470D01*
X84986079Y-65789964D01*
X84988958Y-65788523D01*
X84979291Y-65741506D01*
X84948838Y-65606006D01*
X84898770Y-65387025D01*
X84830259Y-65089567D01*
X84744474Y-64718634D01*
X84642587Y-64279229D01*
X84525770Y-63776356D01*
X84395194Y-63215017D01*
X84252029Y-62600215D01*
X84097447Y-61936953D01*
X83932618Y-61230234D01*
X83758715Y-60485061D01*
X83576907Y-59706437D01*
X83388367Y-58899364D01*
X83194264Y-58068847D01*
X82995771Y-57219886D01*
X82794059Y-56357487D01*
X82590298Y-55486651D01*
X82385659Y-54612381D01*
X82181314Y-53739681D01*
X81978434Y-52873553D01*
X81778190Y-52019000D01*
X81581753Y-51181025D01*
X81390293Y-50364631D01*
X81204983Y-49574822D01*
X81026994Y-48816599D01*
X80857495Y-48094966D01*
X80697659Y-47414926D01*
X80548657Y-46781481D01*
X80411659Y-46199635D01*
X80287837Y-45674391D01*
X80178362Y-45210751D01*
X80084405Y-44813719D01*
X80007137Y-44488297D01*
X79947729Y-44239488D01*
X79907352Y-44072296D01*
X79887178Y-43991722D01*
X79885118Y-43984931D01*
X79838359Y-43991780D01*
X79712360Y-44018338D01*
X79521103Y-44061255D01*
X79278566Y-44117177D01*
X78998731Y-44182753D01*
X78695578Y-44254630D01*
X78383087Y-44329455D01*
X78075238Y-44403877D01*
X77786013Y-44474543D01*
X77529391Y-44538101D01*
X77319353Y-44591199D01*
X77169878Y-44630484D01*
X77094948Y-44652604D01*
X77089121Y-44655366D01*
X76596379Y-44655366D01*
X76596021Y-44653622D01*
X76591395Y-44623710D01*
X76594323Y-44529036D01*
X76608983Y-44449263D01*
X76644195Y-44380470D01*
X76708775Y-44318739D01*
X76811542Y-44260151D01*
X76961313Y-44200787D01*
X77166906Y-44136728D01*
X77437139Y-44064055D01*
X77780829Y-43978848D01*
X78206793Y-43877189D01*
X78343947Y-43844785D01*
X78791733Y-43739698D01*
X79156047Y-43656505D01*
X79446715Y-43594362D01*
X79673565Y-43552421D01*
X79846423Y-43529839D01*
X79975116Y-43525769D01*
X80069471Y-43539366D01*
X80139315Y-43569784D01*
X80194474Y-43616178D01*
X80244777Y-43677702D01*
X80247240Y-43681024D01*
X80270695Y-43745092D01*
X80315523Y-43902759D01*
X80381719Y-44154003D01*
X80469278Y-44498803D01*
X80578193Y-44937137D01*
X80708461Y-45468983D01*
X80860075Y-46094320D01*
X81033031Y-46813126D01*
X81227323Y-47625380D01*
X81442947Y-48531059D01*
X81679896Y-49530143D01*
X81938166Y-50622610D01*
X82217752Y-51808438D01*
X82473715Y-52896421D01*
X82688846Y-53811457D01*
X82898157Y-54701345D01*
X83100590Y-55561591D01*
X83295082Y-56387699D01*
X83480572Y-57175177D01*
X83656000Y-57919528D01*
X83820303Y-58616259D01*
X83972422Y-59260876D01*
X84111295Y-59848884D01*
X84235861Y-60375788D01*
X84345058Y-60837094D01*
X84437827Y-61228309D01*
X84513104Y-61544936D01*
X84569830Y-61782483D01*
X84606944Y-61936453D01*
X84623383Y-62002354D01*
X84624104Y-62004579D01*
X84673422Y-62002457D01*
X84799630Y-61987883D01*
X84984730Y-61963158D01*
X85210724Y-61930585D01*
X85259415Y-61923306D01*
X86218924Y-61816010D01*
X87225460Y-61772643D01*
X88255227Y-61792279D01*
X89284430Y-61873993D01*
X90289274Y-62016861D01*
X90924512Y-62143519D01*
X91143226Y-62197236D01*
X91424891Y-62273267D01*
X91745694Y-62364507D01*
X92081821Y-62463847D01*
X92409460Y-62564184D01*
X92704797Y-62658410D01*
X92944019Y-62739419D01*
X93042415Y-62775525D01*
X93049727Y-62743577D01*
X93022820Y-62636689D01*
X92965782Y-62467978D01*
X92882703Y-62250564D01*
X92865164Y-62206936D01*
X92706552Y-61797053D01*
X92546743Y-61351183D01*
X92393534Y-60893535D01*
X92254722Y-60448315D01*
X92138104Y-60039731D01*
X92051477Y-59691991D01*
X92043651Y-59656353D01*
X91988904Y-59337248D01*
X91951463Y-58981702D01*
X91931540Y-58612015D01*
X91929347Y-58250485D01*
X91945095Y-57919410D01*
X91978997Y-57641087D01*
X92022816Y-57460969D01*
X92206601Y-57050753D01*
X92454279Y-56709491D01*
X92768852Y-56434620D01*
X93153318Y-56223579D01*
X93610678Y-56073805D01*
X93660771Y-56062045D01*
X93935710Y-56019980D01*
X94291573Y-55998062D01*
X94715481Y-55995883D01*
X95194556Y-56013034D01*
X95715918Y-56049103D01*
X96266688Y-56103683D01*
X96709732Y-56159020D01*
X97333291Y-56240592D01*
X97871743Y-56302595D01*
X98334078Y-56344617D01*
X98729287Y-56366251D01*
X99066362Y-56367086D01*
X99354294Y-56346713D01*
X99602073Y-56304722D01*
X99818692Y-56240705D01*
X100013141Y-56154252D01*
X100194412Y-56044953D01*
X100261801Y-55997278D01*
X100403930Y-55880727D01*
X100546486Y-55735987D01*
X100699044Y-55550877D01*
X100871176Y-55313217D01*
X101072455Y-55010825D01*
X101223931Y-54773023D01*
X101527270Y-54310707D01*
X101808228Y-53927071D01*
X102077252Y-53610550D01*
X102344792Y-53349580D01*
X102621294Y-53132594D01*
X102824472Y-53001459D01*
X103319290Y-52760118D01*
X103882895Y-52584396D01*
X104513892Y-52474366D01*
X105210887Y-52430103D01*
X105972483Y-52451679D01*
X106797286Y-52539168D01*
X107683901Y-52692644D01*
X107885251Y-52734870D01*
X108233361Y-52810052D01*
X108233361Y-53045002D01*
X108233361Y-53279952D01*
X108029297Y-53332414D01*
X107723372Y-53413603D01*
X107482241Y-53485009D01*
X107276764Y-53556812D01*
X107077803Y-53639196D01*
X106856257Y-53742324D01*
X106448842Y-53972588D01*
X106121825Y-54226608D01*
X105902604Y-54450542D01*
X105726584Y-54682373D01*
X105591365Y-54933242D01*
X105494548Y-55214289D01*
X105433732Y-55536655D01*
X105406517Y-55911482D01*
X105410503Y-56349910D01*
X105443289Y-56863079D01*
X105476744Y-57220893D01*
X105513250Y-57635484D01*
X105528277Y-57973041D01*
X105520554Y-58250412D01*
X105488805Y-58484442D01*
X105431758Y-58691979D01*
X105351019Y-58883968D01*
X105213769Y-59115719D01*
X105042699Y-59298220D01*
X104814577Y-59452637D01*
X104619525Y-59550340D01*
X104469990Y-59613844D01*
X104308868Y-59671093D01*
X104122321Y-59725434D01*
X103896510Y-59780218D01*
X103617596Y-59838795D01*
X103271739Y-59904513D01*
X102845101Y-59980722D01*
X102831660Y-59983074D01*
X102317517Y-60077674D01*
X101890443Y-60167418D01*
X101541803Y-60255369D01*
X101262964Y-60344590D01*
X101045290Y-60438142D01*
X100880147Y-60539087D01*
X100758900Y-60650487D01*
X100692157Y-60741788D01*
X100623909Y-60888015D01*
X100603824Y-61042247D01*
X100630968Y-61233602D01*
X100671526Y-61385072D01*
X100741202Y-61555551D01*
X100859504Y-61777722D01*
X101012833Y-62030135D01*
X101187589Y-62291340D01*
X101370170Y-62539890D01*
X101520983Y-62724752D01*
X101734594Y-62970955D01*
X102019044Y-62855043D01*
X102290984Y-62751767D01*
X102629915Y-62634539D01*
X103009380Y-62511540D01*
X103402925Y-62390954D01*
X103784095Y-62280961D01*
X104126436Y-62189746D01*
X104319526Y-62143519D01*
X105295425Y-61960990D01*
X106311311Y-61839007D01*
X107343391Y-61778495D01*
X108367866Y-61780380D01*
X109360943Y-61845585D01*
X109984623Y-61923306D01*
X110216634Y-61957190D01*
X110411341Y-61983714D01*
X110550752Y-62000571D01*
X110616877Y-62005452D01*
X110619728Y-62004784D01*
X110631771Y-61957548D01*
X110664707Y-61821319D01*
X110717476Y-61600591D01*
X110789017Y-61299860D01*
X110878268Y-60923618D01*
X110984169Y-60476360D01*
X111105659Y-59962580D01*
X111241675Y-59386773D01*
X111391159Y-58753433D01*
X111553047Y-58067053D01*
X111726280Y-57332129D01*
X111909795Y-56553153D01*
X112102533Y-55734621D01*
X112303432Y-54881027D01*
X112511431Y-53996865D01*
X112725469Y-53086628D01*
X112770135Y-52896626D01*
X113067770Y-51631821D01*
X113344137Y-50460169D01*
X113599226Y-49381708D01*
X113833029Y-48396472D01*
X114045537Y-47504499D01*
X114236741Y-46705825D01*
X114406633Y-46000485D01*
X114555203Y-45388517D01*
X114682444Y-44869955D01*
X114788345Y-44444838D01*
X114872899Y-44113200D01*
X114936097Y-43875078D01*
X114977930Y-43730509D01*
X114996816Y-43681024D01*
X115048364Y-43617681D01*
X115104781Y-43570128D01*
X115176172Y-43539162D01*
X115272641Y-43525578D01*
X115404296Y-43530173D01*
G37*
%TD*%
M02*
