%TF.GenerationSoftware,KiCad,Pcbnew,10.0.3*%
%TF.CreationDate,2026-06-09T21:24:23-04:00*%
%TF.ProjectId,nametag,6e616d65-7461-4672-9e6b-696361645f70,rev?*%
%TF.SameCoordinates,Original*%
%TF.FileFunction,Legend,Bot*%
%TF.FilePolarity,Positive*%
%FSLAX46Y46*%
G04 Gerber Fmt 4.6, Leading zero omitted, Abs format (unit mm)*
G04 Created by KiCad (PCBNEW 10.0.3) date 2026-06-09 21:24:23*
%MOMM*%
%LPD*%
G01*
G04 APERTURE LIST*
%ADD10C,0.200000*%
%ADD11C,0.150000*%
%ADD12C,0.300000*%
%ADD13C,0.500000*%
%ADD14C,0.120000*%
G04 APERTURE END LIST*
D10*
X49400000Y-74500000D02*
X58200000Y-74500000D01*
X58200000Y-79400000D01*
X49400000Y-79400000D01*
X49400000Y-74500000D01*
G36*
X49400000Y-74500000D02*
G01*
X58200000Y-74500000D01*
X58200000Y-79400000D01*
X49400000Y-79400000D01*
X49400000Y-74500000D01*
G37*
D11*
X114063220Y-93488866D02*
X113301316Y-93488866D01*
X111301315Y-93488866D02*
X110539411Y-93488866D01*
X110920363Y-93869819D02*
X110920363Y-93107914D01*
X107967982Y-93869819D02*
X108301315Y-93393628D01*
X108539410Y-93869819D02*
X108539410Y-92869819D01*
X108539410Y-92869819D02*
X108158458Y-92869819D01*
X108158458Y-92869819D02*
X108063220Y-92917438D01*
X108063220Y-92917438D02*
X108015601Y-92965057D01*
X108015601Y-92965057D02*
X107967982Y-93060295D01*
X107967982Y-93060295D02*
X107967982Y-93203152D01*
X107967982Y-93203152D02*
X108015601Y-93298390D01*
X108015601Y-93298390D02*
X108063220Y-93346009D01*
X108063220Y-93346009D02*
X108158458Y-93393628D01*
X108158458Y-93393628D02*
X108539410Y-93393628D01*
X106158457Y-92869819D02*
X105587029Y-92869819D01*
X105872743Y-93869819D02*
X105872743Y-92869819D01*
D12*
X66916917Y-78929400D02*
X66702632Y-79000828D01*
X66702632Y-79000828D02*
X66345489Y-79000828D01*
X66345489Y-79000828D02*
X66202632Y-78929400D01*
X66202632Y-78929400D02*
X66131203Y-78857971D01*
X66131203Y-78857971D02*
X66059774Y-78715114D01*
X66059774Y-78715114D02*
X66059774Y-78572257D01*
X66059774Y-78572257D02*
X66131203Y-78429400D01*
X66131203Y-78429400D02*
X66202632Y-78357971D01*
X66202632Y-78357971D02*
X66345489Y-78286542D01*
X66345489Y-78286542D02*
X66631203Y-78215114D01*
X66631203Y-78215114D02*
X66774060Y-78143685D01*
X66774060Y-78143685D02*
X66845489Y-78072257D01*
X66845489Y-78072257D02*
X66916917Y-77929400D01*
X66916917Y-77929400D02*
X66916917Y-77786542D01*
X66916917Y-77786542D02*
X66845489Y-77643685D01*
X66845489Y-77643685D02*
X66774060Y-77572257D01*
X66774060Y-77572257D02*
X66631203Y-77500828D01*
X66631203Y-77500828D02*
X66274060Y-77500828D01*
X66274060Y-77500828D02*
X66059774Y-77572257D01*
X64845489Y-78929400D02*
X64988346Y-79000828D01*
X64988346Y-79000828D02*
X65274061Y-79000828D01*
X65274061Y-79000828D02*
X65416918Y-78929400D01*
X65416918Y-78929400D02*
X65488346Y-78786542D01*
X65488346Y-78786542D02*
X65488346Y-78215114D01*
X65488346Y-78215114D02*
X65416918Y-78072257D01*
X65416918Y-78072257D02*
X65274061Y-78000828D01*
X65274061Y-78000828D02*
X64988346Y-78000828D01*
X64988346Y-78000828D02*
X64845489Y-78072257D01*
X64845489Y-78072257D02*
X64774061Y-78215114D01*
X64774061Y-78215114D02*
X64774061Y-78357971D01*
X64774061Y-78357971D02*
X65488346Y-78500828D01*
X64131204Y-79000828D02*
X64131204Y-78000828D01*
X64131204Y-78286542D02*
X64059775Y-78143685D01*
X64059775Y-78143685D02*
X63988347Y-78072257D01*
X63988347Y-78072257D02*
X63845489Y-78000828D01*
X63845489Y-78000828D02*
X63702632Y-78000828D01*
X63202633Y-79000828D02*
X63202633Y-78000828D01*
X63202633Y-77500828D02*
X63274061Y-77572257D01*
X63274061Y-77572257D02*
X63202633Y-77643685D01*
X63202633Y-77643685D02*
X63131204Y-77572257D01*
X63131204Y-77572257D02*
X63202633Y-77500828D01*
X63202633Y-77500828D02*
X63202633Y-77643685D01*
X61845490Y-79000828D02*
X61845490Y-78215114D01*
X61845490Y-78215114D02*
X61916918Y-78072257D01*
X61916918Y-78072257D02*
X62059775Y-78000828D01*
X62059775Y-78000828D02*
X62345490Y-78000828D01*
X62345490Y-78000828D02*
X62488347Y-78072257D01*
X61845490Y-78929400D02*
X61988347Y-79000828D01*
X61988347Y-79000828D02*
X62345490Y-79000828D01*
X62345490Y-79000828D02*
X62488347Y-78929400D01*
X62488347Y-78929400D02*
X62559775Y-78786542D01*
X62559775Y-78786542D02*
X62559775Y-78643685D01*
X62559775Y-78643685D02*
X62488347Y-78500828D01*
X62488347Y-78500828D02*
X62345490Y-78429400D01*
X62345490Y-78429400D02*
X61988347Y-78429400D01*
X61988347Y-78429400D02*
X61845490Y-78357971D01*
X60916918Y-79000828D02*
X61059775Y-78929400D01*
X61059775Y-78929400D02*
X61131204Y-78786542D01*
X61131204Y-78786542D02*
X61131204Y-77500828D01*
X60345490Y-78857971D02*
X60274061Y-78929400D01*
X60274061Y-78929400D02*
X60345490Y-79000828D01*
X60345490Y-79000828D02*
X60416918Y-78929400D01*
X60416918Y-78929400D02*
X60345490Y-78857971D01*
X60345490Y-78857971D02*
X60345490Y-79000828D01*
X60345490Y-78072257D02*
X60274061Y-78143685D01*
X60274061Y-78143685D02*
X60345490Y-78215114D01*
X60345490Y-78215114D02*
X60416918Y-78143685D01*
X60416918Y-78143685D02*
X60345490Y-78072257D01*
X60345490Y-78072257D02*
X60345490Y-78215114D01*
X98916917Y-76157341D02*
X98202632Y-76157341D01*
X99059774Y-76585912D02*
X98559774Y-75085912D01*
X98559774Y-75085912D02*
X98059774Y-76585912D01*
X97559775Y-76585912D02*
X97559775Y-75585912D01*
X97559775Y-75085912D02*
X97631203Y-75157341D01*
X97631203Y-75157341D02*
X97559775Y-75228769D01*
X97559775Y-75228769D02*
X97488346Y-75157341D01*
X97488346Y-75157341D02*
X97559775Y-75085912D01*
X97559775Y-75085912D02*
X97559775Y-75228769D01*
X96845489Y-76585912D02*
X96845489Y-75085912D01*
X96845489Y-75657341D02*
X96702632Y-75585912D01*
X96702632Y-75585912D02*
X96416917Y-75585912D01*
X96416917Y-75585912D02*
X96274060Y-75657341D01*
X96274060Y-75657341D02*
X96202632Y-75728769D01*
X96202632Y-75728769D02*
X96131203Y-75871626D01*
X96131203Y-75871626D02*
X96131203Y-76300198D01*
X96131203Y-76300198D02*
X96202632Y-76443055D01*
X96202632Y-76443055D02*
X96274060Y-76514484D01*
X96274060Y-76514484D02*
X96416917Y-76585912D01*
X96416917Y-76585912D02*
X96702632Y-76585912D01*
X96702632Y-76585912D02*
X96845489Y-76514484D01*
X95274060Y-76585912D02*
X95416917Y-76514484D01*
X95416917Y-76514484D02*
X95488346Y-76443055D01*
X95488346Y-76443055D02*
X95559774Y-76300198D01*
X95559774Y-76300198D02*
X95559774Y-75871626D01*
X95559774Y-75871626D02*
X95488346Y-75728769D01*
X95488346Y-75728769D02*
X95416917Y-75657341D01*
X95416917Y-75657341D02*
X95274060Y-75585912D01*
X95274060Y-75585912D02*
X95059774Y-75585912D01*
X95059774Y-75585912D02*
X94916917Y-75657341D01*
X94916917Y-75657341D02*
X94845489Y-75728769D01*
X94845489Y-75728769D02*
X94774060Y-75871626D01*
X94774060Y-75871626D02*
X94774060Y-76300198D01*
X94774060Y-76300198D02*
X94845489Y-76443055D01*
X94845489Y-76443055D02*
X94916917Y-76514484D01*
X94916917Y-76514484D02*
X95059774Y-76585912D01*
X95059774Y-76585912D02*
X95274060Y-76585912D01*
X93916917Y-76585912D02*
X94059774Y-76514484D01*
X94059774Y-76514484D02*
X94131203Y-76443055D01*
X94131203Y-76443055D02*
X94202631Y-76300198D01*
X94202631Y-76300198D02*
X94202631Y-75871626D01*
X94202631Y-75871626D02*
X94131203Y-75728769D01*
X94131203Y-75728769D02*
X94059774Y-75657341D01*
X94059774Y-75657341D02*
X93916917Y-75585912D01*
X93916917Y-75585912D02*
X93702631Y-75585912D01*
X93702631Y-75585912D02*
X93559774Y-75657341D01*
X93559774Y-75657341D02*
X93488346Y-75728769D01*
X93488346Y-75728769D02*
X93416917Y-75871626D01*
X93416917Y-75871626D02*
X93416917Y-76300198D01*
X93416917Y-76300198D02*
X93488346Y-76443055D01*
X93488346Y-76443055D02*
X93559774Y-76514484D01*
X93559774Y-76514484D02*
X93702631Y-76585912D01*
X93702631Y-76585912D02*
X93916917Y-76585912D01*
X91631203Y-76585912D02*
X91631203Y-75085912D01*
X91631203Y-75085912D02*
X90774060Y-76585912D01*
X90774060Y-76585912D02*
X90774060Y-75085912D01*
X89416917Y-76585912D02*
X89416917Y-75800198D01*
X89416917Y-75800198D02*
X89488345Y-75657341D01*
X89488345Y-75657341D02*
X89631202Y-75585912D01*
X89631202Y-75585912D02*
X89916917Y-75585912D01*
X89916917Y-75585912D02*
X90059774Y-75657341D01*
X89416917Y-76514484D02*
X89559774Y-76585912D01*
X89559774Y-76585912D02*
X89916917Y-76585912D01*
X89916917Y-76585912D02*
X90059774Y-76514484D01*
X90059774Y-76514484D02*
X90131202Y-76371626D01*
X90131202Y-76371626D02*
X90131202Y-76228769D01*
X90131202Y-76228769D02*
X90059774Y-76085912D01*
X90059774Y-76085912D02*
X89916917Y-76014484D01*
X89916917Y-76014484D02*
X89559774Y-76014484D01*
X89559774Y-76014484D02*
X89416917Y-75943055D01*
X88702631Y-76585912D02*
X88702631Y-75585912D01*
X88702631Y-75728769D02*
X88631202Y-75657341D01*
X88631202Y-75657341D02*
X88488345Y-75585912D01*
X88488345Y-75585912D02*
X88274059Y-75585912D01*
X88274059Y-75585912D02*
X88131202Y-75657341D01*
X88131202Y-75657341D02*
X88059774Y-75800198D01*
X88059774Y-75800198D02*
X88059774Y-76585912D01*
X88059774Y-75800198D02*
X87988345Y-75657341D01*
X87988345Y-75657341D02*
X87845488Y-75585912D01*
X87845488Y-75585912D02*
X87631202Y-75585912D01*
X87631202Y-75585912D02*
X87488345Y-75657341D01*
X87488345Y-75657341D02*
X87416916Y-75800198D01*
X87416916Y-75800198D02*
X87416916Y-76585912D01*
X86131202Y-76514484D02*
X86274059Y-76585912D01*
X86274059Y-76585912D02*
X86559774Y-76585912D01*
X86559774Y-76585912D02*
X86702631Y-76514484D01*
X86702631Y-76514484D02*
X86774059Y-76371626D01*
X86774059Y-76371626D02*
X86774059Y-75800198D01*
X86774059Y-75800198D02*
X86702631Y-75657341D01*
X86702631Y-75657341D02*
X86559774Y-75585912D01*
X86559774Y-75585912D02*
X86274059Y-75585912D01*
X86274059Y-75585912D02*
X86131202Y-75657341D01*
X86131202Y-75657341D02*
X86059774Y-75800198D01*
X86059774Y-75800198D02*
X86059774Y-75943055D01*
X86059774Y-75943055D02*
X86774059Y-76085912D01*
X85631202Y-75585912D02*
X85059774Y-75585912D01*
X85416917Y-75085912D02*
X85416917Y-76371626D01*
X85416917Y-76371626D02*
X85345488Y-76514484D01*
X85345488Y-76514484D02*
X85202631Y-76585912D01*
X85202631Y-76585912D02*
X85059774Y-76585912D01*
X83916917Y-76585912D02*
X83916917Y-75800198D01*
X83916917Y-75800198D02*
X83988345Y-75657341D01*
X83988345Y-75657341D02*
X84131202Y-75585912D01*
X84131202Y-75585912D02*
X84416917Y-75585912D01*
X84416917Y-75585912D02*
X84559774Y-75657341D01*
X83916917Y-76514484D02*
X84059774Y-76585912D01*
X84059774Y-76585912D02*
X84416917Y-76585912D01*
X84416917Y-76585912D02*
X84559774Y-76514484D01*
X84559774Y-76514484D02*
X84631202Y-76371626D01*
X84631202Y-76371626D02*
X84631202Y-76228769D01*
X84631202Y-76228769D02*
X84559774Y-76085912D01*
X84559774Y-76085912D02*
X84416917Y-76014484D01*
X84416917Y-76014484D02*
X84059774Y-76014484D01*
X84059774Y-76014484D02*
X83916917Y-75943055D01*
X82559774Y-75585912D02*
X82559774Y-76800198D01*
X82559774Y-76800198D02*
X82631202Y-76943055D01*
X82631202Y-76943055D02*
X82702631Y-77014484D01*
X82702631Y-77014484D02*
X82845488Y-77085912D01*
X82845488Y-77085912D02*
X83059774Y-77085912D01*
X83059774Y-77085912D02*
X83202631Y-77014484D01*
X82559774Y-76514484D02*
X82702631Y-76585912D01*
X82702631Y-76585912D02*
X82988345Y-76585912D01*
X82988345Y-76585912D02*
X83131202Y-76514484D01*
X83131202Y-76514484D02*
X83202631Y-76443055D01*
X83202631Y-76443055D02*
X83274059Y-76300198D01*
X83274059Y-76300198D02*
X83274059Y-75871626D01*
X83274059Y-75871626D02*
X83202631Y-75728769D01*
X83202631Y-75728769D02*
X83131202Y-75657341D01*
X83131202Y-75657341D02*
X82988345Y-75585912D01*
X82988345Y-75585912D02*
X82702631Y-75585912D01*
X82702631Y-75585912D02*
X82559774Y-75657341D01*
X80702631Y-76585912D02*
X80702631Y-75085912D01*
X80702631Y-75085912D02*
X80131202Y-75085912D01*
X80131202Y-75085912D02*
X79988345Y-75157341D01*
X79988345Y-75157341D02*
X79916916Y-75228769D01*
X79916916Y-75228769D02*
X79845488Y-75371626D01*
X79845488Y-75371626D02*
X79845488Y-75585912D01*
X79845488Y-75585912D02*
X79916916Y-75728769D01*
X79916916Y-75728769D02*
X79988345Y-75800198D01*
X79988345Y-75800198D02*
X80131202Y-75871626D01*
X80131202Y-75871626D02*
X80702631Y-75871626D01*
X78345488Y-76443055D02*
X78416916Y-76514484D01*
X78416916Y-76514484D02*
X78631202Y-76585912D01*
X78631202Y-76585912D02*
X78774059Y-76585912D01*
X78774059Y-76585912D02*
X78988345Y-76514484D01*
X78988345Y-76514484D02*
X79131202Y-76371626D01*
X79131202Y-76371626D02*
X79202631Y-76228769D01*
X79202631Y-76228769D02*
X79274059Y-75943055D01*
X79274059Y-75943055D02*
X79274059Y-75728769D01*
X79274059Y-75728769D02*
X79202631Y-75443055D01*
X79202631Y-75443055D02*
X79131202Y-75300198D01*
X79131202Y-75300198D02*
X78988345Y-75157341D01*
X78988345Y-75157341D02*
X78774059Y-75085912D01*
X78774059Y-75085912D02*
X78631202Y-75085912D01*
X78631202Y-75085912D02*
X78416916Y-75157341D01*
X78416916Y-75157341D02*
X78345488Y-75228769D01*
X77202631Y-75800198D02*
X76988345Y-75871626D01*
X76988345Y-75871626D02*
X76916916Y-75943055D01*
X76916916Y-75943055D02*
X76845488Y-76085912D01*
X76845488Y-76085912D02*
X76845488Y-76300198D01*
X76845488Y-76300198D02*
X76916916Y-76443055D01*
X76916916Y-76443055D02*
X76988345Y-76514484D01*
X76988345Y-76514484D02*
X77131202Y-76585912D01*
X77131202Y-76585912D02*
X77702631Y-76585912D01*
X77702631Y-76585912D02*
X77702631Y-75085912D01*
X77702631Y-75085912D02*
X77202631Y-75085912D01*
X77202631Y-75085912D02*
X77059774Y-75157341D01*
X77059774Y-75157341D02*
X76988345Y-75228769D01*
X76988345Y-75228769D02*
X76916916Y-75371626D01*
X76916916Y-75371626D02*
X76916916Y-75514484D01*
X76916916Y-75514484D02*
X76988345Y-75657341D01*
X76988345Y-75657341D02*
X77059774Y-75728769D01*
X77059774Y-75728769D02*
X77202631Y-75800198D01*
X77202631Y-75800198D02*
X77702631Y-75800198D01*
X75202631Y-75585912D02*
X74845488Y-76585912D01*
X74845488Y-76585912D02*
X74488345Y-75585912D01*
X73988345Y-75228769D02*
X73916917Y-75157341D01*
X73916917Y-75157341D02*
X73774060Y-75085912D01*
X73774060Y-75085912D02*
X73416917Y-75085912D01*
X73416917Y-75085912D02*
X73274060Y-75157341D01*
X73274060Y-75157341D02*
X73202631Y-75228769D01*
X73202631Y-75228769D02*
X73131202Y-75371626D01*
X73131202Y-75371626D02*
X73131202Y-75514484D01*
X73131202Y-75514484D02*
X73202631Y-75728769D01*
X73202631Y-75728769D02*
X74059774Y-76585912D01*
X74059774Y-76585912D02*
X73131202Y-76585912D01*
X72488346Y-76443055D02*
X72416917Y-76514484D01*
X72416917Y-76514484D02*
X72488346Y-76585912D01*
X72488346Y-76585912D02*
X72559774Y-76514484D01*
X72559774Y-76514484D02*
X72488346Y-76443055D01*
X72488346Y-76443055D02*
X72488346Y-76585912D01*
X71488345Y-75085912D02*
X71345488Y-75085912D01*
X71345488Y-75085912D02*
X71202631Y-75157341D01*
X71202631Y-75157341D02*
X71131203Y-75228769D01*
X71131203Y-75228769D02*
X71059774Y-75371626D01*
X71059774Y-75371626D02*
X70988345Y-75657341D01*
X70988345Y-75657341D02*
X70988345Y-76014484D01*
X70988345Y-76014484D02*
X71059774Y-76300198D01*
X71059774Y-76300198D02*
X71131203Y-76443055D01*
X71131203Y-76443055D02*
X71202631Y-76514484D01*
X71202631Y-76514484D02*
X71345488Y-76585912D01*
X71345488Y-76585912D02*
X71488345Y-76585912D01*
X71488345Y-76585912D02*
X71631203Y-76514484D01*
X71631203Y-76514484D02*
X71702631Y-76443055D01*
X71702631Y-76443055D02*
X71774060Y-76300198D01*
X71774060Y-76300198D02*
X71845488Y-76014484D01*
X71845488Y-76014484D02*
X71845488Y-75657341D01*
X71845488Y-75657341D02*
X71774060Y-75371626D01*
X71774060Y-75371626D02*
X71702631Y-75228769D01*
X71702631Y-75228769D02*
X71631203Y-75157341D01*
X71631203Y-75157341D02*
X71488345Y-75085912D01*
X97631203Y-77857971D02*
X97774060Y-77786542D01*
X97774060Y-77786542D02*
X98059774Y-77786542D01*
X98059774Y-77786542D02*
X98202632Y-77857971D01*
X98202632Y-77857971D02*
X98345489Y-78000828D01*
X98345489Y-78000828D02*
X98416917Y-78143685D01*
X98416917Y-78143685D02*
X98416917Y-78429400D01*
X98416917Y-78429400D02*
X98345489Y-78572257D01*
X98345489Y-78572257D02*
X98202632Y-78715114D01*
X98202632Y-78715114D02*
X98059774Y-78786542D01*
X98059774Y-78786542D02*
X97774060Y-78786542D01*
X97774060Y-78786542D02*
X97631203Y-78715114D01*
X97916917Y-77286542D02*
X98274060Y-77357971D01*
X98274060Y-77357971D02*
X98631203Y-77572257D01*
X98631203Y-77572257D02*
X98845489Y-77929400D01*
X98845489Y-77929400D02*
X98916917Y-78286542D01*
X98916917Y-78286542D02*
X98845489Y-78643685D01*
X98845489Y-78643685D02*
X98631203Y-79000828D01*
X98631203Y-79000828D02*
X98274060Y-79215114D01*
X98274060Y-79215114D02*
X97916917Y-79286542D01*
X97916917Y-79286542D02*
X97559774Y-79215114D01*
X97559774Y-79215114D02*
X97202632Y-79000828D01*
X97202632Y-79000828D02*
X96988346Y-78643685D01*
X96988346Y-78643685D02*
X96916917Y-78286542D01*
X96916917Y-78286542D02*
X96988346Y-77929400D01*
X96988346Y-77929400D02*
X97202632Y-77572257D01*
X97202632Y-77572257D02*
X97559774Y-77357971D01*
X97559774Y-77357971D02*
X97916917Y-77286542D01*
X96416917Y-79000828D02*
X95631203Y-78000828D01*
X96416917Y-78000828D02*
X95631203Y-79000828D01*
X94416917Y-78929400D02*
X94559774Y-79000828D01*
X94559774Y-79000828D02*
X94845488Y-79000828D01*
X94845488Y-79000828D02*
X94988345Y-78929400D01*
X94988345Y-78929400D02*
X95059774Y-78857971D01*
X95059774Y-78857971D02*
X95131202Y-78715114D01*
X95131202Y-78715114D02*
X95131202Y-78286542D01*
X95131202Y-78286542D02*
X95059774Y-78143685D01*
X95059774Y-78143685D02*
X94988345Y-78072257D01*
X94988345Y-78072257D02*
X94845488Y-78000828D01*
X94845488Y-78000828D02*
X94559774Y-78000828D01*
X94559774Y-78000828D02*
X94416917Y-78072257D01*
X93774060Y-79000828D02*
X93774060Y-77500828D01*
X93131203Y-79000828D02*
X93131203Y-78215114D01*
X93131203Y-78215114D02*
X93202631Y-78072257D01*
X93202631Y-78072257D02*
X93345488Y-78000828D01*
X93345488Y-78000828D02*
X93559774Y-78000828D01*
X93559774Y-78000828D02*
X93702631Y-78072257D01*
X93702631Y-78072257D02*
X93774060Y-78143685D01*
X91774060Y-78000828D02*
X91774060Y-79215114D01*
X91774060Y-79215114D02*
X91845488Y-79357971D01*
X91845488Y-79357971D02*
X91916917Y-79429400D01*
X91916917Y-79429400D02*
X92059774Y-79500828D01*
X92059774Y-79500828D02*
X92274060Y-79500828D01*
X92274060Y-79500828D02*
X92416917Y-79429400D01*
X91774060Y-78929400D02*
X91916917Y-79000828D01*
X91916917Y-79000828D02*
X92202631Y-79000828D01*
X92202631Y-79000828D02*
X92345488Y-78929400D01*
X92345488Y-78929400D02*
X92416917Y-78857971D01*
X92416917Y-78857971D02*
X92488345Y-78715114D01*
X92488345Y-78715114D02*
X92488345Y-78286542D01*
X92488345Y-78286542D02*
X92416917Y-78143685D01*
X92416917Y-78143685D02*
X92345488Y-78072257D01*
X92345488Y-78072257D02*
X92202631Y-78000828D01*
X92202631Y-78000828D02*
X91916917Y-78000828D01*
X91916917Y-78000828D02*
X91774060Y-78072257D01*
X90488345Y-78929400D02*
X90631202Y-79000828D01*
X90631202Y-79000828D02*
X90916917Y-79000828D01*
X90916917Y-79000828D02*
X91059774Y-78929400D01*
X91059774Y-78929400D02*
X91131202Y-78786542D01*
X91131202Y-78786542D02*
X91131202Y-78215114D01*
X91131202Y-78215114D02*
X91059774Y-78072257D01*
X91059774Y-78072257D02*
X90916917Y-78000828D01*
X90916917Y-78000828D02*
X90631202Y-78000828D01*
X90631202Y-78000828D02*
X90488345Y-78072257D01*
X90488345Y-78072257D02*
X90416917Y-78215114D01*
X90416917Y-78215114D02*
X90416917Y-78357971D01*
X90416917Y-78357971D02*
X91131202Y-78500828D01*
X89131203Y-79000828D02*
X89131203Y-78215114D01*
X89131203Y-78215114D02*
X89202631Y-78072257D01*
X89202631Y-78072257D02*
X89345488Y-78000828D01*
X89345488Y-78000828D02*
X89631203Y-78000828D01*
X89631203Y-78000828D02*
X89774060Y-78072257D01*
X89131203Y-78929400D02*
X89274060Y-79000828D01*
X89274060Y-79000828D02*
X89631203Y-79000828D01*
X89631203Y-79000828D02*
X89774060Y-78929400D01*
X89774060Y-78929400D02*
X89845488Y-78786542D01*
X89845488Y-78786542D02*
X89845488Y-78643685D01*
X89845488Y-78643685D02*
X89774060Y-78500828D01*
X89774060Y-78500828D02*
X89631203Y-78429400D01*
X89631203Y-78429400D02*
X89274060Y-78429400D01*
X89274060Y-78429400D02*
X89131203Y-78357971D01*
X88559774Y-79000828D02*
X87774060Y-78000828D01*
X88559774Y-78000828D02*
X87774060Y-79000828D01*
X86631202Y-78929400D02*
X86774059Y-79000828D01*
X86774059Y-79000828D02*
X87059774Y-79000828D01*
X87059774Y-79000828D02*
X87202631Y-78929400D01*
X87202631Y-78929400D02*
X87274059Y-78786542D01*
X87274059Y-78786542D02*
X87274059Y-78215114D01*
X87274059Y-78215114D02*
X87202631Y-78072257D01*
X87202631Y-78072257D02*
X87059774Y-78000828D01*
X87059774Y-78000828D02*
X86774059Y-78000828D01*
X86774059Y-78000828D02*
X86631202Y-78072257D01*
X86631202Y-78072257D02*
X86559774Y-78215114D01*
X86559774Y-78215114D02*
X86559774Y-78357971D01*
X86559774Y-78357971D02*
X87274059Y-78500828D01*
X85274060Y-79000828D02*
X85274060Y-78215114D01*
X85274060Y-78215114D02*
X85345488Y-78072257D01*
X85345488Y-78072257D02*
X85488345Y-78000828D01*
X85488345Y-78000828D02*
X85774060Y-78000828D01*
X85774060Y-78000828D02*
X85916917Y-78072257D01*
X85274060Y-78929400D02*
X85416917Y-79000828D01*
X85416917Y-79000828D02*
X85774060Y-79000828D01*
X85774060Y-79000828D02*
X85916917Y-78929400D01*
X85916917Y-78929400D02*
X85988345Y-78786542D01*
X85988345Y-78786542D02*
X85988345Y-78643685D01*
X85988345Y-78643685D02*
X85916917Y-78500828D01*
X85916917Y-78500828D02*
X85774060Y-78429400D01*
X85774060Y-78429400D02*
X85416917Y-78429400D01*
X85416917Y-78429400D02*
X85274060Y-78357971D01*
X84702631Y-79000828D02*
X83916917Y-78000828D01*
X84702631Y-78000828D02*
X83916917Y-79000828D01*
X82274059Y-77643685D02*
X82202631Y-77572257D01*
X82202631Y-77572257D02*
X82059774Y-77500828D01*
X82059774Y-77500828D02*
X81702631Y-77500828D01*
X81702631Y-77500828D02*
X81559774Y-77572257D01*
X81559774Y-77572257D02*
X81488345Y-77643685D01*
X81488345Y-77643685D02*
X81416916Y-77786542D01*
X81416916Y-77786542D02*
X81416916Y-77929400D01*
X81416916Y-77929400D02*
X81488345Y-78143685D01*
X81488345Y-78143685D02*
X82345488Y-79000828D01*
X82345488Y-79000828D02*
X81416916Y-79000828D01*
X80488345Y-77500828D02*
X80345488Y-77500828D01*
X80345488Y-77500828D02*
X80202631Y-77572257D01*
X80202631Y-77572257D02*
X80131203Y-77643685D01*
X80131203Y-77643685D02*
X80059774Y-77786542D01*
X80059774Y-77786542D02*
X79988345Y-78072257D01*
X79988345Y-78072257D02*
X79988345Y-78429400D01*
X79988345Y-78429400D02*
X80059774Y-78715114D01*
X80059774Y-78715114D02*
X80131203Y-78857971D01*
X80131203Y-78857971D02*
X80202631Y-78929400D01*
X80202631Y-78929400D02*
X80345488Y-79000828D01*
X80345488Y-79000828D02*
X80488345Y-79000828D01*
X80488345Y-79000828D02*
X80631203Y-78929400D01*
X80631203Y-78929400D02*
X80702631Y-78857971D01*
X80702631Y-78857971D02*
X80774060Y-78715114D01*
X80774060Y-78715114D02*
X80845488Y-78429400D01*
X80845488Y-78429400D02*
X80845488Y-78072257D01*
X80845488Y-78072257D02*
X80774060Y-77786542D01*
X80774060Y-77786542D02*
X80702631Y-77643685D01*
X80702631Y-77643685D02*
X80631203Y-77572257D01*
X80631203Y-77572257D02*
X80488345Y-77500828D01*
X79416917Y-77643685D02*
X79345489Y-77572257D01*
X79345489Y-77572257D02*
X79202632Y-77500828D01*
X79202632Y-77500828D02*
X78845489Y-77500828D01*
X78845489Y-77500828D02*
X78702632Y-77572257D01*
X78702632Y-77572257D02*
X78631203Y-77643685D01*
X78631203Y-77643685D02*
X78559774Y-77786542D01*
X78559774Y-77786542D02*
X78559774Y-77929400D01*
X78559774Y-77929400D02*
X78631203Y-78143685D01*
X78631203Y-78143685D02*
X79488346Y-79000828D01*
X79488346Y-79000828D02*
X78559774Y-79000828D01*
X77274061Y-77500828D02*
X77559775Y-77500828D01*
X77559775Y-77500828D02*
X77702632Y-77572257D01*
X77702632Y-77572257D02*
X77774061Y-77643685D01*
X77774061Y-77643685D02*
X77916918Y-77857971D01*
X77916918Y-77857971D02*
X77988346Y-78143685D01*
X77988346Y-78143685D02*
X77988346Y-78715114D01*
X77988346Y-78715114D02*
X77916918Y-78857971D01*
X77916918Y-78857971D02*
X77845489Y-78929400D01*
X77845489Y-78929400D02*
X77702632Y-79000828D01*
X77702632Y-79000828D02*
X77416918Y-79000828D01*
X77416918Y-79000828D02*
X77274061Y-78929400D01*
X77274061Y-78929400D02*
X77202632Y-78857971D01*
X77202632Y-78857971D02*
X77131203Y-78715114D01*
X77131203Y-78715114D02*
X77131203Y-78357971D01*
X77131203Y-78357971D02*
X77202632Y-78215114D01*
X77202632Y-78215114D02*
X77274061Y-78143685D01*
X77274061Y-78143685D02*
X77416918Y-78072257D01*
X77416918Y-78072257D02*
X77702632Y-78072257D01*
X77702632Y-78072257D02*
X77845489Y-78143685D01*
X77845489Y-78143685D02*
X77916918Y-78215114D01*
X77916918Y-78215114D02*
X77988346Y-78357971D01*
D13*
X47918672Y-86860666D02*
X44871053Y-86860666D01*
X46394862Y-88384476D02*
X46394862Y-85336857D01*
D11*
X48470951Y-87073866D02*
X47709047Y-87073866D01*
X48089999Y-87454819D02*
X48089999Y-86692914D01*
X100540951Y-87073866D02*
X99779047Y-87073866D01*
X53161904Y-84402819D02*
X52590476Y-84402819D01*
X52876190Y-85402819D02*
X52876190Y-84402819D01*
X52257142Y-85402819D02*
X52257142Y-84402819D01*
X52257142Y-84402819D02*
X51876190Y-84402819D01*
X51876190Y-84402819D02*
X51780952Y-84450438D01*
X51780952Y-84450438D02*
X51733333Y-84498057D01*
X51733333Y-84498057D02*
X51685714Y-84593295D01*
X51685714Y-84593295D02*
X51685714Y-84736152D01*
X51685714Y-84736152D02*
X51733333Y-84831390D01*
X51733333Y-84831390D02*
X51780952Y-84879009D01*
X51780952Y-84879009D02*
X51876190Y-84926628D01*
X51876190Y-84926628D02*
X52257142Y-84926628D01*
X50733333Y-85402819D02*
X51304761Y-85402819D01*
X51019047Y-85402819D02*
X51019047Y-84402819D01*
X51019047Y-84402819D02*
X51114285Y-84545676D01*
X51114285Y-84545676D02*
X51209523Y-84640914D01*
X51209523Y-84640914D02*
X51304761Y-84688533D01*
X107161904Y-85554819D02*
X106590476Y-85554819D01*
X106876190Y-86554819D02*
X106876190Y-85554819D01*
X106257142Y-86554819D02*
X106257142Y-85554819D01*
X106257142Y-85554819D02*
X105876190Y-85554819D01*
X105876190Y-85554819D02*
X105780952Y-85602438D01*
X105780952Y-85602438D02*
X105733333Y-85650057D01*
X105733333Y-85650057D02*
X105685714Y-85745295D01*
X105685714Y-85745295D02*
X105685714Y-85888152D01*
X105685714Y-85888152D02*
X105733333Y-85983390D01*
X105733333Y-85983390D02*
X105780952Y-86031009D01*
X105780952Y-86031009D02*
X105876190Y-86078628D01*
X105876190Y-86078628D02*
X106257142Y-86078628D01*
X105352380Y-85554819D02*
X104733333Y-85554819D01*
X104733333Y-85554819D02*
X105066666Y-85935771D01*
X105066666Y-85935771D02*
X104923809Y-85935771D01*
X104923809Y-85935771D02*
X104828571Y-85983390D01*
X104828571Y-85983390D02*
X104780952Y-86031009D01*
X104780952Y-86031009D02*
X104733333Y-86126247D01*
X104733333Y-86126247D02*
X104733333Y-86364342D01*
X104733333Y-86364342D02*
X104780952Y-86459580D01*
X104780952Y-86459580D02*
X104828571Y-86507200D01*
X104828571Y-86507200D02*
X104923809Y-86554819D01*
X104923809Y-86554819D02*
X105209523Y-86554819D01*
X105209523Y-86554819D02*
X105304761Y-86507200D01*
X105304761Y-86507200D02*
X105352380Y-86459580D01*
X97861904Y-84502819D02*
X97290476Y-84502819D01*
X97576190Y-85502819D02*
X97576190Y-84502819D01*
X96957142Y-85502819D02*
X96957142Y-84502819D01*
X96957142Y-84502819D02*
X96576190Y-84502819D01*
X96576190Y-84502819D02*
X96480952Y-84550438D01*
X96480952Y-84550438D02*
X96433333Y-84598057D01*
X96433333Y-84598057D02*
X96385714Y-84693295D01*
X96385714Y-84693295D02*
X96385714Y-84836152D01*
X96385714Y-84836152D02*
X96433333Y-84931390D01*
X96433333Y-84931390D02*
X96480952Y-84979009D01*
X96480952Y-84979009D02*
X96576190Y-85026628D01*
X96576190Y-85026628D02*
X96957142Y-85026628D01*
X96004761Y-84598057D02*
X95957142Y-84550438D01*
X95957142Y-84550438D02*
X95861904Y-84502819D01*
X95861904Y-84502819D02*
X95623809Y-84502819D01*
X95623809Y-84502819D02*
X95528571Y-84550438D01*
X95528571Y-84550438D02*
X95480952Y-84598057D01*
X95480952Y-84598057D02*
X95433333Y-84693295D01*
X95433333Y-84693295D02*
X95433333Y-84788533D01*
X95433333Y-84788533D02*
X95480952Y-84931390D01*
X95480952Y-84931390D02*
X96052380Y-85502819D01*
X96052380Y-85502819D02*
X95433333Y-85502819D01*
X102814819Y-90766666D02*
X103529104Y-90766666D01*
X103529104Y-90766666D02*
X103671961Y-90719047D01*
X103671961Y-90719047D02*
X103767200Y-90623809D01*
X103767200Y-90623809D02*
X103814819Y-90480952D01*
X103814819Y-90480952D02*
X103814819Y-90385714D01*
X103814819Y-91766666D02*
X103814819Y-91195238D01*
X103814819Y-91480952D02*
X102814819Y-91480952D01*
X102814819Y-91480952D02*
X102957676Y-91385714D01*
X102957676Y-91385714D02*
X103052914Y-91290476D01*
X103052914Y-91290476D02*
X103100533Y-91195238D01*
X109761904Y-85554819D02*
X109190476Y-85554819D01*
X109476190Y-86554819D02*
X109476190Y-85554819D01*
X108857142Y-86554819D02*
X108857142Y-85554819D01*
X108857142Y-85554819D02*
X108476190Y-85554819D01*
X108476190Y-85554819D02*
X108380952Y-85602438D01*
X108380952Y-85602438D02*
X108333333Y-85650057D01*
X108333333Y-85650057D02*
X108285714Y-85745295D01*
X108285714Y-85745295D02*
X108285714Y-85888152D01*
X108285714Y-85888152D02*
X108333333Y-85983390D01*
X108333333Y-85983390D02*
X108380952Y-86031009D01*
X108380952Y-86031009D02*
X108476190Y-86078628D01*
X108476190Y-86078628D02*
X108857142Y-86078628D01*
X107428571Y-85888152D02*
X107428571Y-86554819D01*
X107666666Y-85507200D02*
X107904761Y-86221485D01*
X107904761Y-86221485D02*
X107285714Y-86221485D01*
%TO.C,BT1*%
D14*
X49100000Y-93600000D02*
X49100000Y-80400000D01*
X49100000Y-80400000D02*
X99300000Y-80400000D01*
X49900000Y-93000000D02*
X49900000Y-81000000D01*
X49900000Y-93000000D02*
X52900000Y-93000000D01*
X49900000Y-89000000D02*
X50900000Y-89000000D01*
X49900000Y-81000000D02*
X52900000Y-81000000D01*
X50900000Y-85000000D02*
X49900000Y-85000000D01*
X54900000Y-91000000D02*
X64900000Y-91000000D01*
X54900000Y-83000000D02*
X64900000Y-83000000D01*
X66900000Y-81000000D02*
X80900000Y-81000000D01*
X80900000Y-93000000D02*
X66900000Y-93000000D01*
X91900000Y-88000000D02*
X91900000Y-86000000D01*
X92900000Y-91000000D02*
X82900000Y-91000000D01*
X92900000Y-89000000D02*
X92900000Y-85000000D01*
X92900000Y-83000000D02*
X82900000Y-83000000D01*
X93900000Y-84000000D02*
X93900000Y-90000000D01*
X94900000Y-91000000D02*
X94900000Y-83000000D01*
X97900000Y-93000000D02*
X94900000Y-93000000D01*
X97900000Y-93000000D02*
X97900000Y-81000000D01*
X97900000Y-81000000D02*
X94900000Y-81000000D01*
X99300000Y-93600000D02*
X49100000Y-93600000D01*
X99300000Y-80400000D02*
X99300000Y-93600000D01*
X54900000Y-83000000D02*
G75*
G02*
X52900000Y-81000000I0J2000000D01*
G01*
X52900000Y-93000000D02*
G75*
G02*
X54900000Y-91000000I2000000J0D01*
G01*
X66900000Y-81000000D02*
G75*
G02*
X64900000Y-83000000I-2000000J0D01*
G01*
X64900000Y-91000000D02*
G75*
G02*
X66900000Y-93000000I0J-2000000D01*
G01*
X82900000Y-83000000D02*
G75*
G02*
X80900000Y-81000000I0J2000000D01*
G01*
X80900000Y-93000000D02*
G75*
G02*
X82900000Y-91000000I2000000J0D01*
G01*
X94900000Y-81000000D02*
G75*
G02*
X92900000Y-83000000I-2000000J0D01*
G01*
X92900000Y-91000000D02*
G75*
G02*
X94900000Y-93000000I0J-2000000D01*
G01*
%TO.C,TP1*%
X52600000Y-83500000D02*
G75*
G02*
X51200000Y-83500000I-700000J0D01*
G01*
X51200000Y-83500000D02*
G75*
G02*
X52600000Y-83500000I700000J0D01*
G01*
%TO.C,TP3*%
X106600000Y-87800000D02*
G75*
G02*
X105200000Y-87800000I-700000J0D01*
G01*
X105200000Y-87800000D02*
G75*
G02*
X106600000Y-87800000I700000J0D01*
G01*
%TO.C,TP2*%
X97300000Y-83600000D02*
G75*
G02*
X95900000Y-83600000I-700000J0D01*
G01*
X95900000Y-83600000D02*
G75*
G02*
X97300000Y-83600000I700000J0D01*
G01*
%TO.C,J1*%
X104550000Y-92430000D02*
X104550000Y-89770000D01*
X112230000Y-89770000D02*
X104550000Y-89770000D01*
X112230000Y-92430000D02*
X104550000Y-92430000D01*
X112230000Y-92430000D02*
X112230000Y-89770000D01*
X114830000Y-89770000D02*
X113500000Y-89770000D01*
X114830000Y-91100000D02*
X114830000Y-89770000D01*
%TO.C,TP4*%
X109100000Y-87800000D02*
G75*
G02*
X107700000Y-87800000I-700000J0D01*
G01*
X107700000Y-87800000D02*
G75*
G02*
X109100000Y-87800000I700000J0D01*
G01*
%TD*%
M02*
