%TF.GenerationSoftware,KiCad,Pcbnew,10.0.3*%
%TF.CreationDate,2026-06-09T21:24:23-04:00*%
%TF.ProjectId,nametag,6e616d65-7461-4672-9e6b-696361645f70,rev?*%
%TF.SameCoordinates,Original*%
%TF.FileFunction,Soldermask,Top*%
%TF.FilePolarity,Negative*%
%FSLAX46Y46*%
G04 Gerber Fmt 4.6, Leading zero omitted, Abs format (unit mm)*
G04 Created by KiCad (PCBNEW 10.0.3) date 2026-06-09 21:24:23*
%MOMM*%
%LPD*%
G01*
G04 APERTURE LIST*
G04 Aperture macros list*
%AMRoundRect*
0 Rectangle with rounded corners*
0 $1 Rounding radius*
0 $2 $3 $4 $5 $6 $7 $8 $9 X,Y pos of 4 corners*
0 Add a 4 corners polygon primitive as box body*
4,1,4,$2,$3,$4,$5,$6,$7,$8,$9,$2,$3,0*
0 Add four circle primitives for the rounded corners*
1,1,$1+$1,$2,$3*
1,1,$1+$1,$4,$5*
1,1,$1+$1,$6,$7*
1,1,$1+$1,$8,$9*
0 Add four rect primitives between the rounded corners*
20,1,$1+$1,$2,$3,$4,$5,0*
20,1,$1+$1,$4,$5,$6,$7,0*
20,1,$1+$1,$6,$7,$8,$9,0*
20,1,$1+$1,$8,$9,$2,$3,0*%
G04 Aperture macros list end*
%ADD10RoundRect,0.225000X0.250000X-0.225000X0.250000X0.225000X-0.250000X0.225000X-0.250000X-0.225000X0*%
%ADD11RoundRect,0.200000X0.275000X-0.200000X0.275000X0.200000X-0.275000X0.200000X-0.275000X-0.200000X0*%
%ADD12RoundRect,0.200000X-0.200000X-0.275000X0.200000X-0.275000X0.200000X0.275000X-0.200000X0.275000X0*%
%ADD13RoundRect,0.218750X0.293200X0.165979X-0.117915X0.315613X-0.293200X-0.165979X0.117915X-0.315613X0*%
%ADD14RoundRect,0.218750X-0.117915X-0.315613X0.293200X-0.165979X0.117915X0.315613X-0.293200X0.165979X0*%
%ADD15RoundRect,0.218750X-0.332287X-0.055689X0.002858X-0.336909X0.332287X0.055689X-0.002858X0.336909X0*%
%ADD16RoundRect,0.218750X-0.002858X-0.336909X0.332287X-0.055689X0.002858X0.336909X-0.332287X0.055689X0*%
%ADD17RoundRect,0.218750X0.240251X0.236210X-0.195584X0.274340X-0.240251X-0.236210X0.195584X-0.274340X0*%
%ADD18RoundRect,0.218750X0.170929X0.290343X-0.259924X0.214371X-0.170929X-0.290343X0.259924X-0.214371X0*%
%ADD19RoundRect,0.218750X-0.218750X-0.256250X0.218750X-0.256250X0.218750X0.256250X-0.218750X0.256250X0*%
%ADD20RoundRect,0.218750X-0.026517X0.335876X-0.335876X0.026517X0.026517X-0.335876X0.335876X-0.026517X0*%
%ADD21RoundRect,0.218750X0.205170X-0.267247X0.296131X0.160692X-0.205170X0.267247X-0.296131X-0.160692X0*%
%ADD22RoundRect,0.218750X0.296131X-0.160692X0.205170X0.267247X-0.296131X0.160692X-0.205170X-0.267247X0*%
%ADD23R,2.000000X2.000000*%
%ADD24C,2.000000*%
%ADD25C,1.448000*%
%ADD26R,1.230000X1.860000*%
%ADD27R,1.800000X1.200000*%
%ADD28R,0.200000X0.665000*%
%ADD29R,0.665000X0.200000*%
%ADD30R,1.650000X1.650000*%
%ADD31R,0.600000X1.070000*%
%ADD32RoundRect,0.140000X0.140000X0.170000X-0.140000X0.170000X-0.140000X-0.170000X0.140000X-0.170000X0*%
%ADD33R,1.700000X1.700000*%
%ADD34C,1.700000*%
G04 APERTURE END LIST*
D10*
%TO.C,C1*%
X78200000Y-91575000D03*
X78200000Y-90025000D03*
%TD*%
D11*
%TO.C,R8*%
X89200000Y-87537500D03*
X89200000Y-85887500D03*
%TD*%
D12*
%TO.C,R7*%
X91562500Y-90300000D03*
X93212500Y-90300000D03*
%TD*%
D11*
%TO.C,R6*%
X87600000Y-87537500D03*
X87600000Y-85887500D03*
%TD*%
D12*
%TO.C,R5*%
X99387500Y-88700000D03*
X101037500Y-88700000D03*
%TD*%
%TO.C,R4*%
X91562500Y-88700000D03*
X93212500Y-88700000D03*
%TD*%
D11*
%TO.C,R3*%
X83800000Y-85112500D03*
X83800000Y-83462500D03*
%TD*%
D12*
%TO.C,R2*%
X99387500Y-90300000D03*
X101037500Y-90300000D03*
%TD*%
D11*
%TO.C,R1*%
X81800000Y-85112500D03*
X81800000Y-83462500D03*
%TD*%
D13*
%TO.C,D16*%
X93850258Y-70270073D03*
X92370242Y-69731391D03*
%TD*%
D14*
%TO.C,D15*%
X101595011Y-70224805D03*
X103075027Y-69686123D03*
%TD*%
D15*
%TO.C,D14*%
X85934470Y-80570830D03*
X87140990Y-81583220D03*
%TD*%
D16*
%TO.C,D13*%
X108103048Y-81456220D03*
X109309568Y-80443830D03*
%TD*%
D17*
%TO.C,D12*%
X88086401Y-63111176D03*
X86517395Y-62973906D03*
%TD*%
D18*
%TO.C,D11*%
X107060848Y-62985658D03*
X105509776Y-63259154D03*
%TD*%
D19*
%TO.C,D10*%
X96580519Y-85068464D03*
X98155519Y-85068464D03*
%TD*%
D20*
%TO.C,D9*%
X104986066Y-53955417D03*
X103872372Y-55069111D03*
%TD*%
D21*
%TO.C,D8*%
X112008366Y-64723634D03*
X112335826Y-63183052D03*
%TD*%
%TO.C,D7*%
X113532366Y-58500634D03*
X113859826Y-56960052D03*
%TD*%
%TO.C,D6*%
X114802366Y-52785634D03*
X115129826Y-51245052D03*
%TD*%
%TO.C,D5*%
X116203489Y-46900555D03*
X116530949Y-45359973D03*
%TD*%
D22*
%TO.C,D4*%
X83379826Y-64840676D03*
X83052366Y-63300094D03*
%TD*%
%TO.C,D3*%
X81965672Y-58881634D03*
X81638212Y-57341052D03*
%TD*%
%TO.C,D2*%
X80585826Y-53166634D03*
X80258366Y-51626052D03*
%TD*%
%TO.C,D1*%
X79070072Y-47009876D03*
X78742612Y-45469294D03*
%TD*%
D23*
%TO.C,BT1*%
X51900000Y-87000000D03*
D24*
X96600000Y-87000000D03*
%TD*%
D25*
%TO.C,HO1*%
X117200000Y-92000000D03*
%TD*%
%TO.C,HO2*%
X31000000Y-92000000D03*
%TD*%
%TO.C,HO3*%
X31000000Y-44000000D03*
%TD*%
D26*
%TO.C,SW1*%
X110820000Y-87200000D03*
X115180000Y-87200000D03*
%TD*%
D27*
%TO.C,L1*%
X74600000Y-86000000D03*
X74600000Y-88000000D03*
%TD*%
D28*
%TO.C,U3*%
X84400000Y-88590000D03*
X84000000Y-88590000D03*
X83600000Y-88590000D03*
X83200000Y-88590000D03*
X82800000Y-88590000D03*
D29*
X82190000Y-89200000D03*
X82190000Y-89600000D03*
X82190000Y-90000000D03*
X82190000Y-90400000D03*
X82190000Y-90800000D03*
D28*
X82800000Y-91410000D03*
X83200000Y-91410000D03*
X83600000Y-91410000D03*
X84000000Y-91410000D03*
X84400000Y-91410000D03*
D29*
X85010000Y-90800000D03*
X85010000Y-90400000D03*
X85010000Y-90000000D03*
X85010000Y-89600000D03*
X85010000Y-89200000D03*
D30*
X83600000Y-90000000D03*
%TD*%
D31*
%TO.C,U2*%
X75950000Y-89960000D03*
X74050000Y-89960000D03*
X75000000Y-92440000D03*
%TD*%
D32*
%TO.C,C2*%
X82000000Y-87600000D03*
X81040000Y-87600000D03*
%TD*%
D33*
%TO.C,J1*%
X113500000Y-91100000D03*
D34*
X110960000Y-91100000D03*
X108420000Y-91100000D03*
X105880000Y-91100000D03*
%TD*%
M02*
