M48
; DRILL file KiCad 10.0.3 date 2026-06-09T21:24:25
; FORMAT={-:-/ absolute / metric / decimal}
; #@! TF.CreationDate,2026-06-09T21:24:25-04:00
; #@! TF.GenerationSoftware,Kicad,Pcbnew,10.0.3
; #@! TF.FileFunction,Plated,1,2,PTH
FMAT,2
METRIC
; #@! TA.AperFunction,Plated,PTH,ViaDrill
T1C0.200
; #@! TA.AperFunction,Plated,PTH,ViaDrill
T2C0.300
; #@! TA.AperFunction,Plated,PTH,ComponentDrill
T3C1.000
; #@! TA.AperFunction,Plated,PTH,ComponentDrill
T4C1.020
%
G90
G05
T1
X79.842Y-46.968
X79.842Y-53.318
X81.147Y-89.52
X82.484Y-65.028
X83.017Y-59.033
X83.6Y-90.0
X104.074Y-53.395
X112.964Y-64.977
X113.497Y-59.668
X114.894Y-53.699
X116.037Y-48.238
T2
X76.0Y-89.2
X78.2Y-89.0
X80.36Y-87.6
X85.585Y-79.9
X95.6Y-85.0
X107.4Y-82.2
X116.4Y-87.3
T3
X105.88Y-91.1
X108.42Y-91.1
X110.96Y-91.1
X113.5Y-91.1
T4
X51.9Y-87.0
X96.6Y-87.0
M30
