%TF.GenerationSoftware,KiCad,Pcbnew,10.0.3*%
%TF.CreationDate,2026-06-09T21:24:23-04:00*%
%TF.ProjectId,nametag,6e616d65-7461-4672-9e6b-696361645f70,rev?*%
%TF.SameCoordinates,Original*%
%TF.FileFunction,Copper,L2,Bot*%
%TF.FilePolarity,Positive*%
%FSLAX46Y46*%
G04 Gerber Fmt 4.6, Leading zero omitted, Abs format (unit mm)*
G04 Created by KiCad (PCBNEW 10.0.3) date 2026-06-09 21:24:23*
%MOMM*%
%LPD*%
G01*
G04 APERTURE LIST*
%TA.AperFunction,ComponentPad*%
%ADD10R,2.000000X2.000000*%
%TD*%
%TA.AperFunction,ComponentPad*%
%ADD11C,2.000000*%
%TD*%
%TA.AperFunction,SMDPad,CuDef*%
%ADD12C,1.000000*%
%TD*%
%TA.AperFunction,ComponentPad*%
%ADD13R,1.700000X1.700000*%
%TD*%
%TA.AperFunction,ComponentPad*%
%ADD14C,1.700000*%
%TD*%
%TA.AperFunction,ViaPad*%
%ADD15C,0.450000*%
%TD*%
%TA.AperFunction,ViaPad*%
%ADD16C,0.600000*%
%TD*%
%TA.AperFunction,Conductor*%
%ADD17C,0.400000*%
%TD*%
%TA.AperFunction,Conductor*%
%ADD18C,0.200000*%
%TD*%
G04 APERTURE END LIST*
D10*
%TO.P,BT1,1,+_1*%
%TO.N,Net-(BT1-+)*%
X51900000Y-87000000D03*
D11*
%TO.P,BT1,2,-_2*%
%TO.N,GND*%
X96600000Y-87000000D03*
%TD*%
D12*
%TO.P,TP1,1,1_1*%
%TO.N,Net-(BT1-+)*%
X51900000Y-83500000D03*
%TD*%
%TO.P,TP3,1,1_1*%
%TO.N,/Mcu/UART_TX*%
X105900000Y-87800000D03*
%TD*%
%TO.P,TP2,1,1_1*%
%TO.N,GND*%
X96600000Y-83600000D03*
%TD*%
D13*
%TO.P,J1,1,Pin_1_1*%
%TO.N,GND*%
X113500000Y-91100000D03*
D14*
%TO.P,J1,2,Pin_2_2*%
%TO.N,+3.3V*%
X110960000Y-91100000D03*
%TO.P,J1,3,Pin_3_3*%
%TO.N,/Mcu/UART_RX*%
X108420000Y-91100000D03*
%TO.P,J1,4,Pin_4_4*%
%TO.N,/Mcu/UART_TX*%
X105880000Y-91100000D03*
%TD*%
D12*
%TO.P,TP4,1,1_1*%
%TO.N,/Mcu/UART_RX*%
X108400000Y-87800000D03*
%TD*%
D15*
%TO.N,GND*%
X114894019Y-53699464D03*
D16*
X78200000Y-89000000D03*
X80360000Y-87600000D03*
D15*
X116037019Y-48238464D03*
D16*
X116400000Y-87300000D03*
D15*
X81147095Y-89519522D03*
D16*
X107400000Y-82200000D03*
D15*
X79842019Y-53318464D03*
D16*
X95600000Y-85000000D03*
X85585202Y-79900000D03*
D15*
X79842019Y-46968464D03*
X83600000Y-90000000D03*
X82483619Y-65027864D03*
X83017019Y-59033464D03*
X104073619Y-53394664D03*
D16*
X76000000Y-89200000D03*
D15*
X113497019Y-59668464D03*
X112963619Y-64977064D03*
%TD*%
%TO.N,Net-(BT1-+)*%
D17*
X51900000Y-83500000D02*
X51900000Y-87000000D01*
%TO.N,/Mcu/UART_RX*%
D18*
X108400000Y-91080000D02*
X108420000Y-91100000D01*
X108400000Y-87800000D02*
X108400000Y-91080000D01*
%TO.N,/Mcu/UART_TX*%
X105900000Y-91080000D02*
X105880000Y-91100000D01*
X105900000Y-87800000D02*
X105900000Y-91080000D01*
%TD*%
%TA.AperFunction,Conductor*%
%TO.N,GND*%
G36*
X116003032Y-41500648D02*
G01*
X116336929Y-41517052D01*
X116349037Y-41518245D01*
X116452146Y-41533539D01*
X116676699Y-41566849D01*
X116688617Y-41569219D01*
X117009951Y-41649709D01*
X117021588Y-41653240D01*
X117092806Y-41678722D01*
X117333467Y-41764832D01*
X117344688Y-41769479D01*
X117644163Y-41911120D01*
X117654871Y-41916844D01*
X117938988Y-42087137D01*
X117949106Y-42093897D01*
X118215170Y-42291224D01*
X118224576Y-42298944D01*
X118470013Y-42521395D01*
X118478604Y-42529986D01*
X118665755Y-42736475D01*
X118701055Y-42775423D01*
X118708775Y-42784829D01*
X118906102Y-43050893D01*
X118912862Y-43061011D01*
X119041776Y-43276092D01*
X119083148Y-43345116D01*
X119088883Y-43355844D01*
X119144358Y-43473137D01*
X119230514Y-43655297D01*
X119235170Y-43666540D01*
X119346759Y-43978411D01*
X119350292Y-43990055D01*
X119430777Y-44311369D01*
X119433151Y-44323305D01*
X119481754Y-44650962D01*
X119482947Y-44663071D01*
X119499351Y-44996966D01*
X119499500Y-45003051D01*
X119499500Y-90996948D01*
X119499351Y-91003033D01*
X119482947Y-91336928D01*
X119481754Y-91349037D01*
X119433151Y-91676694D01*
X119430777Y-91688630D01*
X119350292Y-92009944D01*
X119346759Y-92021588D01*
X119235170Y-92333459D01*
X119230514Y-92344702D01*
X119088885Y-92644151D01*
X119083148Y-92654883D01*
X118912862Y-92938988D01*
X118906102Y-92949106D01*
X118708775Y-93215170D01*
X118701055Y-93224576D01*
X118478611Y-93470006D01*
X118470006Y-93478611D01*
X118224576Y-93701055D01*
X118215170Y-93708775D01*
X117949106Y-93906102D01*
X117938988Y-93912862D01*
X117654883Y-94083148D01*
X117644151Y-94088885D01*
X117344702Y-94230514D01*
X117333459Y-94235170D01*
X117021588Y-94346759D01*
X117009944Y-94350292D01*
X116688630Y-94430777D01*
X116676694Y-94433151D01*
X116349037Y-94481754D01*
X116336928Y-94482947D01*
X116021989Y-94498419D01*
X116003031Y-94499351D01*
X115996949Y-94499500D01*
X32003051Y-94499500D01*
X31996968Y-94499351D01*
X31976900Y-94498365D01*
X31663071Y-94482947D01*
X31650962Y-94481754D01*
X31323305Y-94433151D01*
X31311369Y-94430777D01*
X30990055Y-94350292D01*
X30978411Y-94346759D01*
X30666540Y-94235170D01*
X30655301Y-94230515D01*
X30355844Y-94088883D01*
X30345121Y-94083150D01*
X30061011Y-93912862D01*
X30050893Y-93906102D01*
X29784829Y-93708775D01*
X29775423Y-93701055D01*
X29736475Y-93665755D01*
X29529986Y-93478604D01*
X29521395Y-93470013D01*
X29298944Y-93224576D01*
X29291224Y-93215170D01*
X29093897Y-92949106D01*
X29087137Y-92938988D01*
X28916844Y-92654871D01*
X28911120Y-92644163D01*
X28769479Y-92344688D01*
X28764829Y-92333459D01*
X28736774Y-92255051D01*
X28692068Y-92130104D01*
X28653240Y-92021588D01*
X28649707Y-92009943D01*
X28646672Y-91997827D01*
X28626825Y-91918592D01*
X30173500Y-91918592D01*
X30173500Y-92081407D01*
X30205259Y-92241073D01*
X30205262Y-92241082D01*
X30267562Y-92391490D01*
X30267563Y-92391492D01*
X30358015Y-92526862D01*
X30358018Y-92526866D01*
X30473133Y-92641981D01*
X30473137Y-92641984D01*
X30608505Y-92732435D01*
X30608506Y-92732435D01*
X30608507Y-92732436D01*
X30608509Y-92732437D01*
X30708781Y-92773970D01*
X30758919Y-92794738D01*
X30758921Y-92794738D01*
X30758926Y-92794740D01*
X30918592Y-92826499D01*
X30918595Y-92826500D01*
X30918597Y-92826500D01*
X31081405Y-92826500D01*
X31081406Y-92826499D01*
X31134629Y-92815912D01*
X31241073Y-92794740D01*
X31241076Y-92794738D01*
X31241081Y-92794738D01*
X31391495Y-92732435D01*
X31526863Y-92641984D01*
X31641984Y-92526863D01*
X31732435Y-92391495D01*
X31794738Y-92241081D01*
X31804483Y-92192093D01*
X31826499Y-92081407D01*
X31826500Y-92081405D01*
X31826500Y-91918594D01*
X31826499Y-91918592D01*
X31794740Y-91758926D01*
X31794737Y-91758917D01*
X31790322Y-91748259D01*
X31760680Y-91676694D01*
X31732437Y-91608509D01*
X31732436Y-91608507D01*
X31703983Y-91565925D01*
X31641984Y-91473137D01*
X31641981Y-91473133D01*
X31526866Y-91358018D01*
X31526862Y-91358015D01*
X31391492Y-91267563D01*
X31391490Y-91267562D01*
X31241082Y-91205262D01*
X31241073Y-91205259D01*
X31081406Y-91173500D01*
X31081403Y-91173500D01*
X30918597Y-91173500D01*
X30918594Y-91173500D01*
X30758926Y-91205259D01*
X30758917Y-91205262D01*
X30608509Y-91267562D01*
X30608507Y-91267563D01*
X30473137Y-91358015D01*
X30473133Y-91358018D01*
X30358018Y-91473133D01*
X30358015Y-91473137D01*
X30267563Y-91608507D01*
X30267562Y-91608509D01*
X30205262Y-91758917D01*
X30205259Y-91758926D01*
X30173500Y-91918592D01*
X28626825Y-91918592D01*
X28569219Y-91688617D01*
X28566848Y-91676694D01*
X28556733Y-91608507D01*
X28518245Y-91349037D01*
X28517052Y-91336927D01*
X28500649Y-91003032D01*
X28500500Y-90996948D01*
X28500500Y-90993713D01*
X104529500Y-90993713D01*
X104529500Y-91206286D01*
X104553531Y-91358016D01*
X104562754Y-91416243D01*
X104625225Y-91608509D01*
X104628444Y-91618414D01*
X104724951Y-91807820D01*
X104849890Y-91979786D01*
X105000213Y-92130109D01*
X105172179Y-92255048D01*
X105172181Y-92255049D01*
X105172184Y-92255051D01*
X105361588Y-92351557D01*
X105563757Y-92417246D01*
X105773713Y-92450500D01*
X105773714Y-92450500D01*
X105986286Y-92450500D01*
X105986287Y-92450500D01*
X106196243Y-92417246D01*
X106398412Y-92351557D01*
X106587816Y-92255051D01*
X106674478Y-92192088D01*
X106759786Y-92130109D01*
X106759788Y-92130106D01*
X106759792Y-92130104D01*
X106910104Y-91979792D01*
X106910106Y-91979788D01*
X106910109Y-91979786D01*
X107035048Y-91807820D01*
X107035047Y-91807820D01*
X107035051Y-91807816D01*
X107039514Y-91799054D01*
X107087488Y-91748259D01*
X107155308Y-91731463D01*
X107221444Y-91753999D01*
X107260486Y-91799056D01*
X107264951Y-91807820D01*
X107389890Y-91979786D01*
X107540213Y-92130109D01*
X107712179Y-92255048D01*
X107712181Y-92255049D01*
X107712184Y-92255051D01*
X107901588Y-92351557D01*
X108103757Y-92417246D01*
X108313713Y-92450500D01*
X108313714Y-92450500D01*
X108526286Y-92450500D01*
X108526287Y-92450500D01*
X108736243Y-92417246D01*
X108938412Y-92351557D01*
X109127816Y-92255051D01*
X109214478Y-92192088D01*
X109299786Y-92130109D01*
X109299788Y-92130106D01*
X109299792Y-92130104D01*
X109450104Y-91979792D01*
X109450106Y-91979788D01*
X109450109Y-91979786D01*
X109575048Y-91807820D01*
X109575047Y-91807820D01*
X109575051Y-91807816D01*
X109579514Y-91799054D01*
X109627488Y-91748259D01*
X109695308Y-91731463D01*
X109761444Y-91753999D01*
X109800486Y-91799056D01*
X109804951Y-91807820D01*
X109929890Y-91979786D01*
X110080213Y-92130109D01*
X110252179Y-92255048D01*
X110252181Y-92255049D01*
X110252184Y-92255051D01*
X110441588Y-92351557D01*
X110643757Y-92417246D01*
X110853713Y-92450500D01*
X110853714Y-92450500D01*
X111066286Y-92450500D01*
X111066287Y-92450500D01*
X111276243Y-92417246D01*
X111478412Y-92351557D01*
X111667816Y-92255051D01*
X111754478Y-92192088D01*
X111839784Y-92130110D01*
X111839784Y-92130109D01*
X111839792Y-92130104D01*
X111953717Y-92016178D01*
X112015036Y-91982696D01*
X112084728Y-91987680D01*
X112140662Y-92029551D01*
X112157577Y-92060528D01*
X112206646Y-92192088D01*
X112206649Y-92192093D01*
X112292809Y-92307187D01*
X112292812Y-92307190D01*
X112407906Y-92393350D01*
X112407913Y-92393354D01*
X112542620Y-92443596D01*
X112542627Y-92443598D01*
X112602155Y-92449999D01*
X112602172Y-92450000D01*
X113250000Y-92450000D01*
X113250000Y-91533012D01*
X113307007Y-91565925D01*
X113434174Y-91600000D01*
X113565826Y-91600000D01*
X113692993Y-91565925D01*
X113750000Y-91533012D01*
X113750000Y-92450000D01*
X114397828Y-92450000D01*
X114397844Y-92449999D01*
X114457372Y-92443598D01*
X114457379Y-92443596D01*
X114592086Y-92393354D01*
X114592093Y-92393350D01*
X114707187Y-92307190D01*
X114707190Y-92307187D01*
X114793350Y-92192093D01*
X114793354Y-92192086D01*
X114843596Y-92057379D01*
X114843598Y-92057372D01*
X114849999Y-91997844D01*
X114850000Y-91997827D01*
X114850000Y-91918592D01*
X116373500Y-91918592D01*
X116373500Y-92081407D01*
X116405259Y-92241073D01*
X116405262Y-92241082D01*
X116467562Y-92391490D01*
X116467563Y-92391492D01*
X116558015Y-92526862D01*
X116558018Y-92526866D01*
X116673133Y-92641981D01*
X116673137Y-92641984D01*
X116808505Y-92732435D01*
X116808506Y-92732435D01*
X116808507Y-92732436D01*
X116808509Y-92732437D01*
X116908781Y-92773970D01*
X116958919Y-92794738D01*
X116958921Y-92794738D01*
X116958926Y-92794740D01*
X117118592Y-92826499D01*
X117118595Y-92826500D01*
X117118597Y-92826500D01*
X117281405Y-92826500D01*
X117281406Y-92826499D01*
X117334629Y-92815912D01*
X117441073Y-92794740D01*
X117441076Y-92794738D01*
X117441081Y-92794738D01*
X117591495Y-92732435D01*
X117726863Y-92641984D01*
X117841984Y-92526863D01*
X117932435Y-92391495D01*
X117994738Y-92241081D01*
X118004483Y-92192093D01*
X118026499Y-92081407D01*
X118026500Y-92081405D01*
X118026500Y-91918594D01*
X118026499Y-91918592D01*
X117994740Y-91758926D01*
X117994737Y-91758917D01*
X117990322Y-91748259D01*
X117960680Y-91676694D01*
X117932437Y-91608509D01*
X117932436Y-91608507D01*
X117903983Y-91565925D01*
X117841984Y-91473137D01*
X117841981Y-91473133D01*
X117726866Y-91358018D01*
X117726862Y-91358015D01*
X117591492Y-91267563D01*
X117591490Y-91267562D01*
X117441082Y-91205262D01*
X117441073Y-91205259D01*
X117281406Y-91173500D01*
X117281403Y-91173500D01*
X117118597Y-91173500D01*
X117118594Y-91173500D01*
X116958926Y-91205259D01*
X116958917Y-91205262D01*
X116808509Y-91267562D01*
X116808507Y-91267563D01*
X116673137Y-91358015D01*
X116673133Y-91358018D01*
X116558018Y-91473133D01*
X116558015Y-91473137D01*
X116467563Y-91608507D01*
X116467562Y-91608509D01*
X116405262Y-91758917D01*
X116405259Y-91758926D01*
X116373500Y-91918592D01*
X114850000Y-91918592D01*
X114850000Y-91350000D01*
X113933012Y-91350000D01*
X113965925Y-91292993D01*
X114000000Y-91165826D01*
X114000000Y-91034174D01*
X113965925Y-90907007D01*
X113933012Y-90850000D01*
X114850000Y-90850000D01*
X114850000Y-90202172D01*
X114849999Y-90202155D01*
X114843598Y-90142627D01*
X114843596Y-90142620D01*
X114793354Y-90007913D01*
X114793350Y-90007906D01*
X114707190Y-89892812D01*
X114707187Y-89892809D01*
X114592093Y-89806649D01*
X114592086Y-89806645D01*
X114457379Y-89756403D01*
X114457372Y-89756401D01*
X114397844Y-89750000D01*
X113750000Y-89750000D01*
X113750000Y-90666988D01*
X113692993Y-90634075D01*
X113565826Y-90600000D01*
X113434174Y-90600000D01*
X113307007Y-90634075D01*
X113250000Y-90666988D01*
X113250000Y-89750000D01*
X112602155Y-89750000D01*
X112542627Y-89756401D01*
X112542620Y-89756403D01*
X112407913Y-89806645D01*
X112407906Y-89806649D01*
X112292812Y-89892809D01*
X112292809Y-89892812D01*
X112206649Y-90007906D01*
X112206646Y-90007912D01*
X112157577Y-90139471D01*
X112115705Y-90195404D01*
X112050241Y-90219821D01*
X111981968Y-90204969D01*
X111953714Y-90183818D01*
X111839786Y-90069890D01*
X111667820Y-89944951D01*
X111478414Y-89848444D01*
X111478413Y-89848443D01*
X111478412Y-89848443D01*
X111276243Y-89782754D01*
X111276241Y-89782753D01*
X111276240Y-89782753D01*
X111114957Y-89757208D01*
X111066287Y-89749500D01*
X110853713Y-89749500D01*
X110805042Y-89757208D01*
X110643760Y-89782753D01*
X110441585Y-89848444D01*
X110252179Y-89944951D01*
X110080213Y-90069890D01*
X109929890Y-90220213D01*
X109804949Y-90392182D01*
X109800484Y-90400946D01*
X109752509Y-90451742D01*
X109684688Y-90468536D01*
X109618553Y-90445998D01*
X109579516Y-90400946D01*
X109575050Y-90392182D01*
X109450109Y-90220213D01*
X109299786Y-90069890D01*
X109127817Y-89944949D01*
X109068204Y-89914574D01*
X109017409Y-89866599D01*
X109000500Y-89804090D01*
X109000500Y-88665784D01*
X109020185Y-88598745D01*
X109036819Y-88578103D01*
X109177136Y-88437785D01*
X109177139Y-88437782D01*
X109286632Y-88273914D01*
X109362051Y-88091835D01*
X109400500Y-87898541D01*
X109400500Y-87701459D01*
X109400500Y-87701456D01*
X109362052Y-87508170D01*
X109362051Y-87508169D01*
X109362051Y-87508165D01*
X109297054Y-87351247D01*
X109286635Y-87326092D01*
X109286628Y-87326079D01*
X109177139Y-87162218D01*
X109177136Y-87162214D01*
X109037785Y-87022863D01*
X109037781Y-87022860D01*
X108873920Y-86913371D01*
X108873907Y-86913364D01*
X108691839Y-86837950D01*
X108691829Y-86837947D01*
X108498543Y-86799500D01*
X108498541Y-86799500D01*
X108301459Y-86799500D01*
X108301457Y-86799500D01*
X108108170Y-86837947D01*
X108108160Y-86837950D01*
X107926092Y-86913364D01*
X107926079Y-86913371D01*
X107762218Y-87022860D01*
X107762214Y-87022863D01*
X107622863Y-87162214D01*
X107622860Y-87162218D01*
X107513371Y-87326079D01*
X107513364Y-87326092D01*
X107437950Y-87508160D01*
X107437947Y-87508170D01*
X107399500Y-87701456D01*
X107399500Y-87701459D01*
X107399500Y-87898541D01*
X107399500Y-87898543D01*
X107399499Y-87898543D01*
X107437947Y-88091829D01*
X107437950Y-88091839D01*
X107513364Y-88273907D01*
X107513371Y-88273920D01*
X107622860Y-88437781D01*
X107622863Y-88437785D01*
X107763181Y-88578103D01*
X107796666Y-88639426D01*
X107799500Y-88665784D01*
X107799500Y-89824471D01*
X107779815Y-89891510D01*
X107731798Y-89934954D01*
X107712182Y-89944949D01*
X107540213Y-90069890D01*
X107389890Y-90220213D01*
X107264949Y-90392182D01*
X107260484Y-90400946D01*
X107212509Y-90451742D01*
X107144688Y-90468536D01*
X107078553Y-90445998D01*
X107039516Y-90400946D01*
X107035050Y-90392182D01*
X106910109Y-90220213D01*
X106759786Y-90069890D01*
X106587817Y-89944949D01*
X106568202Y-89934954D01*
X106517407Y-89886978D01*
X106500500Y-89824471D01*
X106500500Y-88665784D01*
X106520185Y-88598745D01*
X106536819Y-88578103D01*
X106677136Y-88437785D01*
X106677139Y-88437782D01*
X106786632Y-88273914D01*
X106862051Y-88091835D01*
X106900500Y-87898541D01*
X106900500Y-87701459D01*
X106900500Y-87701456D01*
X106862052Y-87508170D01*
X106862051Y-87508169D01*
X106862051Y-87508165D01*
X106797054Y-87351247D01*
X106786635Y-87326092D01*
X106786628Y-87326079D01*
X106677139Y-87162218D01*
X106677136Y-87162214D01*
X106537785Y-87022863D01*
X106537781Y-87022860D01*
X106373920Y-86913371D01*
X106373907Y-86913364D01*
X106191839Y-86837950D01*
X106191829Y-86837947D01*
X105998543Y-86799500D01*
X105998541Y-86799500D01*
X105801459Y-86799500D01*
X105801457Y-86799500D01*
X105608170Y-86837947D01*
X105608160Y-86837950D01*
X105426092Y-86913364D01*
X105426079Y-86913371D01*
X105262218Y-87022860D01*
X105262214Y-87022863D01*
X105122863Y-87162214D01*
X105122860Y-87162218D01*
X105013371Y-87326079D01*
X105013364Y-87326092D01*
X104937950Y-87508160D01*
X104937947Y-87508170D01*
X104899500Y-87701456D01*
X104899500Y-87701459D01*
X104899500Y-87898541D01*
X104899500Y-87898543D01*
X104899499Y-87898543D01*
X104937947Y-88091829D01*
X104937950Y-88091839D01*
X105013364Y-88273907D01*
X105013371Y-88273920D01*
X105122860Y-88437781D01*
X105122863Y-88437785D01*
X105263181Y-88578103D01*
X105296666Y-88639426D01*
X105299500Y-88665784D01*
X105299500Y-89804090D01*
X105279815Y-89871129D01*
X105231796Y-89914574D01*
X105172182Y-89944949D01*
X105000213Y-90069890D01*
X104849890Y-90220213D01*
X104724951Y-90392179D01*
X104628444Y-90581585D01*
X104562753Y-90783760D01*
X104529500Y-90993713D01*
X28500500Y-90993713D01*
X28500500Y-85952135D01*
X50399500Y-85952135D01*
X50399500Y-88047870D01*
X50399501Y-88047876D01*
X50405908Y-88107483D01*
X50456202Y-88242328D01*
X50456206Y-88242335D01*
X50542452Y-88357544D01*
X50542455Y-88357547D01*
X50657664Y-88443793D01*
X50657671Y-88443797D01*
X50792517Y-88494091D01*
X50792516Y-88494091D01*
X50799444Y-88494835D01*
X50852127Y-88500500D01*
X52947872Y-88500499D01*
X53007483Y-88494091D01*
X53142331Y-88443796D01*
X53257546Y-88357546D01*
X53343796Y-88242331D01*
X53394091Y-88107483D01*
X53400500Y-88047873D01*
X53400499Y-86881947D01*
X95100000Y-86881947D01*
X95100000Y-87118052D01*
X95136934Y-87351247D01*
X95209897Y-87575802D01*
X95317087Y-87786174D01*
X95377338Y-87869104D01*
X95377340Y-87869105D01*
X96108871Y-87137574D01*
X96124755Y-87196853D01*
X96191898Y-87313147D01*
X96286853Y-87408102D01*
X96403147Y-87475245D01*
X96462425Y-87491128D01*
X95730893Y-88222658D01*
X95813828Y-88282914D01*
X96024197Y-88390102D01*
X96248752Y-88463065D01*
X96248751Y-88463065D01*
X96481948Y-88500000D01*
X96718052Y-88500000D01*
X96951247Y-88463065D01*
X97175802Y-88390102D01*
X97386163Y-88282918D01*
X97386169Y-88282914D01*
X97469104Y-88222658D01*
X97469105Y-88222658D01*
X96737574Y-87491128D01*
X96796853Y-87475245D01*
X96913147Y-87408102D01*
X97008102Y-87313147D01*
X97075245Y-87196853D01*
X97091128Y-87137574D01*
X97822658Y-87869105D01*
X97822658Y-87869104D01*
X97882914Y-87786169D01*
X97882918Y-87786163D01*
X97990102Y-87575802D01*
X98063065Y-87351247D01*
X98100000Y-87118052D01*
X98100000Y-86881947D01*
X98063065Y-86648752D01*
X97990102Y-86424197D01*
X97882914Y-86213828D01*
X97822658Y-86130894D01*
X97822658Y-86130893D01*
X97091128Y-86862424D01*
X97075245Y-86803147D01*
X97008102Y-86686853D01*
X96913147Y-86591898D01*
X96796853Y-86524755D01*
X96737574Y-86508871D01*
X97469105Y-85777340D01*
X97469104Y-85777338D01*
X97386174Y-85717087D01*
X97175802Y-85609897D01*
X96951247Y-85536934D01*
X96951248Y-85536934D01*
X96718052Y-85500000D01*
X96481948Y-85500000D01*
X96248752Y-85536934D01*
X96024197Y-85609897D01*
X95813830Y-85717084D01*
X95730894Y-85777340D01*
X96462425Y-86508871D01*
X96403147Y-86524755D01*
X96286853Y-86591898D01*
X96191898Y-86686853D01*
X96124755Y-86803147D01*
X96108871Y-86862425D01*
X95377340Y-86130894D01*
X95317084Y-86213830D01*
X95209897Y-86424197D01*
X95136934Y-86648752D01*
X95100000Y-86881947D01*
X53400499Y-86881947D01*
X53400499Y-85952128D01*
X53394091Y-85892517D01*
X53394090Y-85892514D01*
X53384922Y-85867931D01*
X53343797Y-85757671D01*
X53343793Y-85757664D01*
X53257547Y-85642455D01*
X53257544Y-85642452D01*
X53142335Y-85556206D01*
X53142328Y-85556202D01*
X53007482Y-85505908D01*
X53007483Y-85505908D01*
X52947883Y-85499501D01*
X52947881Y-85499500D01*
X52947873Y-85499500D01*
X52947865Y-85499500D01*
X52724500Y-85499500D01*
X52657461Y-85479815D01*
X52611706Y-85427011D01*
X52600500Y-85375500D01*
X52600500Y-84462572D01*
X96090979Y-84462572D01*
X96126328Y-84486192D01*
X96308306Y-84561569D01*
X96308318Y-84561572D01*
X96501504Y-84599999D01*
X96501508Y-84600000D01*
X96698492Y-84600000D01*
X96698495Y-84599999D01*
X96891681Y-84561572D01*
X96891693Y-84561569D01*
X97073676Y-84486190D01*
X97073680Y-84486187D01*
X97109019Y-84462573D01*
X97109020Y-84462572D01*
X96600001Y-83953553D01*
X96600000Y-83953553D01*
X96090979Y-84462572D01*
X52600500Y-84462572D01*
X52600500Y-84265783D01*
X52620185Y-84198744D01*
X52636820Y-84178101D01*
X52677136Y-84137785D01*
X52677139Y-84137782D01*
X52786632Y-83973914D01*
X52862051Y-83791835D01*
X52900500Y-83598541D01*
X52900500Y-83501504D01*
X95600000Y-83501504D01*
X95600000Y-83698495D01*
X95638427Y-83891681D01*
X95638430Y-83891693D01*
X95713808Y-84073673D01*
X95713809Y-84073675D01*
X95737425Y-84109019D01*
X96246446Y-83600000D01*
X96246446Y-83599999D01*
X96953553Y-83599999D01*
X96953553Y-83600001D01*
X97462572Y-84109020D01*
X97462573Y-84109019D01*
X97486187Y-84073680D01*
X97486190Y-84073676D01*
X97561569Y-83891693D01*
X97561572Y-83891681D01*
X97599999Y-83698495D01*
X97600000Y-83698492D01*
X97600000Y-83501508D01*
X97599999Y-83501504D01*
X97561572Y-83308318D01*
X97561569Y-83308306D01*
X97486192Y-83126328D01*
X97462572Y-83090979D01*
X96953553Y-83599999D01*
X96246446Y-83599999D01*
X95737426Y-83090978D01*
X95737426Y-83090979D01*
X95713813Y-83126318D01*
X95713809Y-83126325D01*
X95638429Y-83308310D01*
X95638427Y-83308318D01*
X95600000Y-83501504D01*
X52900500Y-83501504D01*
X52900500Y-83401459D01*
X52900500Y-83401456D01*
X52862052Y-83208170D01*
X52862051Y-83208169D01*
X52862051Y-83208165D01*
X52862049Y-83208160D01*
X52786635Y-83026092D01*
X52786628Y-83026079D01*
X52677140Y-82862220D01*
X52677139Y-82862218D01*
X52677137Y-82862216D01*
X52677134Y-82862212D01*
X52552348Y-82737426D01*
X96090978Y-82737426D01*
X96600000Y-83246446D01*
X96600001Y-83246446D01*
X97109020Y-82737426D01*
X97073675Y-82713809D01*
X97073673Y-82713808D01*
X96891693Y-82638430D01*
X96891681Y-82638427D01*
X96698495Y-82600000D01*
X96501504Y-82600000D01*
X96308318Y-82638427D01*
X96308310Y-82638429D01*
X96126325Y-82713809D01*
X96126318Y-82713813D01*
X96090979Y-82737426D01*
X96090978Y-82737426D01*
X52552348Y-82737426D01*
X52537785Y-82722863D01*
X52537781Y-82722860D01*
X52373920Y-82613371D01*
X52373907Y-82613364D01*
X52191839Y-82537950D01*
X52191829Y-82537947D01*
X51998543Y-82499500D01*
X51998541Y-82499500D01*
X51801459Y-82499500D01*
X51801457Y-82499500D01*
X51608170Y-82537947D01*
X51608160Y-82537950D01*
X51426092Y-82613364D01*
X51426079Y-82613371D01*
X51262218Y-82722860D01*
X51262214Y-82722863D01*
X51122863Y-82862214D01*
X51122860Y-82862218D01*
X51013371Y-83026079D01*
X51013364Y-83026092D01*
X50937950Y-83208160D01*
X50937947Y-83208170D01*
X50899500Y-83401456D01*
X50899500Y-83401459D01*
X50899500Y-83598541D01*
X50899500Y-83598543D01*
X50899499Y-83598543D01*
X50937947Y-83791829D01*
X50937950Y-83791839D01*
X51013364Y-83973907D01*
X51013371Y-83973920D01*
X51122860Y-84137781D01*
X51122863Y-84137785D01*
X51163180Y-84178101D01*
X51196666Y-84239424D01*
X51199500Y-84265783D01*
X51199500Y-85375500D01*
X51179815Y-85442539D01*
X51127011Y-85488294D01*
X51075501Y-85499500D01*
X50852130Y-85499500D01*
X50852123Y-85499501D01*
X50792516Y-85505908D01*
X50657671Y-85556202D01*
X50657664Y-85556206D01*
X50542455Y-85642452D01*
X50542452Y-85642455D01*
X50456206Y-85757664D01*
X50456202Y-85757671D01*
X50405908Y-85892517D01*
X50399501Y-85952116D01*
X50399501Y-85952123D01*
X50399500Y-85952135D01*
X28500500Y-85952135D01*
X28500500Y-45003051D01*
X28500649Y-44996967D01*
X28509023Y-44826500D01*
X28517052Y-44663068D01*
X28518245Y-44650962D01*
X28536653Y-44526863D01*
X28566849Y-44323296D01*
X28569218Y-44311385D01*
X28649710Y-43990043D01*
X28653232Y-43978431D01*
X28674643Y-43918592D01*
X30173500Y-43918592D01*
X30173500Y-44081407D01*
X30205259Y-44241073D01*
X30205262Y-44241082D01*
X30267562Y-44391490D01*
X30267563Y-44391492D01*
X30358015Y-44526862D01*
X30358018Y-44526866D01*
X30473133Y-44641981D01*
X30473137Y-44641984D01*
X30608505Y-44732435D01*
X30608506Y-44732435D01*
X30608507Y-44732436D01*
X30608509Y-44732437D01*
X30708781Y-44773970D01*
X30758919Y-44794738D01*
X30758921Y-44794738D01*
X30758926Y-44794740D01*
X30918592Y-44826499D01*
X30918595Y-44826500D01*
X30918597Y-44826500D01*
X31081405Y-44826500D01*
X31081406Y-44826499D01*
X31134629Y-44815912D01*
X31241073Y-44794740D01*
X31241076Y-44794738D01*
X31241081Y-44794738D01*
X31391495Y-44732435D01*
X31526863Y-44641984D01*
X31641984Y-44526863D01*
X31732435Y-44391495D01*
X31794738Y-44241081D01*
X31826500Y-44081403D01*
X31826500Y-43918597D01*
X31826500Y-43918594D01*
X31826499Y-43918592D01*
X31794740Y-43758926D01*
X31794737Y-43758917D01*
X31732437Y-43608509D01*
X31732436Y-43608507D01*
X31641984Y-43473137D01*
X31641981Y-43473133D01*
X31526866Y-43358018D01*
X31526862Y-43358015D01*
X31391492Y-43267563D01*
X31391490Y-43267562D01*
X31241082Y-43205262D01*
X31241073Y-43205259D01*
X31081406Y-43173500D01*
X31081403Y-43173500D01*
X30918597Y-43173500D01*
X30918594Y-43173500D01*
X30758926Y-43205259D01*
X30758917Y-43205262D01*
X30608509Y-43267562D01*
X30608507Y-43267563D01*
X30473137Y-43358015D01*
X30473133Y-43358018D01*
X30358018Y-43473133D01*
X30358015Y-43473137D01*
X30267563Y-43608507D01*
X30267562Y-43608509D01*
X30205262Y-43758917D01*
X30205259Y-43758926D01*
X30173500Y-43918592D01*
X28674643Y-43918592D01*
X28764835Y-43666525D01*
X28769476Y-43655318D01*
X28911124Y-43355828D01*
X28916840Y-43345136D01*
X29087145Y-43060998D01*
X29093888Y-43050905D01*
X29291232Y-42784818D01*
X29298935Y-42775433D01*
X29521405Y-42529975D01*
X29529975Y-42521405D01*
X29775433Y-42298935D01*
X29784818Y-42291232D01*
X30050905Y-42093888D01*
X30060998Y-42087145D01*
X30345136Y-41916840D01*
X30355828Y-41911124D01*
X30655318Y-41769476D01*
X30666525Y-41764835D01*
X30978412Y-41653239D01*
X30990043Y-41649710D01*
X31311385Y-41569218D01*
X31323296Y-41566849D01*
X31650962Y-41518244D01*
X31663068Y-41517052D01*
X31996967Y-41500648D01*
X32003051Y-41500500D01*
X32065892Y-41500500D01*
X115934108Y-41500500D01*
X115996949Y-41500500D01*
X116003032Y-41500648D01*
G37*
%TD.AperFunction*%
%TD*%
M02*
