%TF.GenerationSoftware,KiCad,Pcbnew,8.0.7*%
%TF.CreationDate,2025-01-09T19:46:48-05:00*%
%TF.ProjectId,nametag,6e616d65-7461-4672-9e6b-696361645f70,rev?*%
%TF.SameCoordinates,Original*%
%TF.FileFunction,Legend,Top*%
%TF.FilePolarity,Positive*%
%FSLAX46Y46*%
G04 Gerber Fmt 4.6, Leading zero omitted, Abs format (unit mm)*
G04 Created by KiCad (PCBNEW 8.0.7) date 2025-01-09 19:46:48*
%MOMM*%
%LPD*%
G01*
G04 APERTURE LIST*
%ADD10C,0.300000*%
%ADD11C,1.700000*%
%ADD12C,0.150000*%
%ADD13C,0.120000*%
%ADD14C,0.000000*%
G04 APERTURE END LIST*
D10*
X43149748Y-47837775D02*
X43149748Y-42837775D01*
X43149748Y-45218727D02*
X45435463Y-45218727D01*
X45435463Y-47837775D02*
X45435463Y-42837775D01*
X48864034Y-47599680D02*
X48483082Y-47837775D01*
X48483082Y-47837775D02*
X47721177Y-47837775D01*
X47721177Y-47837775D02*
X47340224Y-47599680D01*
X47340224Y-47599680D02*
X47149748Y-47123489D01*
X47149748Y-47123489D02*
X47149748Y-45218727D01*
X47149748Y-45218727D02*
X47340224Y-44742537D01*
X47340224Y-44742537D02*
X47721177Y-44504441D01*
X47721177Y-44504441D02*
X48483082Y-44504441D01*
X48483082Y-44504441D02*
X48864034Y-44742537D01*
X48864034Y-44742537D02*
X49054510Y-45218727D01*
X49054510Y-45218727D02*
X49054510Y-45694918D01*
X49054510Y-45694918D02*
X47149748Y-46171108D01*
X51340224Y-47837775D02*
X50959272Y-47599680D01*
X50959272Y-47599680D02*
X50768795Y-47123489D01*
X50768795Y-47123489D02*
X50768795Y-42837775D01*
X53435462Y-47837775D02*
X53054510Y-47599680D01*
X53054510Y-47599680D02*
X52864033Y-47123489D01*
X52864033Y-47123489D02*
X52864033Y-42837775D01*
X55530700Y-47837775D02*
X55149748Y-47599680D01*
X55149748Y-47599680D02*
X54959271Y-47361584D01*
X54959271Y-47361584D02*
X54768795Y-46885394D01*
X54768795Y-46885394D02*
X54768795Y-45456822D01*
X54768795Y-45456822D02*
X54959271Y-44980632D01*
X54959271Y-44980632D02*
X55149748Y-44742537D01*
X55149748Y-44742537D02*
X55530700Y-44504441D01*
X55530700Y-44504441D02*
X56102129Y-44504441D01*
X56102129Y-44504441D02*
X56483081Y-44742537D01*
X56483081Y-44742537D02*
X56673557Y-44980632D01*
X56673557Y-44980632D02*
X56864033Y-45456822D01*
X56864033Y-45456822D02*
X56864033Y-46885394D01*
X56864033Y-46885394D02*
X56673557Y-47361584D01*
X56673557Y-47361584D02*
X56483081Y-47599680D01*
X56483081Y-47599680D02*
X56102129Y-47837775D01*
X56102129Y-47837775D02*
X55530700Y-47837775D01*
X58768796Y-47599680D02*
X58768796Y-47837775D01*
X58768796Y-47837775D02*
X58578319Y-48313965D01*
X58578319Y-48313965D02*
X58387843Y-48552060D01*
X63530700Y-47837775D02*
X63530700Y-42837775D01*
X63530700Y-42837775D02*
X64864034Y-46409203D01*
X64864034Y-46409203D02*
X66197367Y-42837775D01*
X66197367Y-42837775D02*
X66197367Y-47837775D01*
X67721177Y-44504441D02*
X68673558Y-47837775D01*
X69625939Y-44504441D02*
X68673558Y-47837775D01*
X68673558Y-47837775D02*
X68292606Y-49028251D01*
X68292606Y-49028251D02*
X68102129Y-49266346D01*
X68102129Y-49266346D02*
X67721177Y-49504441D01*
X43149748Y-55887495D02*
X43149748Y-50887495D01*
X43149748Y-50887495D02*
X45435463Y-55887495D01*
X45435463Y-55887495D02*
X45435463Y-50887495D01*
X49054510Y-55887495D02*
X49054510Y-53268447D01*
X49054510Y-53268447D02*
X48864034Y-52792257D01*
X48864034Y-52792257D02*
X48483082Y-52554161D01*
X48483082Y-52554161D02*
X47721177Y-52554161D01*
X47721177Y-52554161D02*
X47340224Y-52792257D01*
X49054510Y-55649400D02*
X48673558Y-55887495D01*
X48673558Y-55887495D02*
X47721177Y-55887495D01*
X47721177Y-55887495D02*
X47340224Y-55649400D01*
X47340224Y-55649400D02*
X47149748Y-55173209D01*
X47149748Y-55173209D02*
X47149748Y-54697019D01*
X47149748Y-54697019D02*
X47340224Y-54220828D01*
X47340224Y-54220828D02*
X47721177Y-53982733D01*
X47721177Y-53982733D02*
X48673558Y-53982733D01*
X48673558Y-53982733D02*
X49054510Y-53744638D01*
X50959272Y-55887495D02*
X50959272Y-52554161D01*
X50959272Y-53030352D02*
X51149749Y-52792257D01*
X51149749Y-52792257D02*
X51530701Y-52554161D01*
X51530701Y-52554161D02*
X52102130Y-52554161D01*
X52102130Y-52554161D02*
X52483082Y-52792257D01*
X52483082Y-52792257D02*
X52673558Y-53268447D01*
X52673558Y-53268447D02*
X52673558Y-55887495D01*
X52673558Y-53268447D02*
X52864034Y-52792257D01*
X52864034Y-52792257D02*
X53244987Y-52554161D01*
X53244987Y-52554161D02*
X53816415Y-52554161D01*
X53816415Y-52554161D02*
X54197368Y-52792257D01*
X54197368Y-52792257D02*
X54387844Y-53268447D01*
X54387844Y-53268447D02*
X54387844Y-55887495D01*
X57816415Y-55649400D02*
X57435463Y-55887495D01*
X57435463Y-55887495D02*
X56673558Y-55887495D01*
X56673558Y-55887495D02*
X56292605Y-55649400D01*
X56292605Y-55649400D02*
X56102129Y-55173209D01*
X56102129Y-55173209D02*
X56102129Y-53268447D01*
X56102129Y-53268447D02*
X56292605Y-52792257D01*
X56292605Y-52792257D02*
X56673558Y-52554161D01*
X56673558Y-52554161D02*
X57435463Y-52554161D01*
X57435463Y-52554161D02*
X57816415Y-52792257D01*
X57816415Y-52792257D02*
X58006891Y-53268447D01*
X58006891Y-53268447D02*
X58006891Y-53744638D01*
X58006891Y-53744638D02*
X56102129Y-54220828D01*
X62768795Y-55887495D02*
X62768795Y-50887495D01*
X64483081Y-55649400D02*
X64864034Y-55887495D01*
X64864034Y-55887495D02*
X65625938Y-55887495D01*
X65625938Y-55887495D02*
X66006891Y-55649400D01*
X66006891Y-55649400D02*
X66197367Y-55173209D01*
X66197367Y-55173209D02*
X66197367Y-54935114D01*
X66197367Y-54935114D02*
X66006891Y-54458923D01*
X66006891Y-54458923D02*
X65625938Y-54220828D01*
X65625938Y-54220828D02*
X65054510Y-54220828D01*
X65054510Y-54220828D02*
X64673557Y-53982733D01*
X64673557Y-53982733D02*
X64483081Y-53506542D01*
X64483081Y-53506542D02*
X64483081Y-53268447D01*
X64483081Y-53268447D02*
X64673557Y-52792257D01*
X64673557Y-52792257D02*
X65054510Y-52554161D01*
X65054510Y-52554161D02*
X65625938Y-52554161D01*
X65625938Y-52554161D02*
X66006891Y-52792257D01*
D11*
X51023182Y-59715409D02*
X49785087Y-58953504D01*
X49785087Y-58953504D02*
X47927944Y-58953504D01*
X47927944Y-58953504D02*
X46070801Y-59715409D01*
X46070801Y-59715409D02*
X44832706Y-61239219D01*
X44832706Y-61239219D02*
X44213659Y-62763028D01*
X44213659Y-62763028D02*
X43594611Y-65810647D01*
X43594611Y-65810647D02*
X43594611Y-68096361D01*
X43594611Y-68096361D02*
X44213659Y-71143980D01*
X44213659Y-71143980D02*
X44832706Y-72667790D01*
X44832706Y-72667790D02*
X46070801Y-74191600D01*
X46070801Y-74191600D02*
X47927944Y-74953504D01*
X47927944Y-74953504D02*
X49166040Y-74953504D01*
X49166040Y-74953504D02*
X51023182Y-74191600D01*
X51023182Y-74191600D02*
X51642230Y-73429695D01*
X51642230Y-73429695D02*
X51642230Y-68096361D01*
X51642230Y-68096361D02*
X49166040Y-68096361D01*
X62166040Y-74191600D02*
X60927944Y-74953504D01*
X60927944Y-74953504D02*
X58451754Y-74953504D01*
X58451754Y-74953504D02*
X57213659Y-74191600D01*
X57213659Y-74191600D02*
X56594611Y-72667790D01*
X56594611Y-72667790D02*
X56594611Y-66572552D01*
X56594611Y-66572552D02*
X57213659Y-65048742D01*
X57213659Y-65048742D02*
X58451754Y-64286838D01*
X58451754Y-64286838D02*
X60927944Y-64286838D01*
X60927944Y-64286838D02*
X62166040Y-65048742D01*
X62166040Y-65048742D02*
X62785087Y-66572552D01*
X62785087Y-66572552D02*
X62785087Y-68096361D01*
X62785087Y-68096361D02*
X56594611Y-69620171D01*
X73927944Y-74953504D02*
X73927944Y-66572552D01*
X73927944Y-66572552D02*
X73308897Y-65048742D01*
X73308897Y-65048742D02*
X72070801Y-64286838D01*
X72070801Y-64286838D02*
X69594611Y-64286838D01*
X69594611Y-64286838D02*
X68356516Y-65048742D01*
X73927944Y-74191600D02*
X72689849Y-74953504D01*
X72689849Y-74953504D02*
X69594611Y-74953504D01*
X69594611Y-74953504D02*
X68356516Y-74191600D01*
X68356516Y-74191600D02*
X67737468Y-72667790D01*
X67737468Y-72667790D02*
X67737468Y-71143980D01*
X67737468Y-71143980D02*
X68356516Y-69620171D01*
X68356516Y-69620171D02*
X69594611Y-68858266D01*
X69594611Y-68858266D02*
X72689849Y-68858266D01*
X72689849Y-68858266D02*
X73927944Y-68096361D01*
D12*
X63429580Y-89279166D02*
X63477200Y-89326785D01*
X63477200Y-89326785D02*
X63524819Y-89469642D01*
X63524819Y-89469642D02*
X63524819Y-89564880D01*
X63524819Y-89564880D02*
X63477200Y-89707737D01*
X63477200Y-89707737D02*
X63381961Y-89802975D01*
X63381961Y-89802975D02*
X63286723Y-89850594D01*
X63286723Y-89850594D02*
X63096247Y-89898213D01*
X63096247Y-89898213D02*
X62953390Y-89898213D01*
X62953390Y-89898213D02*
X62762914Y-89850594D01*
X62762914Y-89850594D02*
X62667676Y-89802975D01*
X62667676Y-89802975D02*
X62572438Y-89707737D01*
X62572438Y-89707737D02*
X62524819Y-89564880D01*
X62524819Y-89564880D02*
X62524819Y-89469642D01*
X62524819Y-89469642D02*
X62572438Y-89326785D01*
X62572438Y-89326785D02*
X62620057Y-89279166D01*
X62620057Y-88898213D02*
X62572438Y-88850594D01*
X62572438Y-88850594D02*
X62524819Y-88755356D01*
X62524819Y-88755356D02*
X62524819Y-88517261D01*
X62524819Y-88517261D02*
X62572438Y-88422023D01*
X62572438Y-88422023D02*
X62620057Y-88374404D01*
X62620057Y-88374404D02*
X62715295Y-88326785D01*
X62715295Y-88326785D02*
X62810533Y-88326785D01*
X62810533Y-88326785D02*
X62953390Y-88374404D01*
X62953390Y-88374404D02*
X63524819Y-88945832D01*
X63524819Y-88945832D02*
X63524819Y-88326785D01*
X68875595Y-83254819D02*
X68875595Y-84064342D01*
X68875595Y-84064342D02*
X68923214Y-84159580D01*
X68923214Y-84159580D02*
X68970833Y-84207200D01*
X68970833Y-84207200D02*
X69066071Y-84254819D01*
X69066071Y-84254819D02*
X69256547Y-84254819D01*
X69256547Y-84254819D02*
X69351785Y-84207200D01*
X69351785Y-84207200D02*
X69399404Y-84159580D01*
X69399404Y-84159580D02*
X69447023Y-84064342D01*
X69447023Y-84064342D02*
X69447023Y-83254819D01*
X70447023Y-84254819D02*
X69875595Y-84254819D01*
X70161309Y-84254819D02*
X70161309Y-83254819D01*
X70161309Y-83254819D02*
X70066071Y-83397676D01*
X70066071Y-83397676D02*
X69970833Y-83492914D01*
X69970833Y-83492914D02*
X69875595Y-83540533D01*
X80986333Y-86179819D02*
X80653000Y-85703628D01*
X80414905Y-86179819D02*
X80414905Y-85179819D01*
X80414905Y-85179819D02*
X80795857Y-85179819D01*
X80795857Y-85179819D02*
X80891095Y-85227438D01*
X80891095Y-85227438D02*
X80938714Y-85275057D01*
X80938714Y-85275057D02*
X80986333Y-85370295D01*
X80986333Y-85370295D02*
X80986333Y-85513152D01*
X80986333Y-85513152D02*
X80938714Y-85608390D01*
X80938714Y-85608390D02*
X80891095Y-85656009D01*
X80891095Y-85656009D02*
X80795857Y-85703628D01*
X80795857Y-85703628D02*
X80414905Y-85703628D01*
X81891095Y-85179819D02*
X81414905Y-85179819D01*
X81414905Y-85179819D02*
X81367286Y-85656009D01*
X81367286Y-85656009D02*
X81414905Y-85608390D01*
X81414905Y-85608390D02*
X81510143Y-85560771D01*
X81510143Y-85560771D02*
X81748238Y-85560771D01*
X81748238Y-85560771D02*
X81843476Y-85608390D01*
X81843476Y-85608390D02*
X81891095Y-85656009D01*
X81891095Y-85656009D02*
X81938714Y-85751247D01*
X81938714Y-85751247D02*
X81938714Y-85989342D01*
X81938714Y-85989342D02*
X81891095Y-86084580D01*
X81891095Y-86084580D02*
X81843476Y-86132200D01*
X81843476Y-86132200D02*
X81748238Y-86179819D01*
X81748238Y-86179819D02*
X81510143Y-86179819D01*
X81510143Y-86179819D02*
X81414905Y-86132200D01*
X81414905Y-86132200D02*
X81367286Y-86084580D01*
X55727695Y-86513619D02*
X55727695Y-87323142D01*
X55727695Y-87323142D02*
X55775314Y-87418380D01*
X55775314Y-87418380D02*
X55822933Y-87466000D01*
X55822933Y-87466000D02*
X55918171Y-87513619D01*
X55918171Y-87513619D02*
X56108647Y-87513619D01*
X56108647Y-87513619D02*
X56203885Y-87466000D01*
X56203885Y-87466000D02*
X56251504Y-87418380D01*
X56251504Y-87418380D02*
X56299123Y-87323142D01*
X56299123Y-87323142D02*
X56299123Y-86513619D01*
X56680076Y-86513619D02*
X57299123Y-86513619D01*
X57299123Y-86513619D02*
X56965790Y-86894571D01*
X56965790Y-86894571D02*
X57108647Y-86894571D01*
X57108647Y-86894571D02*
X57203885Y-86942190D01*
X57203885Y-86942190D02*
X57251504Y-86989809D01*
X57251504Y-86989809D02*
X57299123Y-87085047D01*
X57299123Y-87085047D02*
X57299123Y-87323142D01*
X57299123Y-87323142D02*
X57251504Y-87418380D01*
X57251504Y-87418380D02*
X57203885Y-87466000D01*
X57203885Y-87466000D02*
X57108647Y-87513619D01*
X57108647Y-87513619D02*
X56822933Y-87513619D01*
X56822933Y-87513619D02*
X56727695Y-87466000D01*
X56727695Y-87466000D02*
X56680076Y-87418380D01*
X53173333Y-93359580D02*
X53125714Y-93407200D01*
X53125714Y-93407200D02*
X52982857Y-93454819D01*
X52982857Y-93454819D02*
X52887619Y-93454819D01*
X52887619Y-93454819D02*
X52744762Y-93407200D01*
X52744762Y-93407200D02*
X52649524Y-93311961D01*
X52649524Y-93311961D02*
X52601905Y-93216723D01*
X52601905Y-93216723D02*
X52554286Y-93026247D01*
X52554286Y-93026247D02*
X52554286Y-92883390D01*
X52554286Y-92883390D02*
X52601905Y-92692914D01*
X52601905Y-92692914D02*
X52649524Y-92597676D01*
X52649524Y-92597676D02*
X52744762Y-92502438D01*
X52744762Y-92502438D02*
X52887619Y-92454819D01*
X52887619Y-92454819D02*
X52982857Y-92454819D01*
X52982857Y-92454819D02*
X53125714Y-92502438D01*
X53125714Y-92502438D02*
X53173333Y-92550057D01*
X54125714Y-93454819D02*
X53554286Y-93454819D01*
X53840000Y-93454819D02*
X53840000Y-92454819D01*
X53840000Y-92454819D02*
X53744762Y-92597676D01*
X53744762Y-92597676D02*
X53649524Y-92692914D01*
X53649524Y-92692914D02*
X53554286Y-92740533D01*
X80986333Y-89481819D02*
X80653000Y-89005628D01*
X80414905Y-89481819D02*
X80414905Y-88481819D01*
X80414905Y-88481819D02*
X80795857Y-88481819D01*
X80795857Y-88481819D02*
X80891095Y-88529438D01*
X80891095Y-88529438D02*
X80938714Y-88577057D01*
X80938714Y-88577057D02*
X80986333Y-88672295D01*
X80986333Y-88672295D02*
X80986333Y-88815152D01*
X80986333Y-88815152D02*
X80938714Y-88910390D01*
X80938714Y-88910390D02*
X80891095Y-88958009D01*
X80891095Y-88958009D02*
X80795857Y-89005628D01*
X80795857Y-89005628D02*
X80414905Y-89005628D01*
X81557762Y-88910390D02*
X81462524Y-88862771D01*
X81462524Y-88862771D02*
X81414905Y-88815152D01*
X81414905Y-88815152D02*
X81367286Y-88719914D01*
X81367286Y-88719914D02*
X81367286Y-88672295D01*
X81367286Y-88672295D02*
X81414905Y-88577057D01*
X81414905Y-88577057D02*
X81462524Y-88529438D01*
X81462524Y-88529438D02*
X81557762Y-88481819D01*
X81557762Y-88481819D02*
X81748238Y-88481819D01*
X81748238Y-88481819D02*
X81843476Y-88529438D01*
X81843476Y-88529438D02*
X81891095Y-88577057D01*
X81891095Y-88577057D02*
X81938714Y-88672295D01*
X81938714Y-88672295D02*
X81938714Y-88719914D01*
X81938714Y-88719914D02*
X81891095Y-88815152D01*
X81891095Y-88815152D02*
X81843476Y-88862771D01*
X81843476Y-88862771D02*
X81748238Y-88910390D01*
X81748238Y-88910390D02*
X81557762Y-88910390D01*
X81557762Y-88910390D02*
X81462524Y-88958009D01*
X81462524Y-88958009D02*
X81414905Y-89005628D01*
X81414905Y-89005628D02*
X81367286Y-89100866D01*
X81367286Y-89100866D02*
X81367286Y-89291342D01*
X81367286Y-89291342D02*
X81414905Y-89386580D01*
X81414905Y-89386580D02*
X81462524Y-89434200D01*
X81462524Y-89434200D02*
X81557762Y-89481819D01*
X81557762Y-89481819D02*
X81748238Y-89481819D01*
X81748238Y-89481819D02*
X81843476Y-89434200D01*
X81843476Y-89434200D02*
X81891095Y-89386580D01*
X81891095Y-89386580D02*
X81938714Y-89291342D01*
X81938714Y-89291342D02*
X81938714Y-89100866D01*
X81938714Y-89100866D02*
X81891095Y-89005628D01*
X81891095Y-89005628D02*
X81843476Y-88958009D01*
X81843476Y-88958009D02*
X81748238Y-88910390D01*
X44640667Y-92609200D02*
X44783524Y-92656819D01*
X44783524Y-92656819D02*
X45021619Y-92656819D01*
X45021619Y-92656819D02*
X45116857Y-92609200D01*
X45116857Y-92609200D02*
X45164476Y-92561580D01*
X45164476Y-92561580D02*
X45212095Y-92466342D01*
X45212095Y-92466342D02*
X45212095Y-92371104D01*
X45212095Y-92371104D02*
X45164476Y-92275866D01*
X45164476Y-92275866D02*
X45116857Y-92228247D01*
X45116857Y-92228247D02*
X45021619Y-92180628D01*
X45021619Y-92180628D02*
X44831143Y-92133009D01*
X44831143Y-92133009D02*
X44735905Y-92085390D01*
X44735905Y-92085390D02*
X44688286Y-92037771D01*
X44688286Y-92037771D02*
X44640667Y-91942533D01*
X44640667Y-91942533D02*
X44640667Y-91847295D01*
X44640667Y-91847295D02*
X44688286Y-91752057D01*
X44688286Y-91752057D02*
X44735905Y-91704438D01*
X44735905Y-91704438D02*
X44831143Y-91656819D01*
X44831143Y-91656819D02*
X45069238Y-91656819D01*
X45069238Y-91656819D02*
X45212095Y-91704438D01*
X45545429Y-91656819D02*
X45783524Y-92656819D01*
X45783524Y-92656819D02*
X45974000Y-91942533D01*
X45974000Y-91942533D02*
X46164476Y-92656819D01*
X46164476Y-92656819D02*
X46402572Y-91656819D01*
X47307333Y-92656819D02*
X46735905Y-92656819D01*
X47021619Y-92656819D02*
X47021619Y-91656819D01*
X47021619Y-91656819D02*
X46926381Y-91799676D01*
X46926381Y-91799676D02*
X46831143Y-91894914D01*
X46831143Y-91894914D02*
X46735905Y-91942533D01*
X54428819Y-87406666D02*
X54428819Y-87882856D01*
X54428819Y-87882856D02*
X53428819Y-87882856D01*
X54428819Y-86549523D02*
X54428819Y-87120951D01*
X54428819Y-86835237D02*
X53428819Y-86835237D01*
X53428819Y-86835237D02*
X53571676Y-86930475D01*
X53571676Y-86930475D02*
X53666914Y-87025713D01*
X53666914Y-87025713D02*
X53714533Y-87120951D01*
X80986333Y-82496819D02*
X80653000Y-82020628D01*
X80414905Y-82496819D02*
X80414905Y-81496819D01*
X80414905Y-81496819D02*
X80795857Y-81496819D01*
X80795857Y-81496819D02*
X80891095Y-81544438D01*
X80891095Y-81544438D02*
X80938714Y-81592057D01*
X80938714Y-81592057D02*
X80986333Y-81687295D01*
X80986333Y-81687295D02*
X80986333Y-81830152D01*
X80986333Y-81830152D02*
X80938714Y-81925390D01*
X80938714Y-81925390D02*
X80891095Y-81973009D01*
X80891095Y-81973009D02*
X80795857Y-82020628D01*
X80795857Y-82020628D02*
X80414905Y-82020628D01*
X81843476Y-81496819D02*
X81653000Y-81496819D01*
X81653000Y-81496819D02*
X81557762Y-81544438D01*
X81557762Y-81544438D02*
X81510143Y-81592057D01*
X81510143Y-81592057D02*
X81414905Y-81734914D01*
X81414905Y-81734914D02*
X81367286Y-81925390D01*
X81367286Y-81925390D02*
X81367286Y-82306342D01*
X81367286Y-82306342D02*
X81414905Y-82401580D01*
X81414905Y-82401580D02*
X81462524Y-82449200D01*
X81462524Y-82449200D02*
X81557762Y-82496819D01*
X81557762Y-82496819D02*
X81748238Y-82496819D01*
X81748238Y-82496819D02*
X81843476Y-82449200D01*
X81843476Y-82449200D02*
X81891095Y-82401580D01*
X81891095Y-82401580D02*
X81938714Y-82306342D01*
X81938714Y-82306342D02*
X81938714Y-82068247D01*
X81938714Y-82068247D02*
X81891095Y-81973009D01*
X81891095Y-81973009D02*
X81843476Y-81925390D01*
X81843476Y-81925390D02*
X81748238Y-81877771D01*
X81748238Y-81877771D02*
X81557762Y-81877771D01*
X81557762Y-81877771D02*
X81462524Y-81925390D01*
X81462524Y-81925390D02*
X81414905Y-81973009D01*
X81414905Y-81973009D02*
X81367286Y-82068247D01*
X80986333Y-87830819D02*
X80653000Y-87354628D01*
X80414905Y-87830819D02*
X80414905Y-86830819D01*
X80414905Y-86830819D02*
X80795857Y-86830819D01*
X80795857Y-86830819D02*
X80891095Y-86878438D01*
X80891095Y-86878438D02*
X80938714Y-86926057D01*
X80938714Y-86926057D02*
X80986333Y-87021295D01*
X80986333Y-87021295D02*
X80986333Y-87164152D01*
X80986333Y-87164152D02*
X80938714Y-87259390D01*
X80938714Y-87259390D02*
X80891095Y-87307009D01*
X80891095Y-87307009D02*
X80795857Y-87354628D01*
X80795857Y-87354628D02*
X80414905Y-87354628D01*
X81319667Y-86830819D02*
X81986333Y-86830819D01*
X81986333Y-86830819D02*
X81557762Y-87830819D01*
X75525333Y-77924819D02*
X75192000Y-77448628D01*
X74953905Y-77924819D02*
X74953905Y-76924819D01*
X74953905Y-76924819D02*
X75334857Y-76924819D01*
X75334857Y-76924819D02*
X75430095Y-76972438D01*
X75430095Y-76972438D02*
X75477714Y-77020057D01*
X75477714Y-77020057D02*
X75525333Y-77115295D01*
X75525333Y-77115295D02*
X75525333Y-77258152D01*
X75525333Y-77258152D02*
X75477714Y-77353390D01*
X75477714Y-77353390D02*
X75430095Y-77401009D01*
X75430095Y-77401009D02*
X75334857Y-77448628D01*
X75334857Y-77448628D02*
X74953905Y-77448628D01*
X76477714Y-77924819D02*
X75906286Y-77924819D01*
X76192000Y-77924819D02*
X76192000Y-76924819D01*
X76192000Y-76924819D02*
X76096762Y-77067676D01*
X76096762Y-77067676D02*
X76001524Y-77162914D01*
X76001524Y-77162914D02*
X75906286Y-77210533D01*
X75525333Y-79956819D02*
X75192000Y-79480628D01*
X74953905Y-79956819D02*
X74953905Y-78956819D01*
X74953905Y-78956819D02*
X75334857Y-78956819D01*
X75334857Y-78956819D02*
X75430095Y-79004438D01*
X75430095Y-79004438D02*
X75477714Y-79052057D01*
X75477714Y-79052057D02*
X75525333Y-79147295D01*
X75525333Y-79147295D02*
X75525333Y-79290152D01*
X75525333Y-79290152D02*
X75477714Y-79385390D01*
X75477714Y-79385390D02*
X75430095Y-79433009D01*
X75430095Y-79433009D02*
X75334857Y-79480628D01*
X75334857Y-79480628D02*
X74953905Y-79480628D01*
X75906286Y-79052057D02*
X75953905Y-79004438D01*
X75953905Y-79004438D02*
X76049143Y-78956819D01*
X76049143Y-78956819D02*
X76287238Y-78956819D01*
X76287238Y-78956819D02*
X76382476Y-79004438D01*
X76382476Y-79004438D02*
X76430095Y-79052057D01*
X76430095Y-79052057D02*
X76477714Y-79147295D01*
X76477714Y-79147295D02*
X76477714Y-79242533D01*
X76477714Y-79242533D02*
X76430095Y-79385390D01*
X76430095Y-79385390D02*
X75858667Y-79956819D01*
X75858667Y-79956819D02*
X76477714Y-79956819D01*
X80939333Y-91386819D02*
X80606000Y-90910628D01*
X80367905Y-91386819D02*
X80367905Y-90386819D01*
X80367905Y-90386819D02*
X80748857Y-90386819D01*
X80748857Y-90386819D02*
X80844095Y-90434438D01*
X80844095Y-90434438D02*
X80891714Y-90482057D01*
X80891714Y-90482057D02*
X80939333Y-90577295D01*
X80939333Y-90577295D02*
X80939333Y-90720152D01*
X80939333Y-90720152D02*
X80891714Y-90815390D01*
X80891714Y-90815390D02*
X80844095Y-90863009D01*
X80844095Y-90863009D02*
X80748857Y-90910628D01*
X80748857Y-90910628D02*
X80367905Y-90910628D01*
X81796476Y-90720152D02*
X81796476Y-91386819D01*
X81558381Y-90339200D02*
X81320286Y-91053485D01*
X81320286Y-91053485D02*
X81939333Y-91053485D01*
X80986333Y-84401819D02*
X80653000Y-83925628D01*
X80414905Y-84401819D02*
X80414905Y-83401819D01*
X80414905Y-83401819D02*
X80795857Y-83401819D01*
X80795857Y-83401819D02*
X80891095Y-83449438D01*
X80891095Y-83449438D02*
X80938714Y-83497057D01*
X80938714Y-83497057D02*
X80986333Y-83592295D01*
X80986333Y-83592295D02*
X80986333Y-83735152D01*
X80986333Y-83735152D02*
X80938714Y-83830390D01*
X80938714Y-83830390D02*
X80891095Y-83878009D01*
X80891095Y-83878009D02*
X80795857Y-83925628D01*
X80795857Y-83925628D02*
X80414905Y-83925628D01*
X81319667Y-83401819D02*
X81938714Y-83401819D01*
X81938714Y-83401819D02*
X81605381Y-83782771D01*
X81605381Y-83782771D02*
X81748238Y-83782771D01*
X81748238Y-83782771D02*
X81843476Y-83830390D01*
X81843476Y-83830390D02*
X81891095Y-83878009D01*
X81891095Y-83878009D02*
X81938714Y-83973247D01*
X81938714Y-83973247D02*
X81938714Y-84211342D01*
X81938714Y-84211342D02*
X81891095Y-84306580D01*
X81891095Y-84306580D02*
X81843476Y-84354200D01*
X81843476Y-84354200D02*
X81748238Y-84401819D01*
X81748238Y-84401819D02*
X81462524Y-84401819D01*
X81462524Y-84401819D02*
X81367286Y-84354200D01*
X81367286Y-84354200D02*
X81319667Y-84306580D01*
D13*
%TO.C,C2*%
X63990000Y-89258767D02*
X63990000Y-88966233D01*
X65010000Y-89258767D02*
X65010000Y-88966233D01*
%TO.C,U1*%
X69637500Y-84615000D02*
X67437500Y-84615000D01*
X69637500Y-84615000D02*
X71837500Y-84615000D01*
X69637500Y-91385000D02*
X67437500Y-91385000D01*
X69637500Y-91385000D02*
X71837500Y-91385000D01*
X65777500Y-85075000D02*
X65447500Y-85315000D01*
X65447500Y-84835000D01*
X65777500Y-85075000D01*
G36*
X65777500Y-85075000D02*
G01*
X65447500Y-85315000D01*
X65447500Y-84835000D01*
X65777500Y-85075000D01*
G37*
%TO.C,D8*%
X111276005Y-67350788D02*
X112713882Y-67656419D01*
X111787468Y-64944545D02*
X111276005Y-67350788D01*
X112713882Y-67656419D02*
X113225345Y-65250176D01*
%TO.C,R5*%
X78127776Y-85075500D02*
X78637224Y-85075500D01*
X78127776Y-86120500D02*
X78637224Y-86120500D01*
%TO.C,D16*%
X92275092Y-72344326D02*
X94586736Y-73185696D01*
X94586736Y-73185696D02*
X95089506Y-71804347D01*
X95089506Y-71804347D02*
X92777862Y-70962978D01*
%TO.C,D1*%
X78189055Y-47536418D02*
X78700518Y-49942661D01*
X78700518Y-49942661D02*
X80138395Y-49637031D01*
X80138395Y-49637031D02*
X79626932Y-47230788D01*
%TO.C,U3*%
X56489600Y-87898800D02*
X55689600Y-87898800D01*
X56489600Y-87898800D02*
X57289600Y-87898800D01*
X56489600Y-91018800D02*
X55689600Y-91018800D01*
X56489600Y-91018800D02*
X57289600Y-91018800D01*
X55189600Y-87948800D02*
X54949600Y-87618800D01*
X55429600Y-87618800D01*
X55189600Y-87948800D01*
G36*
X55189600Y-87948800D02*
G01*
X54949600Y-87618800D01*
X55429600Y-87618800D01*
X55189600Y-87948800D01*
G37*
%TO.C,D9*%
X104551238Y-57524209D02*
X106290721Y-55784726D01*
X105251274Y-54745279D02*
X103511791Y-56484762D01*
X106290721Y-55784726D02*
X105251274Y-54745279D01*
%TO.C,D7*%
X112800005Y-61127788D02*
X114237882Y-61433419D01*
X113311468Y-58721545D02*
X112800005Y-61127788D01*
X114237882Y-61433419D02*
X114749345Y-59027176D01*
%TO.C,D13*%
X107130205Y-83380546D02*
X108075104Y-84506630D01*
X108075104Y-84506630D02*
X109959574Y-82925373D01*
X109014675Y-81799287D02*
X107130205Y-83380546D01*
%TO.C,C1*%
X56635867Y-92606400D02*
X56343333Y-92606400D01*
X56635867Y-93626400D02*
X56343333Y-93626400D01*
%TO.C,D10*%
X95876000Y-86260000D02*
X95876000Y-87730000D01*
X95876000Y-87730000D02*
X98336000Y-87730000D01*
X98336000Y-86260000D02*
X95876000Y-86260000D01*
%TO.C,D6*%
X114070005Y-55412788D02*
X115507882Y-55718419D01*
X114581468Y-53006545D02*
X114070005Y-55412788D01*
X115507882Y-55718419D02*
X116019345Y-53312176D01*
%TO.C,D5*%
X115471128Y-49527709D02*
X116909005Y-49833340D01*
X115982591Y-47121466D02*
X115471128Y-49527709D01*
X116909005Y-49833340D02*
X117420468Y-47427097D01*
%TO.C,R8*%
X78127776Y-88631500D02*
X78637224Y-88631500D01*
X78127776Y-89676500D02*
X78637224Y-89676500D01*
%TO.C,SW1*%
X42688000Y-84162000D02*
X42688000Y-88662000D01*
X45188000Y-89912000D02*
X46688000Y-89912000D01*
X46688000Y-82912000D02*
X45188000Y-82912000D01*
X49188000Y-88662000D02*
X49188000Y-84162000D01*
%TO.C,D12*%
X86608863Y-65631555D02*
X89059502Y-65845959D01*
X89059502Y-65845959D02*
X89187621Y-64381552D01*
X89187621Y-64381552D02*
X86736983Y-64167150D01*
%TO.C,D3*%
X81084655Y-59408176D02*
X81596118Y-61814419D01*
X81596118Y-61814419D02*
X83033995Y-61508789D01*
X83033995Y-61508789D02*
X82522532Y-59102546D01*
%TO.C,D4*%
X82498809Y-65367218D02*
X83010272Y-67773461D01*
X83010272Y-67773461D02*
X84448149Y-67467831D01*
X84448149Y-67467831D02*
X83936686Y-65061588D01*
%TO.C,D2*%
X79704809Y-53693176D02*
X80216272Y-56099419D01*
X80216272Y-56099419D02*
X81654149Y-55793789D01*
X81654149Y-55793789D02*
X81142686Y-53387546D01*
%TO.C,L1*%
X51614000Y-86978748D02*
X51614000Y-87501252D01*
X53034000Y-86978748D02*
X53034000Y-87501252D01*
%TO.C,R6*%
X78127776Y-81519500D02*
X78637224Y-81519500D01*
X78127776Y-82564500D02*
X78637224Y-82564500D01*
%TO.C,D14*%
X84961628Y-82499576D02*
X86846097Y-84080833D01*
X85906526Y-81373491D02*
X84961628Y-82499576D01*
X87790996Y-82954749D02*
X85906526Y-81373491D01*
%TO.C,R7*%
X78080776Y-86853500D02*
X78590224Y-86853500D01*
X78080776Y-87898500D02*
X78590224Y-87898500D01*
%TO.C,D11*%
X105793078Y-65911694D02*
X108215705Y-65484520D01*
X107960442Y-64036852D02*
X105537815Y-64464027D01*
X108215705Y-65484520D02*
X107960442Y-64036852D01*
D14*
%TO.C,G\u002A\u002A\u002A*%
G36*
X115572277Y-45456709D02*
G01*
X115749221Y-45480279D01*
X115981560Y-45523621D01*
X116279400Y-45587531D01*
X116652846Y-45672806D01*
X116988831Y-45751309D01*
X117353702Y-45837450D01*
X117692259Y-45918336D01*
X117992124Y-45990936D01*
X118240916Y-46052217D01*
X118426257Y-46099148D01*
X118535768Y-46128695D01*
X118556481Y-46135308D01*
X118702835Y-46238794D01*
X118795993Y-46403672D01*
X118820624Y-46558552D01*
X118809759Y-46619708D01*
X118777812Y-46770133D01*
X118725755Y-47005634D01*
X118654560Y-47322017D01*
X118565199Y-47715088D01*
X118458642Y-48180653D01*
X118335863Y-48714518D01*
X118197832Y-49312490D01*
X118045522Y-49970373D01*
X117879905Y-50683975D01*
X117701951Y-51449102D01*
X117512634Y-52261559D01*
X117312924Y-53117153D01*
X117103794Y-54011689D01*
X116886215Y-54940974D01*
X116661158Y-55900814D01*
X116429597Y-56887015D01*
X116275822Y-57541182D01*
X116040754Y-58541026D01*
X115811548Y-59516534D01*
X115589172Y-60463556D01*
X115374595Y-61377946D01*
X115168788Y-62255555D01*
X114972719Y-63092234D01*
X114787357Y-63883836D01*
X114613671Y-64626212D01*
X114452632Y-65315214D01*
X114305207Y-65946694D01*
X114172366Y-66516504D01*
X114055079Y-67020496D01*
X113954314Y-67454521D01*
X113871041Y-67814431D01*
X113806229Y-68096078D01*
X113760847Y-68295314D01*
X113735864Y-68407990D01*
X113731021Y-68432970D01*
X113771038Y-68503190D01*
X113827102Y-68534402D01*
X113874560Y-68551793D01*
X113912235Y-68576052D01*
X113939035Y-68614808D01*
X113953870Y-68675687D01*
X113955649Y-68766318D01*
X113943282Y-68894328D01*
X113915677Y-69067345D01*
X113871744Y-69292998D01*
X113810392Y-69578913D01*
X113730530Y-69932720D01*
X113631068Y-70362044D01*
X113510915Y-70874516D01*
X113463884Y-71074457D01*
X112913447Y-73413723D01*
X113030902Y-73806946D01*
X113244372Y-74685946D01*
X113364140Y-75573643D01*
X113391582Y-76465264D01*
X113328076Y-77356040D01*
X113175002Y-78241199D01*
X112933736Y-79115971D01*
X112605657Y-79975584D01*
X112192142Y-80815267D01*
X111694571Y-81630250D01*
X111114319Y-82415762D01*
X110452767Y-83167031D01*
X110274917Y-83348858D01*
X109438185Y-84119569D01*
X108531454Y-84827766D01*
X107559235Y-85471518D01*
X106526036Y-86048895D01*
X105436368Y-86557966D01*
X104294741Y-86996800D01*
X103105663Y-87363467D01*
X101873646Y-87656036D01*
X100603197Y-87872576D01*
X99403538Y-88003048D01*
X99181331Y-88016141D01*
X98884846Y-88026840D01*
X98534312Y-88035030D01*
X98149959Y-88040597D01*
X97752016Y-88043428D01*
X97360712Y-88043407D01*
X96996276Y-88040422D01*
X96678938Y-88034357D01*
X96428926Y-88025099D01*
X96349546Y-88020280D01*
X95133067Y-87896930D01*
X93947243Y-87704942D01*
X92795908Y-87447003D01*
X91982027Y-87212125D01*
X93996805Y-87212125D01*
X94041962Y-87230653D01*
X94167277Y-87258032D01*
X94357519Y-87292043D01*
X94597458Y-87330464D01*
X94871862Y-87371075D01*
X95165499Y-87411657D01*
X95463140Y-87449988D01*
X95749551Y-87483849D01*
X96009503Y-87511018D01*
X96109471Y-87520101D01*
X96376893Y-87537141D01*
X96718774Y-87550030D01*
X97113760Y-87558750D01*
X97540497Y-87563283D01*
X97977631Y-87563610D01*
X98403808Y-87559715D01*
X98797675Y-87551577D01*
X99137876Y-87539181D01*
X99398507Y-87522892D01*
X99802448Y-87484180D01*
X100233924Y-87434712D01*
X100660398Y-87378706D01*
X101049336Y-87320377D01*
X101309655Y-87275239D01*
X101466053Y-87240926D01*
X101544052Y-87207732D01*
X101560742Y-87166581D01*
X101553921Y-87145501D01*
X101491120Y-86990131D01*
X101424817Y-86803983D01*
X101364217Y-86615890D01*
X101318527Y-86454680D01*
X101296951Y-86349184D01*
X101296343Y-86338826D01*
X101278485Y-86243869D01*
X101253628Y-86207992D01*
X101199939Y-86203731D01*
X101057926Y-86199590D01*
X100835295Y-86195634D01*
X100539754Y-86191929D01*
X100179007Y-86188540D01*
X99760763Y-86185529D01*
X99292726Y-86182964D01*
X98782604Y-86180907D01*
X98238103Y-86179425D01*
X97762795Y-86178674D01*
X94313438Y-86174988D01*
X94254825Y-86462331D01*
X94203421Y-86666910D01*
X94136301Y-86874703D01*
X94096509Y-86975071D01*
X94040012Y-87104859D01*
X94003876Y-87191840D01*
X93996805Y-87212125D01*
X91982027Y-87212125D01*
X91682894Y-87125798D01*
X90612034Y-86744011D01*
X89587162Y-86304330D01*
X88612111Y-85809440D01*
X87690714Y-85262025D01*
X86826804Y-84664773D01*
X86024214Y-84020367D01*
X85286777Y-83331494D01*
X84618326Y-82600840D01*
X84022694Y-81831089D01*
X83503715Y-81024929D01*
X83065221Y-80185043D01*
X82711045Y-79314118D01*
X82445021Y-78414839D01*
X82407167Y-78251839D01*
X82250259Y-77334360D01*
X82189162Y-76420275D01*
X82194846Y-76271118D01*
X82665236Y-76271118D01*
X82712535Y-77167768D01*
X82852715Y-78050518D01*
X83083205Y-78915971D01*
X83401432Y-79760727D01*
X83804825Y-80581388D01*
X84290810Y-81374557D01*
X84856816Y-82136836D01*
X85500269Y-82864826D01*
X86218599Y-83555129D01*
X87009232Y-84204348D01*
X87869596Y-84809083D01*
X88797119Y-85365937D01*
X89789228Y-85871512D01*
X90008912Y-85972371D01*
X90467694Y-86179064D01*
X90551640Y-86071470D01*
X90610011Y-85970211D01*
X90679112Y-85812680D01*
X90737550Y-85651777D01*
X90805850Y-85349451D01*
X90838997Y-84989067D01*
X90836999Y-84601930D01*
X90799864Y-84219345D01*
X90737096Y-83907379D01*
X90543517Y-83311644D01*
X90279250Y-82707481D01*
X90045963Y-82273997D01*
X89803663Y-81827620D01*
X89628105Y-81422521D01*
X89513420Y-81037137D01*
X89453737Y-80649905D01*
X89443185Y-80239260D01*
X89448029Y-80130778D01*
X89688433Y-80130778D01*
X89691558Y-80587188D01*
X89754641Y-81005151D01*
X89884654Y-81413687D01*
X90088569Y-81841814D01*
X90108089Y-81877427D01*
X90382580Y-82391539D01*
X90603025Y-82846412D01*
X90775353Y-83257805D01*
X90905494Y-83641478D01*
X90999375Y-84013189D01*
X91062927Y-84388700D01*
X91068110Y-84429223D01*
X91091631Y-84813620D01*
X91071546Y-85200756D01*
X91011688Y-85566621D01*
X90915890Y-85887203D01*
X90797501Y-86124271D01*
X90756164Y-86218124D01*
X90763318Y-86276002D01*
X90835089Y-86314904D01*
X90983559Y-86375362D01*
X91193224Y-86452097D01*
X91448578Y-86539830D01*
X91734117Y-86633284D01*
X92034334Y-86727180D01*
X92333725Y-86816239D01*
X92436314Y-86845535D01*
X92773412Y-86940256D01*
X93031646Y-87011542D01*
X93224439Y-87062512D01*
X93365213Y-87096283D01*
X93467391Y-87115972D01*
X93544396Y-87124698D01*
X93609650Y-87125579D01*
X93636692Y-87124365D01*
X93721150Y-87109859D01*
X93781995Y-87063482D01*
X93838593Y-86963558D01*
X93889515Y-86841426D01*
X93955878Y-86649006D01*
X94008655Y-86452161D01*
X94028083Y-86349271D01*
X94057873Y-86131928D01*
X93659821Y-86131928D01*
X93261769Y-86131928D01*
X93276005Y-85647737D01*
X93756730Y-85647737D01*
X94128847Y-85664102D01*
X94236085Y-85666838D01*
X94431063Y-85669679D01*
X94705489Y-85672574D01*
X95051072Y-85675470D01*
X95459522Y-85678315D01*
X95922547Y-85681054D01*
X96431856Y-85683638D01*
X96979160Y-85686011D01*
X97556165Y-85688123D01*
X98154583Y-85689920D01*
X98234140Y-85690129D01*
X101967316Y-85699792D01*
X101966894Y-85183629D01*
X101948943Y-84462768D01*
X101898329Y-83699148D01*
X101818217Y-82916458D01*
X101711770Y-82138384D01*
X101582154Y-81388613D01*
X101432532Y-80690832D01*
X101298109Y-80177444D01*
X101060236Y-79441424D01*
X100790642Y-78769876D01*
X100492341Y-78165996D01*
X100168351Y-77632983D01*
X99821687Y-77174033D01*
X99455365Y-76792342D01*
X99072401Y-76491108D01*
X98675811Y-76273527D01*
X98268610Y-76142797D01*
X97853815Y-76102114D01*
X97491126Y-76142037D01*
X97168882Y-76233513D01*
X96869435Y-76374500D01*
X96573482Y-76576634D01*
X96261719Y-76851552D01*
X96179026Y-76933039D01*
X95992382Y-77128045D01*
X95812957Y-77329035D01*
X95662141Y-77511264D01*
X95567351Y-77640608D01*
X95168931Y-78330007D01*
X94819480Y-79101352D01*
X94519258Y-79953828D01*
X94268526Y-80886622D01*
X94067543Y-81898919D01*
X93950871Y-82699730D01*
X93906833Y-83084555D01*
X93865361Y-83508366D01*
X93828190Y-83947693D01*
X93797056Y-84379066D01*
X93773695Y-84779015D01*
X93759842Y-85124070D01*
X93756730Y-85324836D01*
X93756730Y-85647737D01*
X93276005Y-85647737D01*
X93285498Y-85324836D01*
X93290355Y-85159622D01*
X93302917Y-84803862D01*
X93319878Y-84425125D01*
X93339602Y-84054677D01*
X93360448Y-83723787D01*
X93376942Y-83507283D01*
X93434943Y-82827250D01*
X93258245Y-82586539D01*
X93100727Y-82340721D01*
X92948229Y-82048269D01*
X92817475Y-81745466D01*
X92725189Y-81468592D01*
X92705811Y-81388071D01*
X92656039Y-80923033D01*
X92699901Y-80446415D01*
X92837670Y-79957315D01*
X93069620Y-79454829D01*
X93396023Y-78938053D01*
X93482179Y-78820158D01*
X93616185Y-78631567D01*
X93729393Y-78454493D01*
X93807541Y-78312277D01*
X93834232Y-78243976D01*
X93862060Y-78037965D01*
X93860191Y-77773642D01*
X93827890Y-77442066D01*
X93764425Y-77034294D01*
X93711966Y-76753840D01*
X93619467Y-76207283D01*
X93573249Y-75732402D01*
X93574741Y-75315961D01*
X93625370Y-74944726D01*
X93726562Y-74605462D01*
X93879745Y-74284933D01*
X93998802Y-74093734D01*
X94073559Y-73967318D01*
X94110668Y-73871996D01*
X94107739Y-73837726D01*
X94046668Y-73807763D01*
X93899479Y-73750001D01*
X93671396Y-73666285D01*
X93367640Y-73558463D01*
X92993433Y-73428382D01*
X92553998Y-73277888D01*
X92054556Y-73108829D01*
X91895046Y-73055185D01*
X91161718Y-72808907D01*
X91042774Y-72952365D01*
X90841066Y-73231278D01*
X90657185Y-73550213D01*
X90516858Y-73863527D01*
X90495924Y-73922568D01*
X90430639Y-74157497D01*
X90397054Y-74392464D01*
X90396705Y-74643103D01*
X90431126Y-74925045D01*
X90501852Y-75253923D01*
X90610418Y-75645369D01*
X90690527Y-75904707D01*
X90798478Y-76306847D01*
X90857105Y-76671045D01*
X90864735Y-76982413D01*
X90833851Y-77180345D01*
X90785080Y-77308256D01*
X90698996Y-77486856D01*
X90590498Y-77686236D01*
X90534836Y-77780534D01*
X90257153Y-78261902D01*
X90042056Y-78693496D01*
X89883339Y-79092546D01*
X89774798Y-79476283D01*
X89710227Y-79861936D01*
X89688433Y-80130778D01*
X89448029Y-80130778D01*
X89450070Y-80085071D01*
X89495628Y-79658324D01*
X89583506Y-79248951D01*
X89720402Y-78837779D01*
X89913015Y-78405633D01*
X90168043Y-77933340D01*
X90251305Y-77791700D01*
X90407876Y-77520509D01*
X90522121Y-77291341D01*
X90595334Y-77085313D01*
X90628810Y-76883544D01*
X90623841Y-76667152D01*
X90581722Y-76417255D01*
X90503747Y-76114970D01*
X90391687Y-75742953D01*
X90250841Y-75216530D01*
X90177573Y-74746621D01*
X90173518Y-74319933D01*
X90240312Y-73923170D01*
X90379590Y-73543039D01*
X90592987Y-73166245D01*
X90732969Y-72968307D01*
X90925390Y-72712219D01*
X90576504Y-72597353D01*
X90407893Y-72540631D01*
X90278638Y-72494878D01*
X90212480Y-72468550D01*
X90208989Y-72466429D01*
X90208817Y-72414979D01*
X90231179Y-72309424D01*
X90266060Y-72184747D01*
X90303442Y-72075928D01*
X90333310Y-72017948D01*
X90338110Y-72015482D01*
X90385864Y-72030608D01*
X90514049Y-72073619D01*
X90712357Y-72140961D01*
X90970480Y-72229083D01*
X91278111Y-72334431D01*
X91624942Y-72453454D01*
X92000664Y-72582599D01*
X92394970Y-72718314D01*
X92797553Y-72857046D01*
X93198103Y-72995242D01*
X93586314Y-73129351D01*
X93951878Y-73255819D01*
X94284486Y-73371094D01*
X94573831Y-73471625D01*
X94809605Y-73553858D01*
X94981501Y-73614240D01*
X95079209Y-73649220D01*
X95086928Y-73652094D01*
X95148515Y-73680833D01*
X95169222Y-73723160D01*
X95152328Y-73807147D01*
X95117399Y-73913058D01*
X95063769Y-74037271D01*
X95010924Y-74107565D01*
X94987579Y-74114145D01*
X94914248Y-74088866D01*
X94782977Y-74044930D01*
X94673915Y-74008884D01*
X94414729Y-73923649D01*
X94325250Y-74037902D01*
X94115501Y-74343818D01*
X93961778Y-74661240D01*
X93862381Y-75002638D01*
X93815609Y-75380477D01*
X93819759Y-75807227D01*
X93873130Y-76295354D01*
X93954030Y-76758262D01*
X94041578Y-77256473D01*
X94090281Y-77671569D01*
X94100345Y-78008165D01*
X94071976Y-78270878D01*
X94027872Y-78416863D01*
X93965172Y-78535068D01*
X93860168Y-78701525D01*
X93730331Y-78889323D01*
X93653844Y-78993044D01*
X93324112Y-79484921D01*
X93088885Y-79964313D01*
X92947689Y-80432912D01*
X92900052Y-80892410D01*
X92945499Y-81344499D01*
X92968268Y-81444429D01*
X93019691Y-81607749D01*
X93095455Y-81799047D01*
X93184844Y-81996472D01*
X93277142Y-82178173D01*
X93361635Y-82322300D01*
X93427606Y-82407003D01*
X93446367Y-82419337D01*
X93471347Y-82381104D01*
X93505254Y-82265586D01*
X93543665Y-82090594D01*
X93582153Y-81873940D01*
X93582688Y-81870594D01*
X93742539Y-81022857D01*
X93944247Y-80212245D01*
X94184394Y-79446321D01*
X94459562Y-78732650D01*
X94766333Y-78078795D01*
X95101290Y-77492321D01*
X95461014Y-76980791D01*
X95842087Y-76551771D01*
X96085087Y-76332569D01*
X96535317Y-76015835D01*
X96996459Y-75792478D01*
X97464498Y-75662780D01*
X97935421Y-75627026D01*
X98405215Y-75685499D01*
X98869866Y-75838484D01*
X99325360Y-76086264D01*
X99348797Y-76101798D01*
X99798818Y-76457532D01*
X100220407Y-76902508D01*
X100611810Y-77433719D01*
X100971278Y-78048158D01*
X101297057Y-78742818D01*
X101587396Y-79514692D01*
X101840544Y-80360772D01*
X101849347Y-80394121D01*
X101926085Y-80705565D01*
X102006203Y-81062936D01*
X102079053Y-81417160D01*
X102124213Y-81661041D01*
X102235073Y-82303765D01*
X102388085Y-82016686D01*
X102573998Y-81579253D01*
X102667623Y-81135806D01*
X102668610Y-80684121D01*
X102576606Y-80221979D01*
X102391262Y-79747158D01*
X102112226Y-79257438D01*
X101905741Y-78963593D01*
X101768523Y-78771439D01*
X101649047Y-78587511D01*
X101562805Y-78436582D01*
X101530365Y-78363404D01*
X101485212Y-78135672D01*
X101478016Y-77836359D01*
X101509053Y-77460798D01*
X101578599Y-77004323D01*
X101625112Y-76758262D01*
X101720203Y-76201601D01*
X101767924Y-75723982D01*
X101768518Y-75321051D01*
X101723145Y-74992420D01*
X101656430Y-74782216D01*
X101551752Y-74537575D01*
X101427950Y-74297481D01*
X101303864Y-74100917D01*
X101272672Y-74060263D01*
X101158915Y-73920355D01*
X100873970Y-74024251D01*
X100721904Y-74078275D01*
X100608698Y-74115846D01*
X100562457Y-74128147D01*
X100532962Y-74087018D01*
X100487729Y-73982373D01*
X100461574Y-73910046D01*
X100438800Y-73838832D01*
X101472261Y-73838832D01*
X101475184Y-73894813D01*
X101523930Y-74000993D01*
X101579050Y-74090551D01*
X101765191Y-74407532D01*
X101898242Y-74735569D01*
X101979627Y-75087832D01*
X102010767Y-75477491D01*
X101993085Y-75917716D01*
X101928003Y-76421677D01*
X101867159Y-76758262D01*
X101789728Y-77169870D01*
X101737417Y-77503931D01*
X101711956Y-77776035D01*
X101715077Y-78001771D01*
X101748510Y-78196732D01*
X101813984Y-78376506D01*
X101913231Y-78556686D01*
X102047981Y-78752860D01*
X102095693Y-78817304D01*
X102443420Y-79337119D01*
X102696835Y-79841903D01*
X102856283Y-80332797D01*
X102922110Y-80810943D01*
X102894663Y-81277484D01*
X102874189Y-81388071D01*
X102814108Y-81598514D01*
X102718508Y-81852434D01*
X102603016Y-82113938D01*
X102483258Y-82347137D01*
X102394604Y-82489587D01*
X102351646Y-82553654D01*
X102323907Y-82615351D01*
X102310229Y-82693590D01*
X102309454Y-82807282D01*
X102320425Y-82975339D01*
X102341985Y-83216673D01*
X102346892Y-83269251D01*
X102365715Y-83509094D01*
X102384738Y-83820038D01*
X102402740Y-84177163D01*
X102418498Y-84555551D01*
X102430791Y-84930282D01*
X102433654Y-85039584D01*
X102461538Y-86179943D01*
X101998359Y-86179943D01*
X101783965Y-86181520D01*
X101648018Y-86188550D01*
X101572957Y-86204483D01*
X101541219Y-86232767D01*
X101535180Y-86270916D01*
X101552382Y-86386331D01*
X101596621Y-86555900D01*
X101656843Y-86745625D01*
X101721995Y-86921506D01*
X101781024Y-87049545D01*
X101796314Y-87074153D01*
X101840223Y-87128052D01*
X101891226Y-87151772D01*
X101975826Y-87147611D01*
X102120524Y-87117869D01*
X102169848Y-87106555D01*
X102345950Y-87063996D01*
X102579296Y-87004930D01*
X102834558Y-86938395D01*
X102999641Y-86894302D01*
X103310893Y-86806058D01*
X103648463Y-86703378D01*
X103986165Y-86594806D01*
X104297811Y-86488886D01*
X104557215Y-86394162D01*
X104668358Y-86349837D01*
X104805197Y-86276429D01*
X104846461Y-86210384D01*
X104803316Y-86157857D01*
X104750494Y-86086160D01*
X104688405Y-85942984D01*
X104624442Y-85751424D01*
X104565998Y-85534575D01*
X104520467Y-85315531D01*
X104507865Y-85234925D01*
X104479272Y-84813907D01*
X104510035Y-84372797D01*
X104602397Y-83903781D01*
X104758603Y-83399045D01*
X104980896Y-82850774D01*
X105271520Y-82251156D01*
X105471911Y-81877427D01*
X105708507Y-81360685D01*
X105852079Y-80833515D01*
X105902476Y-80294431D01*
X105859547Y-79741947D01*
X105723141Y-79174577D01*
X105493108Y-78590834D01*
X105169296Y-77989231D01*
X105059192Y-77813329D01*
X104903794Y-77551270D01*
X104795226Y-77309069D01*
X104732560Y-77069458D01*
X104714867Y-76815168D01*
X104741219Y-76528931D01*
X104810689Y-76193479D01*
X104922348Y-75791541D01*
X104946289Y-75712646D01*
X105074409Y-75249811D01*
X105151693Y-74852184D01*
X105177922Y-74503366D01*
X105152880Y-74186961D01*
X105076349Y-73886571D01*
X104948112Y-73585797D01*
X104917308Y-73526167D01*
X104810549Y-73341858D01*
X104690727Y-73161762D01*
X104572183Y-73004595D01*
X104469259Y-72889075D01*
X104396296Y-72833919D01*
X104385234Y-72831739D01*
X104324420Y-72846980D01*
X104187120Y-72889595D01*
X103986818Y-72954923D01*
X103736997Y-73038302D01*
X103451139Y-73135070D01*
X103142728Y-73240567D01*
X102825246Y-73350131D01*
X102512178Y-73459101D01*
X102217005Y-73562814D01*
X101953211Y-73656610D01*
X101734279Y-73735827D01*
X101573693Y-73795803D01*
X101484934Y-73831878D01*
X101472261Y-73838832D01*
X100438800Y-73838832D01*
X100419376Y-73778096D01*
X100412647Y-73708436D01*
X100444845Y-73672819D01*
X100493072Y-73652767D01*
X100621345Y-73606514D01*
X100819636Y-73536630D01*
X101077733Y-73446604D01*
X101385423Y-73339928D01*
X101732496Y-73220093D01*
X102108739Y-73090590D01*
X102503941Y-72954910D01*
X102907890Y-72816545D01*
X103310373Y-72678986D01*
X103701180Y-72545723D01*
X104070098Y-72420247D01*
X104406916Y-72306051D01*
X104701421Y-72206625D01*
X104943403Y-72125461D01*
X105122649Y-72066048D01*
X105228947Y-72031879D01*
X105254650Y-72024910D01*
X105282461Y-72087715D01*
X105320570Y-72201184D01*
X105355930Y-72322830D01*
X105375494Y-72410168D01*
X105376389Y-72421325D01*
X105334037Y-72461807D01*
X105222253Y-72517492D01*
X105063947Y-72577223D01*
X105040283Y-72584981D01*
X104877592Y-72643019D01*
X104758230Y-72696348D01*
X104705043Y-72734562D01*
X104704178Y-72738062D01*
X104731327Y-72798111D01*
X104801405Y-72906201D01*
X104870369Y-73000616D01*
X105045516Y-73267348D01*
X105204285Y-73576780D01*
X105327356Y-73888000D01*
X105381448Y-74082803D01*
X105420467Y-74433712D01*
X105397076Y-74837988D01*
X105310546Y-75301894D01*
X105188312Y-75742953D01*
X105074548Y-76124074D01*
X104996871Y-76433477D01*
X104955764Y-76688631D01*
X104951709Y-76907003D01*
X104985188Y-77106062D01*
X105056684Y-77303277D01*
X105166678Y-77516114D01*
X105240711Y-77641161D01*
X105540339Y-78163184D01*
X105772400Y-78638722D01*
X105942577Y-79083387D01*
X106056557Y-79512790D01*
X106120023Y-79942541D01*
X106130733Y-80085071D01*
X106138246Y-80461497D01*
X106110402Y-80806951D01*
X106041602Y-81141351D01*
X105926250Y-81484616D01*
X105758747Y-81856663D01*
X105533495Y-82277410D01*
X105496270Y-82342664D01*
X105179286Y-82956342D01*
X104949284Y-83544329D01*
X104803585Y-84115323D01*
X104739511Y-84678026D01*
X104735993Y-84811512D01*
X104752517Y-85171962D01*
X104805709Y-85510480D01*
X104890378Y-85805001D01*
X105001331Y-86033461D01*
X105034555Y-86080231D01*
X105125274Y-86196587D01*
X106103100Y-85712067D01*
X107127550Y-85160322D01*
X108076322Y-84558368D01*
X108947632Y-83907894D01*
X109739699Y-83210590D01*
X110450740Y-82468146D01*
X111078974Y-81682249D01*
X111622618Y-80854590D01*
X112028200Y-80096036D01*
X112366023Y-79292483D01*
X112626839Y-78453194D01*
X112806480Y-77596142D01*
X112900782Y-76739298D01*
X112914764Y-76271118D01*
X112908129Y-76043449D01*
X112890016Y-75766591D01*
X112863110Y-75465368D01*
X112830096Y-75164600D01*
X112793661Y-74889107D01*
X112756489Y-74663713D01*
X112726430Y-74530441D01*
X112687146Y-74392231D01*
X112656005Y-74512268D01*
X112639943Y-74578483D01*
X112603811Y-74730190D01*
X112549493Y-74959393D01*
X112478878Y-75258099D01*
X112393851Y-75618313D01*
X112296298Y-76032040D01*
X112188107Y-76491286D01*
X112071164Y-76988056D01*
X111947356Y-77514356D01*
X111880851Y-77797208D01*
X111754108Y-78334006D01*
X111632625Y-78844009D01*
X111518331Y-79319398D01*
X111413157Y-79752355D01*
X111319033Y-80135062D01*
X111237889Y-80459699D01*
X111171656Y-80718449D01*
X111122265Y-80903493D01*
X111091645Y-81007013D01*
X111083627Y-81026225D01*
X110993191Y-81083021D01*
X110949851Y-81090340D01*
X110887411Y-81079585D01*
X110741529Y-81048829D01*
X110522175Y-81000340D01*
X110239322Y-80936383D01*
X109902940Y-80859225D01*
X109523000Y-80771132D01*
X109109474Y-80674371D01*
X108831061Y-80608767D01*
X108323049Y-80488214D01*
X107900863Y-80386479D01*
X107556686Y-80301098D01*
X107282701Y-80229610D01*
X107071090Y-80169553D01*
X106914037Y-80118463D01*
X106803725Y-80073878D01*
X106732337Y-80033336D01*
X106692056Y-79994374D01*
X106675065Y-79954530D01*
X106672798Y-79928871D01*
X106683620Y-79874433D01*
X106715029Y-79733298D01*
X106715850Y-79729698D01*
X107216756Y-79729698D01*
X107264155Y-79742928D01*
X107392454Y-79775114D01*
X107589065Y-79823263D01*
X107841398Y-79884379D01*
X108136866Y-79955470D01*
X108462880Y-80033541D01*
X108806852Y-80115598D01*
X109156193Y-80198648D01*
X109498315Y-80279695D01*
X109820631Y-80355746D01*
X110110550Y-80423808D01*
X110355486Y-80480885D01*
X110542850Y-80523985D01*
X110660053Y-80550112D01*
X110694064Y-80556747D01*
X110749798Y-80543876D01*
X110754083Y-80533740D01*
X110764857Y-80484302D01*
X110796291Y-80347070D01*
X110847058Y-80127731D01*
X110915826Y-79831970D01*
X111001267Y-79465471D01*
X111102052Y-79033921D01*
X111216850Y-78543005D01*
X111344334Y-77998408D01*
X111483172Y-77405816D01*
X111632036Y-76770914D01*
X111789597Y-76099387D01*
X111954524Y-75396921D01*
X112102221Y-74768218D01*
X112272347Y-74043039D01*
X112435915Y-73343475D01*
X112591616Y-72675244D01*
X112738139Y-72044068D01*
X112874177Y-71455666D01*
X112998419Y-70915758D01*
X113109555Y-70430065D01*
X113206277Y-70004305D01*
X113287275Y-69644200D01*
X113351240Y-69355469D01*
X113396862Y-69143833D01*
X113422831Y-69015011D01*
X113428448Y-68974818D01*
X113378802Y-68952250D01*
X113248194Y-68911947D01*
X113049301Y-68856930D01*
X112794803Y-68790223D01*
X112497378Y-68714847D01*
X112169704Y-68633825D01*
X111824460Y-68550178D01*
X111474323Y-68466930D01*
X111131973Y-68387101D01*
X110810087Y-68313715D01*
X110521344Y-68249793D01*
X110278422Y-68198358D01*
X110094000Y-68162432D01*
X109980756Y-68145037D01*
X109950363Y-68145730D01*
X109936588Y-68194374D01*
X109902583Y-68329488D01*
X109849967Y-68544207D01*
X109780362Y-68831664D01*
X109695388Y-69184993D01*
X109596664Y-69597330D01*
X109485811Y-70061807D01*
X109364450Y-70571559D01*
X109234200Y-71119720D01*
X109096681Y-71699424D01*
X108953515Y-72303806D01*
X108806320Y-72925998D01*
X108656718Y-73559136D01*
X108506329Y-74196354D01*
X108356772Y-74830785D01*
X108209668Y-75455564D01*
X108066638Y-76063825D01*
X107929301Y-76648701D01*
X107799278Y-77203328D01*
X107678189Y-77720838D01*
X107567654Y-78194367D01*
X107469294Y-78617048D01*
X107384728Y-78982015D01*
X107315577Y-79282403D01*
X107263461Y-79511346D01*
X107230000Y-79661977D01*
X107216815Y-79727431D01*
X107216756Y-79729698D01*
X106715850Y-79729698D01*
X106765436Y-79512205D01*
X106833253Y-79217890D01*
X106916891Y-78857093D01*
X107014763Y-78436550D01*
X107125279Y-77963000D01*
X107246853Y-77443182D01*
X107377895Y-76883833D01*
X107516817Y-76291690D01*
X107662031Y-75673493D01*
X107811949Y-75035979D01*
X107964982Y-74385886D01*
X108119543Y-73729952D01*
X108274043Y-73074915D01*
X108426893Y-72427513D01*
X108576506Y-71794484D01*
X108721293Y-71182567D01*
X108859666Y-70598498D01*
X108990037Y-70049017D01*
X109110818Y-69540861D01*
X109220419Y-69080768D01*
X109317254Y-68675476D01*
X109399733Y-68331723D01*
X109466268Y-68056247D01*
X109515272Y-67855787D01*
X109545156Y-67737080D01*
X109551228Y-67715570D01*
X110423421Y-67715570D01*
X110473730Y-67731608D01*
X110603322Y-67765684D01*
X110797869Y-67814412D01*
X111043045Y-67874404D01*
X111324521Y-67942276D01*
X111627972Y-68014643D01*
X111939069Y-68088117D01*
X112243485Y-68159313D01*
X112526893Y-68224846D01*
X112774965Y-68281329D01*
X112973375Y-68325378D01*
X113107795Y-68353605D01*
X113161638Y-68362663D01*
X113233222Y-68324766D01*
X113266000Y-68258299D01*
X113481179Y-67347531D01*
X113702533Y-66409457D01*
X113929052Y-65448408D01*
X114159726Y-64468713D01*
X114393546Y-63474703D01*
X114629500Y-62470707D01*
X114866579Y-61461056D01*
X115103773Y-60450080D01*
X115340071Y-59442109D01*
X115574464Y-58441472D01*
X115805941Y-57452501D01*
X116033492Y-56479525D01*
X116256107Y-55526874D01*
X116472776Y-54598878D01*
X116682489Y-53699868D01*
X116884235Y-52834173D01*
X117077005Y-52006124D01*
X117259788Y-51220051D01*
X117431575Y-50480283D01*
X117591354Y-49791152D01*
X117738117Y-49156986D01*
X117870852Y-48582116D01*
X117988550Y-48070872D01*
X118090200Y-47627585D01*
X118174793Y-47256584D01*
X118241318Y-46962199D01*
X118288765Y-46748761D01*
X118316124Y-46620599D01*
X118322752Y-46581757D01*
X118272267Y-46565063D01*
X118143127Y-46530211D01*
X117949319Y-46480562D01*
X117704836Y-46419478D01*
X117423666Y-46350321D01*
X117119798Y-46276453D01*
X116807224Y-46201234D01*
X116499931Y-46128028D01*
X116211911Y-46060196D01*
X115957153Y-46001099D01*
X115749647Y-45954100D01*
X115603382Y-45922560D01*
X115532348Y-45909841D01*
X115527831Y-45910129D01*
X115514897Y-45959377D01*
X115481356Y-46096989D01*
X115428377Y-46317961D01*
X115357134Y-46617290D01*
X115268797Y-46989974D01*
X115164537Y-47431008D01*
X115045524Y-47935392D01*
X114912931Y-48498121D01*
X114767929Y-49114193D01*
X114611688Y-49778604D01*
X114445380Y-50486353D01*
X114270175Y-51232435D01*
X114087246Y-52011849D01*
X113897762Y-52819590D01*
X113702896Y-53650657D01*
X113503818Y-54500046D01*
X113301699Y-55362755D01*
X113097711Y-56233780D01*
X112893025Y-57108118D01*
X112688811Y-57980768D01*
X112486242Y-58846725D01*
X112286487Y-59700987D01*
X112090718Y-60538551D01*
X111900107Y-61354414D01*
X111715824Y-62143573D01*
X111539041Y-62901025D01*
X111370929Y-63621768D01*
X111212658Y-64300798D01*
X111065400Y-64933112D01*
X110930327Y-65513708D01*
X110808608Y-66037583D01*
X110701416Y-66499733D01*
X110609921Y-66895156D01*
X110535295Y-67218849D01*
X110478708Y-67465810D01*
X110441332Y-67631034D01*
X110424339Y-67709519D01*
X110423421Y-67715570D01*
X109551228Y-67715570D01*
X109553894Y-67706125D01*
X109614284Y-67627544D01*
X109724639Y-67599244D01*
X109767829Y-67598091D01*
X109888914Y-67584812D01*
X109946981Y-67533555D01*
X109961579Y-67490057D01*
X110097193Y-66917312D01*
X110212219Y-66430495D01*
X110308131Y-66022073D01*
X110386403Y-65684512D01*
X110448506Y-65410277D01*
X110495914Y-65191834D01*
X110530099Y-65021651D01*
X110552536Y-64892193D01*
X110564696Y-64795925D01*
X110568053Y-64725315D01*
X110564080Y-64672829D01*
X110554249Y-64630932D01*
X110540034Y-64592091D01*
X110532050Y-64572232D01*
X110499710Y-64496155D01*
X110462942Y-64438953D01*
X110407643Y-64396031D01*
X110319708Y-64362792D01*
X110185031Y-64334640D01*
X109989507Y-64306979D01*
X109719032Y-64275213D01*
X109568614Y-64258299D01*
X109238809Y-64229208D01*
X108845958Y-64207275D01*
X108412722Y-64192666D01*
X107961759Y-64185547D01*
X107515728Y-64186083D01*
X107097289Y-64194440D01*
X106729102Y-64210783D01*
X106433825Y-64235277D01*
X106432722Y-64235402D01*
X105338218Y-64392662D01*
X104308072Y-64608253D01*
X103327752Y-64885752D01*
X102382726Y-65228734D01*
X102362662Y-65236864D01*
X101773699Y-65476047D01*
X101464872Y-65121947D01*
X101088048Y-64662384D01*
X100780076Y-64228094D01*
X100543896Y-63824444D01*
X100382452Y-63456800D01*
X100298686Y-63130527D01*
X100286786Y-62973491D01*
X100333217Y-62673224D01*
X100468561Y-62396696D01*
X100686897Y-62152542D01*
X100982303Y-61949396D01*
X100993046Y-61943625D01*
X101183264Y-61852521D01*
X101399730Y-61770427D01*
X101656147Y-61693696D01*
X101966218Y-61618678D01*
X102343650Y-61541726D01*
X102802144Y-61459190D01*
X102831588Y-61454142D01*
X103265603Y-61378161D01*
X103618431Y-61311910D01*
X103904012Y-61251990D01*
X104136288Y-61195006D01*
X104329201Y-61137559D01*
X104496691Y-61076254D01*
X104640754Y-61013319D01*
X104838723Y-60902412D01*
X104991118Y-60770107D01*
X105101215Y-60605221D01*
X105172288Y-60396569D01*
X105207613Y-60132965D01*
X105210464Y-59803226D01*
X105184118Y-59396166D01*
X105166891Y-59216534D01*
X105118378Y-58682421D01*
X105092055Y-58228212D01*
X105089015Y-57840130D01*
X105110350Y-57504394D01*
X105157153Y-57207227D01*
X105230516Y-56934848D01*
X105331532Y-56673480D01*
X105376188Y-56576696D01*
X105623076Y-56171345D01*
X105952749Y-55806116D01*
X106358114Y-55487313D01*
X106832079Y-55221237D01*
X106972073Y-55158753D01*
X107115657Y-55093458D01*
X107215550Y-55039507D01*
X107248160Y-55011526D01*
X107203363Y-54984850D01*
X107077646Y-54957484D01*
X106886097Y-54930755D01*
X106643806Y-54905990D01*
X106365860Y-54884517D01*
X106067349Y-54867664D01*
X105763361Y-54856758D01*
X105468985Y-54853127D01*
X105448412Y-54853183D01*
X105113279Y-54856736D01*
X104850846Y-54865866D01*
X104637849Y-54882601D01*
X104451023Y-54908974D01*
X104267103Y-54947015D01*
X104206611Y-54961602D01*
X103664060Y-55141221D01*
X103176595Y-55397028D01*
X102748609Y-55726610D01*
X102661962Y-55809684D01*
X102552044Y-55920588D01*
X102457668Y-56020732D01*
X102369848Y-56122378D01*
X102279594Y-56237787D01*
X102177920Y-56379221D01*
X102055838Y-56558943D01*
X101904360Y-56789214D01*
X101714498Y-57082295D01*
X101607407Y-57248394D01*
X101314276Y-57672309D01*
X101031837Y-58012331D01*
X100748884Y-58278067D01*
X100454210Y-58479122D01*
X100136609Y-58625103D01*
X99923078Y-58692218D01*
X99646681Y-58741593D01*
X99288007Y-58765814D01*
X98857403Y-58765077D01*
X98365214Y-58739581D01*
X97821787Y-58689523D01*
X97453894Y-58644954D01*
X96846362Y-58566406D01*
X96323607Y-58502666D01*
X95875616Y-58453156D01*
X95492376Y-58417297D01*
X95163874Y-58394511D01*
X94880097Y-58384219D01*
X94631033Y-58385845D01*
X94406668Y-58398808D01*
X94196990Y-58422531D01*
X94039350Y-58447748D01*
X93666066Y-58535865D01*
X93364254Y-58657933D01*
X93112587Y-58823210D01*
X93049441Y-58877369D01*
X92830740Y-59139453D01*
X92675574Y-59472329D01*
X92583999Y-59874731D01*
X92556072Y-60345394D01*
X92591849Y-60883052D01*
X92691387Y-61486439D01*
X92854743Y-62154289D01*
X92896088Y-62298941D01*
X92959553Y-62503531D01*
X93042734Y-62753413D01*
X93140034Y-63033574D01*
X93245853Y-63328999D01*
X93354593Y-63624673D01*
X93460656Y-63905581D01*
X93558442Y-64156710D01*
X93642353Y-64363043D01*
X93706790Y-64509567D01*
X93746155Y-64581266D01*
X93747796Y-64583064D01*
X93771725Y-64547526D01*
X93825387Y-64431600D01*
X93904881Y-64244847D01*
X94006305Y-63996825D01*
X94125758Y-63697095D01*
X94259340Y-63355216D01*
X94403150Y-62980749D01*
X94423773Y-62926542D01*
X94569935Y-62543655D01*
X94707025Y-62187857D01*
X94830981Y-61869446D01*
X94937738Y-61598718D01*
X95023235Y-61385967D01*
X95083407Y-61241491D01*
X95114192Y-61175585D01*
X95115467Y-61173751D01*
X95148616Y-61137669D01*
X95182729Y-61118891D01*
X95221293Y-61123301D01*
X95267799Y-61156789D01*
X95325735Y-61225239D01*
X95398590Y-61334538D01*
X95489853Y-61490573D01*
X95603013Y-61699231D01*
X95741559Y-61966397D01*
X95908979Y-62297960D01*
X96108763Y-62699804D01*
X96344399Y-63177818D01*
X96543320Y-63582858D01*
X96764835Y-64035868D01*
X96973086Y-64464808D01*
X97164273Y-64861645D01*
X97334597Y-65218344D01*
X97480257Y-65526871D01*
X97597455Y-65779193D01*
X97682389Y-65967276D01*
X97731260Y-66083086D01*
X97741985Y-66117163D01*
X97708841Y-66206863D01*
X97670105Y-66236249D01*
X97608780Y-66230474D01*
X97465544Y-66201983D01*
X97251123Y-66153362D01*
X96976244Y-66087196D01*
X96651634Y-66006071D01*
X96288017Y-65912572D01*
X95896122Y-65809285D01*
X95871093Y-65802606D01*
X95476472Y-65697889D01*
X95108461Y-65601507D01*
X94777985Y-65516225D01*
X94495971Y-65444809D01*
X94273345Y-65390024D01*
X94121033Y-65354636D01*
X94049963Y-65341410D01*
X94048762Y-65341380D01*
X93951442Y-65371034D01*
X93915165Y-65406362D01*
X93843285Y-65477406D01*
X93814761Y-65491051D01*
X93781787Y-65537726D01*
X93714044Y-65662496D01*
X93616153Y-65855876D01*
X93492732Y-66108379D01*
X93348400Y-66410520D01*
X93187778Y-66752813D01*
X93015483Y-67125772D01*
X92965479Y-67235060D01*
X92790392Y-67615811D01*
X92625432Y-67969329D01*
X92475268Y-68285997D01*
X92344567Y-68556195D01*
X92237996Y-68770306D01*
X92160223Y-68918712D01*
X92115915Y-68991795D01*
X92110241Y-68997395D01*
X92017776Y-69002827D01*
X91966655Y-68976968D01*
X91929446Y-68920570D01*
X91857839Y-68786695D01*
X91756558Y-68585568D01*
X91630323Y-68327411D01*
X91483860Y-68022449D01*
X91321890Y-67680905D01*
X91149136Y-67313003D01*
X90970321Y-66928967D01*
X90790169Y-66539020D01*
X90613401Y-66153387D01*
X90444740Y-65782290D01*
X90288910Y-65435954D01*
X90150634Y-65124603D01*
X90034634Y-64858460D01*
X89945632Y-64647749D01*
X89897045Y-64524706D01*
X90262407Y-64524706D01*
X90277061Y-64580350D01*
X90330335Y-64716957D01*
X90419666Y-64928742D01*
X90542490Y-65209915D01*
X90696244Y-65554692D01*
X90878364Y-65957283D01*
X91086288Y-66411902D01*
X91317450Y-66912763D01*
X91379218Y-67045917D01*
X91519019Y-67347197D01*
X91650695Y-67631349D01*
X91766994Y-67882694D01*
X91860664Y-68085553D01*
X91924454Y-68224248D01*
X91941815Y-68262289D01*
X91999375Y-68380122D01*
X92040410Y-68447556D01*
X92050858Y-68454350D01*
X92073457Y-68408532D01*
X92131357Y-68285126D01*
X92220039Y-68093929D01*
X92334983Y-67844739D01*
X92471672Y-67547352D01*
X92625587Y-67211566D01*
X92792207Y-66847177D01*
X92796032Y-66838802D01*
X92961715Y-66473767D01*
X93112787Y-66136556D01*
X93244987Y-65837018D01*
X93354055Y-65585002D01*
X93435727Y-65390357D01*
X93485745Y-65262933D01*
X93499845Y-65212578D01*
X93499697Y-65212387D01*
X93445754Y-65193789D01*
X93312162Y-65159351D01*
X93112022Y-65111855D01*
X92858437Y-65054085D01*
X92564509Y-64988824D01*
X92243339Y-64918856D01*
X92126551Y-64893816D01*
X94035399Y-64893816D01*
X94041944Y-64919864D01*
X94076204Y-64948558D01*
X94146871Y-64982723D01*
X94262635Y-65025184D01*
X94432185Y-65078767D01*
X94664211Y-65146298D01*
X94967404Y-65230603D01*
X95350454Y-65334506D01*
X95581304Y-65396476D01*
X96022634Y-65514537D01*
X96379919Y-65609599D01*
X96661846Y-65683627D01*
X96877100Y-65738588D01*
X97034364Y-65776447D01*
X97142325Y-65799169D01*
X97209666Y-65808721D01*
X97245074Y-65807068D01*
X97257232Y-65796176D01*
X97254826Y-65778010D01*
X97253831Y-65775028D01*
X97219835Y-65694708D01*
X97149936Y-65543939D01*
X97049209Y-65332903D01*
X96922729Y-65071779D01*
X96775571Y-64770750D01*
X96612810Y-64439995D01*
X96439522Y-64089697D01*
X96260781Y-63730036D01*
X96081662Y-63371192D01*
X95907241Y-63023347D01*
X95742593Y-62696682D01*
X95592793Y-62401378D01*
X95462915Y-62147616D01*
X95358036Y-61945576D01*
X95283230Y-61805440D01*
X95243572Y-61737388D01*
X95238720Y-61732593D01*
X95214436Y-61784116D01*
X95161425Y-61912984D01*
X95084499Y-62106560D01*
X94988467Y-62352205D01*
X94878142Y-62637281D01*
X94758333Y-62949149D01*
X94633851Y-63275171D01*
X94509508Y-63602710D01*
X94390113Y-63919126D01*
X94280477Y-64211783D01*
X94185412Y-64468040D01*
X94109728Y-64675261D01*
X94058236Y-64820807D01*
X94035746Y-64892039D01*
X94035399Y-64893816D01*
X92126551Y-64893816D01*
X91908031Y-64846964D01*
X91571686Y-64775931D01*
X91247406Y-64708539D01*
X90948295Y-64647574D01*
X90687452Y-64595817D01*
X90477982Y-64556051D01*
X90332986Y-64531061D01*
X90265567Y-64523630D01*
X90262407Y-64524706D01*
X89897045Y-64524706D01*
X89888353Y-64502694D01*
X89867518Y-64433518D01*
X89867505Y-64432845D01*
X89843878Y-64381092D01*
X89765814Y-64338154D01*
X89622532Y-64301116D01*
X89403255Y-64267065D01*
X89147082Y-64238091D01*
X88777468Y-64210125D01*
X88338963Y-64192578D01*
X87858122Y-64185278D01*
X87361499Y-64188052D01*
X86875647Y-64200728D01*
X86427121Y-64223132D01*
X86042476Y-64255092D01*
X86011386Y-64258489D01*
X85702455Y-64293527D01*
X85474845Y-64322413D01*
X85314449Y-64349742D01*
X85207159Y-64380106D01*
X85138870Y-64418100D01*
X85095474Y-64468318D01*
X85062864Y-64535353D01*
X85047949Y-64572232D01*
X85032147Y-64612292D01*
X85020019Y-64651775D01*
X85013038Y-64698217D01*
X85012678Y-64759150D01*
X85020410Y-64842108D01*
X85037709Y-64954626D01*
X85066047Y-65104238D01*
X85106898Y-65298477D01*
X85161733Y-65544876D01*
X85232027Y-65850971D01*
X85319251Y-66224295D01*
X85424880Y-66672381D01*
X85550385Y-67202764D01*
X85618420Y-67490057D01*
X85657033Y-67565824D01*
X85743807Y-67595330D01*
X85812171Y-67598091D01*
X85941913Y-67615522D01*
X86012801Y-67678776D01*
X86026195Y-67706125D01*
X86041492Y-67762582D01*
X86077036Y-67905582D01*
X86131239Y-68128386D01*
X86202514Y-68424258D01*
X86289272Y-68786460D01*
X86389926Y-69208256D01*
X86502889Y-69682908D01*
X86626572Y-70203680D01*
X86759387Y-70763834D01*
X86899747Y-71356633D01*
X87046064Y-71975340D01*
X87196750Y-72613218D01*
X87350218Y-73263530D01*
X87504879Y-73919539D01*
X87659145Y-74574507D01*
X87811430Y-75221698D01*
X87960145Y-75854375D01*
X88103703Y-76465800D01*
X88240514Y-77049236D01*
X88368993Y-77597946D01*
X88487551Y-78105194D01*
X88594600Y-78564242D01*
X88688552Y-78968352D01*
X88767820Y-79310789D01*
X88830816Y-79584814D01*
X88875952Y-79783691D01*
X88901640Y-79900682D01*
X88907202Y-79930384D01*
X88900858Y-79972444D01*
X88876603Y-80011863D01*
X88826599Y-80051112D01*
X88743010Y-80092661D01*
X88618002Y-80138982D01*
X88443736Y-80192546D01*
X88212377Y-80255824D01*
X87916088Y-80331286D01*
X87547034Y-80421405D01*
X87097378Y-80528650D01*
X86749730Y-80610700D01*
X86319913Y-80711457D01*
X85917261Y-80805023D01*
X85551755Y-80889138D01*
X85233377Y-80961544D01*
X84972108Y-81019980D01*
X84777928Y-81062187D01*
X84660818Y-81085906D01*
X84630940Y-81090340D01*
X84530220Y-81055847D01*
X84496373Y-81026225D01*
X84476620Y-80969666D01*
X84437059Y-80827387D01*
X84379621Y-80607209D01*
X84306237Y-80316947D01*
X84218837Y-79964423D01*
X84119352Y-79557453D01*
X84009711Y-79103856D01*
X83891844Y-78611451D01*
X83767683Y-78088057D01*
X83699149Y-77797208D01*
X83572514Y-77258706D01*
X83451764Y-76745574D01*
X83338784Y-76265807D01*
X83235461Y-75827399D01*
X83143682Y-75438345D01*
X83065333Y-75106640D01*
X83002300Y-74840277D01*
X82956471Y-74647252D01*
X82929731Y-74535558D01*
X82923995Y-74512268D01*
X82892854Y-74392231D01*
X82853570Y-74530441D01*
X82817875Y-74694005D01*
X82780642Y-74928685D01*
X82744556Y-75209660D01*
X82712304Y-75512108D01*
X82686571Y-75811209D01*
X82670043Y-76082140D01*
X82665236Y-76271118D01*
X82194846Y-76271118D01*
X82223925Y-75508058D01*
X82354594Y-74596183D01*
X82547287Y-73798611D01*
X82662631Y-73397052D01*
X82114155Y-71066121D01*
X81986754Y-70523808D01*
X81880428Y-70067291D01*
X81794086Y-69688929D01*
X81726638Y-69381080D01*
X81676993Y-69136102D01*
X81649055Y-68975126D01*
X82151736Y-68975126D01*
X82159699Y-69028164D01*
X82188445Y-69168936D01*
X82236666Y-69391722D01*
X82303052Y-69690800D01*
X82386294Y-70060451D01*
X82485082Y-70494954D01*
X82598108Y-70988588D01*
X82724061Y-71535633D01*
X82861634Y-72130369D01*
X83009516Y-72767075D01*
X83166399Y-73440030D01*
X83330973Y-74143515D01*
X83477661Y-74768569D01*
X83647910Y-75493206D01*
X83811943Y-76191826D01*
X83968429Y-76858742D01*
X84116038Y-77488269D01*
X84253442Y-78074722D01*
X84379311Y-78612416D01*
X84492315Y-79095664D01*
X84591124Y-79518782D01*
X84674409Y-79876084D01*
X84740841Y-80161885D01*
X84789089Y-80370498D01*
X84817824Y-80496240D01*
X84825917Y-80533783D01*
X84824367Y-80543624D01*
X84825510Y-80551068D01*
X84838036Y-80554249D01*
X84870633Y-80551305D01*
X84931992Y-80540371D01*
X85030800Y-80519582D01*
X85175747Y-80487075D01*
X85375523Y-80440984D01*
X85638817Y-80379447D01*
X85974317Y-80300598D01*
X86390714Y-80202574D01*
X86607305Y-80151591D01*
X87001281Y-80058669D01*
X87364677Y-79972570D01*
X87687168Y-79895768D01*
X87958428Y-79830741D01*
X88168131Y-79779964D01*
X88305952Y-79745914D01*
X88361565Y-79731066D01*
X88362194Y-79730749D01*
X88353327Y-79683210D01*
X88323866Y-79549112D01*
X88275429Y-79335321D01*
X88209638Y-79048703D01*
X88128110Y-78696124D01*
X88032466Y-78284450D01*
X87924324Y-77820548D01*
X87805305Y-77311283D01*
X87677027Y-76763523D01*
X87541110Y-76184133D01*
X87399174Y-75579979D01*
X87252837Y-74957927D01*
X87103720Y-74324845D01*
X86953442Y-73687597D01*
X86803621Y-73053051D01*
X86655878Y-72428072D01*
X86511832Y-71819527D01*
X86373102Y-71234282D01*
X86241308Y-70679202D01*
X86118069Y-70161155D01*
X86005005Y-69687007D01*
X85903735Y-69263623D01*
X85815878Y-68897870D01*
X85743053Y-68596614D01*
X85686881Y-68366721D01*
X85648981Y-68215058D01*
X85630972Y-68148490D01*
X85629899Y-68145992D01*
X85576296Y-68148163D01*
X85442317Y-68171040D01*
X85240637Y-68211602D01*
X84983933Y-68266825D01*
X84684880Y-68333689D01*
X84356155Y-68409171D01*
X84010433Y-68490251D01*
X83660391Y-68573906D01*
X83318704Y-68657114D01*
X82998050Y-68736854D01*
X82711103Y-68810105D01*
X82470540Y-68873843D01*
X82289037Y-68925048D01*
X82179270Y-68960697D01*
X82151736Y-68975126D01*
X81649055Y-68975126D01*
X81644062Y-68946355D01*
X81626753Y-68804197D01*
X81623977Y-68701987D01*
X81634643Y-68632083D01*
X81657661Y-68586843D01*
X81691940Y-68558628D01*
X81736390Y-68539795D01*
X81752898Y-68534402D01*
X81830794Y-68480646D01*
X81848979Y-68434174D01*
X81838135Y-68381616D01*
X81806249Y-68239732D01*
X81754289Y-68012669D01*
X81683225Y-67704574D01*
X81594026Y-67319596D01*
X81487661Y-66861880D01*
X81365098Y-66335574D01*
X81227307Y-65744826D01*
X81075256Y-65093784D01*
X80909915Y-64386593D01*
X80732253Y-63627403D01*
X80543238Y-62820359D01*
X80343840Y-61969610D01*
X80135027Y-61079303D01*
X79917768Y-60153585D01*
X79693033Y-59196603D01*
X79461791Y-58212505D01*
X79304178Y-57542086D01*
X79068902Y-56540798D01*
X78839499Y-55563080D01*
X78616940Y-54613131D01*
X78402197Y-53695147D01*
X78196243Y-52813328D01*
X78000049Y-51971869D01*
X77814586Y-51174969D01*
X77640827Y-50426826D01*
X77479743Y-49731636D01*
X77332307Y-49093597D01*
X77199489Y-48516908D01*
X77082262Y-48005764D01*
X76981598Y-47564365D01*
X76898468Y-47196907D01*
X76833844Y-46907588D01*
X76788698Y-46700606D01*
X76764360Y-46581902D01*
X77257102Y-46581902D01*
X77265553Y-46630354D01*
X77295065Y-46768178D01*
X77344683Y-46991277D01*
X77413449Y-47295551D01*
X77500409Y-47676901D01*
X77604605Y-48131228D01*
X77725081Y-48654434D01*
X77860881Y-49242418D01*
X78011049Y-49891082D01*
X78174628Y-50596328D01*
X78350663Y-51354056D01*
X78538196Y-52160167D01*
X78736272Y-53010562D01*
X78943935Y-53901142D01*
X79160228Y-54827808D01*
X79384195Y-55786462D01*
X79614879Y-56773004D01*
X79851325Y-57783335D01*
X80092576Y-58813356D01*
X80337676Y-59858968D01*
X80585668Y-60916073D01*
X80835597Y-61980571D01*
X81086506Y-63048363D01*
X81337439Y-64115351D01*
X81587439Y-65177434D01*
X81835551Y-66230515D01*
X82080818Y-67270495D01*
X82314022Y-68258299D01*
X82357872Y-68342601D01*
X82403130Y-68366333D01*
X82464728Y-68355626D01*
X82607276Y-68325383D01*
X82818331Y-68278414D01*
X83085449Y-68217533D01*
X83396189Y-68145551D01*
X83738106Y-68065282D01*
X83802367Y-68050083D01*
X84146032Y-67968231D01*
X84458252Y-67892946D01*
X84727096Y-67827179D01*
X84940633Y-67773882D01*
X85086931Y-67736006D01*
X85154060Y-67716500D01*
X85156939Y-67715059D01*
X85147272Y-67668042D01*
X85116819Y-67532542D01*
X85066751Y-67313561D01*
X84998240Y-67016103D01*
X84912455Y-66645170D01*
X84810568Y-66205765D01*
X84693751Y-65702892D01*
X84563175Y-65141553D01*
X84420010Y-64526751D01*
X84265428Y-63863489D01*
X84100599Y-63156770D01*
X83926696Y-62411597D01*
X83744888Y-61632973D01*
X83556348Y-60825900D01*
X83362245Y-59995383D01*
X83163752Y-59146422D01*
X82962040Y-58284023D01*
X82758279Y-57413187D01*
X82553640Y-56538917D01*
X82349295Y-55666217D01*
X82146415Y-54800089D01*
X81946171Y-53945536D01*
X81749734Y-53107561D01*
X81558274Y-52291167D01*
X81372964Y-51501358D01*
X81194975Y-50743135D01*
X81025476Y-50021502D01*
X80865640Y-49341462D01*
X80716638Y-48708017D01*
X80579640Y-48126171D01*
X80455818Y-47600927D01*
X80346343Y-47137287D01*
X80252386Y-46740255D01*
X80175118Y-46414833D01*
X80115710Y-46166024D01*
X80075333Y-45998832D01*
X80055159Y-45918258D01*
X80053099Y-45911467D01*
X80006340Y-45918316D01*
X79880341Y-45944874D01*
X79689084Y-45987791D01*
X79446547Y-46043713D01*
X79166712Y-46109289D01*
X78863559Y-46181166D01*
X78551068Y-46255991D01*
X78243219Y-46330413D01*
X77953994Y-46401079D01*
X77697372Y-46464637D01*
X77487334Y-46517735D01*
X77337859Y-46557020D01*
X77262929Y-46579140D01*
X77257102Y-46581902D01*
X76764360Y-46581902D01*
X76764002Y-46580158D01*
X76759376Y-46550246D01*
X76762304Y-46455572D01*
X76776964Y-46375799D01*
X76812176Y-46307006D01*
X76876756Y-46245275D01*
X76979523Y-46186687D01*
X77129294Y-46127323D01*
X77334887Y-46063264D01*
X77605120Y-45990591D01*
X77948810Y-45905384D01*
X78374774Y-45803725D01*
X78511928Y-45771321D01*
X78959714Y-45666234D01*
X79324028Y-45583041D01*
X79614696Y-45520898D01*
X79841546Y-45478957D01*
X80014404Y-45456375D01*
X80143097Y-45452305D01*
X80237452Y-45465902D01*
X80307296Y-45496320D01*
X80362455Y-45542714D01*
X80412758Y-45604238D01*
X80415221Y-45607560D01*
X80438676Y-45671628D01*
X80483504Y-45829295D01*
X80549700Y-46080539D01*
X80637259Y-46425339D01*
X80746174Y-46863673D01*
X80876442Y-47395519D01*
X81028056Y-48020856D01*
X81201012Y-48739662D01*
X81395304Y-49551916D01*
X81610928Y-50457595D01*
X81847877Y-51456679D01*
X82106147Y-52549146D01*
X82385733Y-53734974D01*
X82641696Y-54822957D01*
X82856827Y-55737993D01*
X83066138Y-56627881D01*
X83268571Y-57488127D01*
X83463063Y-58314235D01*
X83648553Y-59101713D01*
X83823981Y-59846064D01*
X83988284Y-60542795D01*
X84140403Y-61187412D01*
X84279276Y-61775420D01*
X84403842Y-62302324D01*
X84513039Y-62763630D01*
X84605808Y-63154845D01*
X84681085Y-63471472D01*
X84737811Y-63709019D01*
X84774925Y-63862989D01*
X84791364Y-63928890D01*
X84792085Y-63931115D01*
X84841403Y-63928993D01*
X84967611Y-63914419D01*
X85152711Y-63889694D01*
X85378705Y-63857121D01*
X85427396Y-63849842D01*
X86386905Y-63742546D01*
X87393441Y-63699179D01*
X88423208Y-63718815D01*
X89452411Y-63800529D01*
X90457255Y-63943397D01*
X91092493Y-64070055D01*
X91311207Y-64123772D01*
X91592872Y-64199803D01*
X91913675Y-64291043D01*
X92249802Y-64390383D01*
X92577441Y-64490720D01*
X92872778Y-64584946D01*
X93112000Y-64665955D01*
X93210396Y-64702061D01*
X93217708Y-64670113D01*
X93190801Y-64563225D01*
X93133763Y-64394514D01*
X93050684Y-64177100D01*
X93033145Y-64133472D01*
X92874533Y-63723589D01*
X92714724Y-63277719D01*
X92561515Y-62820071D01*
X92422703Y-62374851D01*
X92306085Y-61966267D01*
X92219458Y-61618527D01*
X92211632Y-61582889D01*
X92156885Y-61263784D01*
X92119444Y-60908238D01*
X92099521Y-60538551D01*
X92097328Y-60177021D01*
X92113076Y-59845946D01*
X92146978Y-59567623D01*
X92190797Y-59387505D01*
X92374582Y-58977289D01*
X92622260Y-58636027D01*
X92936833Y-58361156D01*
X93321299Y-58150115D01*
X93778659Y-58000341D01*
X93828752Y-57988581D01*
X94103691Y-57946516D01*
X94459554Y-57924598D01*
X94883462Y-57922419D01*
X95362537Y-57939570D01*
X95883899Y-57975639D01*
X96434669Y-58030219D01*
X96877713Y-58085556D01*
X97501272Y-58167128D01*
X98039724Y-58229131D01*
X98502059Y-58271153D01*
X98897268Y-58292787D01*
X99234343Y-58293622D01*
X99522275Y-58273249D01*
X99770054Y-58231258D01*
X99986673Y-58167241D01*
X100181122Y-58080788D01*
X100362393Y-57971489D01*
X100429782Y-57923814D01*
X100571911Y-57807263D01*
X100714467Y-57662523D01*
X100867025Y-57477413D01*
X101039157Y-57239753D01*
X101240436Y-56937361D01*
X101391912Y-56699559D01*
X101695251Y-56237243D01*
X101976209Y-55853607D01*
X102245233Y-55537086D01*
X102512773Y-55276116D01*
X102789275Y-55059130D01*
X102992453Y-54927995D01*
X103487271Y-54686654D01*
X104050876Y-54510932D01*
X104681873Y-54400902D01*
X105378868Y-54356639D01*
X106140464Y-54378215D01*
X106965267Y-54465704D01*
X107851882Y-54619180D01*
X108053232Y-54661406D01*
X108401342Y-54736588D01*
X108401342Y-54971538D01*
X108401342Y-55206488D01*
X108197278Y-55258950D01*
X107891353Y-55340139D01*
X107650222Y-55411545D01*
X107444745Y-55483348D01*
X107245784Y-55565732D01*
X107024238Y-55668860D01*
X106616823Y-55899124D01*
X106289806Y-56153144D01*
X106070585Y-56377078D01*
X105894565Y-56608909D01*
X105759346Y-56859778D01*
X105662529Y-57140825D01*
X105601713Y-57463191D01*
X105574498Y-57838018D01*
X105578484Y-58276446D01*
X105611270Y-58789615D01*
X105644725Y-59147429D01*
X105681231Y-59562020D01*
X105696258Y-59899577D01*
X105688535Y-60176948D01*
X105656786Y-60410978D01*
X105599739Y-60618515D01*
X105519000Y-60810504D01*
X105381750Y-61042255D01*
X105210680Y-61224756D01*
X104982558Y-61379173D01*
X104787506Y-61476876D01*
X104637971Y-61540380D01*
X104476849Y-61597629D01*
X104290302Y-61651970D01*
X104064491Y-61706754D01*
X103785577Y-61765331D01*
X103439720Y-61831049D01*
X103013082Y-61907258D01*
X102999641Y-61909610D01*
X102485498Y-62004210D01*
X102058424Y-62093954D01*
X101709784Y-62181905D01*
X101430945Y-62271126D01*
X101213271Y-62364678D01*
X101048128Y-62465623D01*
X100926881Y-62577023D01*
X100860138Y-62668324D01*
X100791890Y-62814551D01*
X100771805Y-62968783D01*
X100798949Y-63160138D01*
X100839507Y-63311608D01*
X100909183Y-63482087D01*
X101027485Y-63704258D01*
X101180814Y-63956671D01*
X101355570Y-64217876D01*
X101538151Y-64466426D01*
X101688964Y-64651288D01*
X101902575Y-64897491D01*
X102187025Y-64781579D01*
X102458965Y-64678303D01*
X102797896Y-64561075D01*
X103177361Y-64438076D01*
X103570906Y-64317490D01*
X103952076Y-64207497D01*
X104294417Y-64116282D01*
X104487507Y-64070055D01*
X105463406Y-63887526D01*
X106479292Y-63765543D01*
X107511372Y-63705031D01*
X108535847Y-63706916D01*
X109528924Y-63772121D01*
X110152604Y-63849842D01*
X110384615Y-63883726D01*
X110579322Y-63910250D01*
X110718733Y-63927107D01*
X110784858Y-63931988D01*
X110787709Y-63931320D01*
X110799752Y-63884084D01*
X110832688Y-63747855D01*
X110885457Y-63527127D01*
X110956998Y-63226396D01*
X111046249Y-62850154D01*
X111152150Y-62402896D01*
X111273640Y-61889116D01*
X111409656Y-61313309D01*
X111559140Y-60679969D01*
X111721028Y-59993589D01*
X111894261Y-59258665D01*
X112077776Y-58479689D01*
X112270514Y-57661157D01*
X112471413Y-56807563D01*
X112679412Y-55923401D01*
X112893450Y-55013164D01*
X112938116Y-54823162D01*
X113235751Y-53558357D01*
X113512118Y-52386705D01*
X113767207Y-51308244D01*
X114001010Y-50323008D01*
X114213518Y-49431035D01*
X114404722Y-48632361D01*
X114574614Y-47927021D01*
X114723184Y-47315053D01*
X114850425Y-46796491D01*
X114956326Y-46371374D01*
X115040880Y-46039736D01*
X115104078Y-45801614D01*
X115145911Y-45657045D01*
X115164797Y-45607560D01*
X115216345Y-45544217D01*
X115272762Y-45496664D01*
X115344153Y-45465698D01*
X115440622Y-45452114D01*
X115572277Y-45456709D01*
G37*
D13*
%TO.C,D15*%
X100691725Y-71759079D02*
X101194495Y-73140427D01*
X101194495Y-73140427D02*
X103506138Y-72299058D01*
X103003369Y-70917709D02*
X100691725Y-71759079D01*
%TO.C,R1*%
X78127776Y-76947500D02*
X78637224Y-76947500D01*
X78127776Y-77992500D02*
X78637224Y-77992500D01*
%TO.C,R2*%
X78127776Y-78725500D02*
X78637224Y-78725500D01*
X78127776Y-79770500D02*
X78637224Y-79770500D01*
%TO.C,R4*%
X78080776Y-90409500D02*
X78590224Y-90409500D01*
X78080776Y-91454500D02*
X78590224Y-91454500D01*
%TO.C,R3*%
X78127776Y-83297500D02*
X78637224Y-83297500D01*
X78127776Y-84342500D02*
X78637224Y-84342500D01*
%TD*%
M02*
