M48
; DRILL file {KiCad 8.0.7} date 2025-01-09T19:46:50-0500
; FORMAT={-:-/ absolute / inch / decimal}
; #@! TF.CreationDate,2025-01-09T19:46:50-05:00
; #@! TF.GenerationSoftware,Kicad,Pcbnew,8.0.7
; #@! TF.FileFunction,Plated,1,2,PTH
FMAT,2
INCH
; #@! TA.AperFunction,Plated,PTH,ViaDrill
T1C0.0118
; #@! TA.AperFunction,Plated,PTH,ComponentDrill
T2C0.0394
; #@! TA.AperFunction,Plated,PTH,ComponentDrill
T3C0.0402
; #@! TA.AperFunction,Plated,PTH,ComponentDrill
T4C0.0433
%
G90
G05
T1
X1.9685Y-3.3858
X1.9685Y-3.5433
X2.0079Y-3.2677
X2.0472Y-3.622
X2.0866Y-3.189
X2.134Y-3.524
X2.15Y-3.6614
X2.2441Y-3.189
X2.4016Y-3.1496
X2.4016Y-3.3071
X2.4016Y-3.3858
X2.4016Y-3.4646
X2.4016Y-3.622
X2.4803Y-3.1496
X2.628Y-3.6319
X3.15Y-1.925
X3.15Y-2.175
X3.254Y-2.636
X3.275Y-2.4
X3.425Y-3.225
X3.7704Y-3.4454
X4.104Y-2.178
X4.225Y-3.325
X4.454Y-2.634
X4.475Y-2.425
X4.53Y-2.19
X4.575Y-1.975
T2
X4.605Y-3.245
X4.605Y-3.345
X4.605Y-3.445
X4.605Y-3.545
T3
X2.2323Y-3.3465
X3.9921Y-3.3465
T4
X1.72Y-3.2741
X1.72Y-3.53
X1.8972Y-3.2741
X1.8972Y-3.53
M30
