%TF.GenerationSoftware,KiCad,Pcbnew,8.0.7*%
%TF.CreationDate,2025-01-09T19:46:48-05:00*%
%TF.ProjectId,nametag,6e616d65-7461-4672-9e6b-696361645f70,rev?*%
%TF.SameCoordinates,Original*%
%TF.FileFunction,Paste,Top*%
%TF.FilePolarity,Positive*%
%FSLAX46Y46*%
G04 Gerber Fmt 4.6, Leading zero omitted, Abs format (unit mm)*
G04 Created by KiCad (PCBNEW 8.0.7) date 2025-01-09 19:46:48*
%MOMM*%
%LPD*%
G01*
G04 APERTURE LIST*
G04 Aperture macros list*
%AMRoundRect*
0 Rectangle with rounded corners*
0 $1 Rounding radius*
0 $2 $3 $4 $5 $6 $7 $8 $9 X,Y pos of 4 corners*
0 Add a 4 corners polygon primitive as box body*
4,1,4,$2,$3,$4,$5,$6,$7,$8,$9,$2,$3,0*
0 Add four circle primitives for the rounded corners*
1,1,$1+$1,$2,$3*
1,1,$1+$1,$4,$5*
1,1,$1+$1,$6,$7*
1,1,$1+$1,$8,$9*
0 Add four rect primitives between the rounded corners*
20,1,$1+$1,$2,$3,$4,$5,0*
20,1,$1+$1,$4,$5,$6,$7,0*
20,1,$1+$1,$6,$7,$8,$9,0*
20,1,$1+$1,$8,$9,$2,$3,0*%
G04 Aperture macros list end*
%ADD10RoundRect,0.237500X0.237500X-0.300000X0.237500X0.300000X-0.237500X0.300000X-0.237500X-0.300000X0*%
%ADD11RoundRect,0.100000X-0.637500X-0.100000X0.637500X-0.100000X0.637500X0.100000X-0.637500X0.100000X0*%
%ADD12RoundRect,0.237500X0.172535X-0.330596X0.292085X0.231838X-0.172535X0.330596X-0.292085X-0.231838X0*%
%ADD13RoundRect,0.237500X-0.250000X-0.237500X0.250000X-0.237500X0.250000X0.237500X-0.250000X0.237500X0*%
%ADD14RoundRect,0.237500X0.351391X0.124846X-0.188932X0.321508X-0.351391X-0.124846X0.188932X-0.321508X0*%
%ADD15RoundRect,0.237500X0.292085X-0.231838X0.172535X0.330596X-0.292085X0.231838X-0.172535X-0.330596X0*%
%ADD16RoundRect,0.150000X-0.512500X-0.150000X0.512500X-0.150000X0.512500X0.150000X-0.512500X0.150000X0*%
%ADD17RoundRect,0.237500X0.035355X0.371231X-0.371231X-0.035355X-0.035355X-0.371231X0.371231X0.035355X0*%
%ADD18RoundRect,0.237500X-0.067576X-0.366737X0.372900X0.002866X0.067576X0.366737X-0.372900X-0.002866X0*%
%ADD19RoundRect,0.237500X0.300000X0.237500X-0.300000X0.237500X-0.300000X-0.237500X0.300000X-0.237500X0*%
%ADD20RoundRect,0.237500X-0.287500X-0.237500X0.287500X-0.237500X0.287500X0.237500X-0.287500X0.237500X0*%
%ADD21RoundRect,0.237500X0.307105X0.211539X-0.265706X0.261654X-0.307105X-0.211539X0.265706X-0.261654X0*%
%ADD22RoundRect,0.250000X-0.450000X0.325000X-0.450000X-0.325000X0.450000X-0.325000X0.450000X0.325000X0*%
%ADD23RoundRect,0.237500X-0.372900X0.002866X0.067576X-0.366737X0.372900X-0.002866X-0.067576X0.366737X0*%
%ADD24RoundRect,0.237500X0.241891X0.283816X-0.324374X0.183968X-0.241891X-0.283816X0.324374X-0.183968X0*%
%ADD25RoundRect,0.237500X-0.188932X-0.321508X0.351391X-0.124846X0.188932X0.321508X-0.351391X0.124846X0*%
G04 APERTURE END LIST*
D10*
%TO.C,C2*%
X64500000Y-89975000D03*
X64500000Y-88250000D03*
%TD*%
D11*
%TO.C,U1*%
X66775000Y-85075000D03*
X66775000Y-85725000D03*
X66775000Y-86375000D03*
X66775000Y-87025000D03*
X66775000Y-87675000D03*
X66775000Y-88325000D03*
X66775000Y-88975000D03*
X66775000Y-89625000D03*
X66775000Y-90275000D03*
X66775000Y-90925000D03*
X72500000Y-90925000D03*
X72500000Y-90275000D03*
X72500000Y-89625000D03*
X72500000Y-88975000D03*
X72500000Y-88325000D03*
X72500000Y-87675000D03*
X72500000Y-87025000D03*
X72500000Y-86375000D03*
X72500000Y-85725000D03*
X72500000Y-85075000D03*
%TD*%
D12*
%TO.C,D8*%
X112158154Y-66735758D03*
X112522000Y-65024000D03*
%TD*%
D13*
%TO.C,R5*%
X77470000Y-85598000D03*
X79295000Y-85598000D03*
%TD*%
D14*
%TO.C,D16*%
X94100462Y-72226536D03*
X92456000Y-71628000D03*
%TD*%
D15*
%TO.C,D1*%
X79256246Y-49022000D03*
X78892400Y-47310242D03*
%TD*%
D16*
%TO.C,U3*%
X55352100Y-88508800D03*
X55352100Y-89458800D03*
X55352100Y-90408800D03*
X57627100Y-90408800D03*
X57627100Y-88508800D03*
%TD*%
D17*
%TO.C,D9*%
X105215918Y-55820082D03*
X103978482Y-57057518D03*
%TD*%
D12*
%TO.C,D7*%
X113682154Y-60512758D03*
X114046000Y-58801000D03*
%TD*%
D18*
%TO.C,D13*%
X108204000Y-83439000D03*
X109544578Y-82314122D03*
%TD*%
D19*
%TO.C,C1*%
X57352100Y-93116400D03*
X55627100Y-93116400D03*
%TD*%
D20*
%TO.C,D10*%
X96661000Y-86995000D03*
X98411000Y-86995000D03*
%TD*%
D12*
%TO.C,D6*%
X114952154Y-54797758D03*
X115316000Y-53086000D03*
%TD*%
%TO.C,D5*%
X116353277Y-48912679D03*
X116717123Y-47200921D03*
%TD*%
D13*
%TO.C,R8*%
X77470000Y-89154000D03*
X79295000Y-89154000D03*
%TD*%
D21*
%TO.C,D12*%
X88341550Y-65045338D03*
X86598208Y-64892816D03*
%TD*%
D15*
%TO.C,D3*%
X82151846Y-60893758D03*
X81788000Y-59182000D03*
%TD*%
%TO.C,D4*%
X83566000Y-66852800D03*
X83202154Y-65141042D03*
%TD*%
%TO.C,D2*%
X80772000Y-55178758D03*
X80408154Y-53467000D03*
%TD*%
D22*
%TO.C,L1*%
X52324000Y-86215000D03*
X52324000Y-88265000D03*
%TD*%
D13*
%TO.C,R6*%
X77470000Y-82042000D03*
X79295000Y-82042000D03*
%TD*%
D23*
%TO.C,D14*%
X86035422Y-82441122D03*
X87376000Y-83566000D03*
%TD*%
D13*
%TO.C,R7*%
X77423000Y-87376000D03*
X79248000Y-87376000D03*
%TD*%
D24*
%TO.C,D11*%
X107315000Y-64897000D03*
X105591586Y-65200884D03*
%TD*%
D25*
%TO.C,D15*%
X101680769Y-72181267D03*
X103325231Y-71582733D03*
%TD*%
D13*
%TO.C,R1*%
X77470000Y-77470000D03*
X79295000Y-77470000D03*
%TD*%
%TO.C,R2*%
X77470000Y-79248000D03*
X79295000Y-79248000D03*
%TD*%
%TO.C,R4*%
X77423000Y-90932000D03*
X79248000Y-90932000D03*
%TD*%
%TO.C,R3*%
X77470000Y-83820000D03*
X79295000Y-83820000D03*
%TD*%
M02*
