%TF.GenerationSoftware,KiCad,Pcbnew,10.0.3*%
%TF.CreationDate,2026-06-09T21:24:23-04:00*%
%TF.ProjectId,nametag,6e616d65-7461-4672-9e6b-696361645f70,rev?*%
%TF.SameCoordinates,Original*%
%TF.FileFunction,Copper,L1,Top*%
%TF.FilePolarity,Positive*%
%FSLAX46Y46*%
G04 Gerber Fmt 4.6, Leading zero omitted, Abs format (unit mm)*
G04 Created by KiCad (PCBNEW 10.0.3) date 2026-06-09 21:24:23*
%MOMM*%
%LPD*%
G01*
G04 APERTURE LIST*
G04 Aperture macros list*
%AMRoundRect*
0 Rectangle with rounded corners*
0 $1 Rounding radius*
0 $2 $3 $4 $5 $6 $7 $8 $9 X,Y pos of 4 corners*
0 Add a 4 corners polygon primitive as box body*
4,1,4,$2,$3,$4,$5,$6,$7,$8,$9,$2,$3,0*
0 Add four circle primitives for the rounded corners*
1,1,$1+$1,$2,$3*
1,1,$1+$1,$4,$5*
1,1,$1+$1,$6,$7*
1,1,$1+$1,$8,$9*
0 Add four rect primitives between the rounded corners*
20,1,$1+$1,$2,$3,$4,$5,0*
20,1,$1+$1,$4,$5,$6,$7,0*
20,1,$1+$1,$6,$7,$8,$9,0*
20,1,$1+$1,$8,$9,$2,$3,0*%
G04 Aperture macros list end*
%TA.AperFunction,SMDPad,CuDef*%
%ADD10RoundRect,0.225000X0.250000X-0.225000X0.250000X0.225000X-0.250000X0.225000X-0.250000X-0.225000X0*%
%TD*%
%TA.AperFunction,SMDPad,CuDef*%
%ADD11RoundRect,0.200000X0.275000X-0.200000X0.275000X0.200000X-0.275000X0.200000X-0.275000X-0.200000X0*%
%TD*%
%TA.AperFunction,SMDPad,CuDef*%
%ADD12RoundRect,0.200000X-0.200000X-0.275000X0.200000X-0.275000X0.200000X0.275000X-0.200000X0.275000X0*%
%TD*%
%TA.AperFunction,SMDPad,CuDef*%
%ADD13RoundRect,0.218750X0.293200X0.165979X-0.117915X0.315613X-0.293200X-0.165979X0.117915X-0.315613X0*%
%TD*%
%TA.AperFunction,SMDPad,CuDef*%
%ADD14RoundRect,0.218750X-0.117915X-0.315613X0.293200X-0.165979X0.117915X0.315613X-0.293200X0.165979X0*%
%TD*%
%TA.AperFunction,SMDPad,CuDef*%
%ADD15RoundRect,0.218750X-0.332287X-0.055689X0.002858X-0.336909X0.332287X0.055689X-0.002858X0.336909X0*%
%TD*%
%TA.AperFunction,SMDPad,CuDef*%
%ADD16RoundRect,0.218750X-0.002858X-0.336909X0.332287X-0.055689X0.002858X0.336909X-0.332287X0.055689X0*%
%TD*%
%TA.AperFunction,SMDPad,CuDef*%
%ADD17RoundRect,0.218750X0.240251X0.236210X-0.195584X0.274340X-0.240251X-0.236210X0.195584X-0.274340X0*%
%TD*%
%TA.AperFunction,SMDPad,CuDef*%
%ADD18RoundRect,0.218750X0.170929X0.290343X-0.259924X0.214371X-0.170929X-0.290343X0.259924X-0.214371X0*%
%TD*%
%TA.AperFunction,SMDPad,CuDef*%
%ADD19RoundRect,0.218750X-0.218750X-0.256250X0.218750X-0.256250X0.218750X0.256250X-0.218750X0.256250X0*%
%TD*%
%TA.AperFunction,SMDPad,CuDef*%
%ADD20RoundRect,0.218750X-0.026517X0.335876X-0.335876X0.026517X0.026517X-0.335876X0.335876X-0.026517X0*%
%TD*%
%TA.AperFunction,SMDPad,CuDef*%
%ADD21RoundRect,0.218750X0.205170X-0.267247X0.296131X0.160692X-0.205170X0.267247X-0.296131X-0.160692X0*%
%TD*%
%TA.AperFunction,SMDPad,CuDef*%
%ADD22RoundRect,0.218750X0.296131X-0.160692X0.205170X0.267247X-0.296131X0.160692X-0.205170X-0.267247X0*%
%TD*%
%TA.AperFunction,ComponentPad*%
%ADD23R,2.000000X2.000000*%
%TD*%
%TA.AperFunction,ComponentPad*%
%ADD24C,2.000000*%
%TD*%
%TA.AperFunction,SMDPad,CuDef*%
%ADD25R,1.230000X1.860000*%
%TD*%
%TA.AperFunction,SMDPad,CuDef*%
%ADD26R,1.800000X1.200000*%
%TD*%
%TA.AperFunction,SMDPad,CuDef*%
%ADD27R,0.200000X0.665000*%
%TD*%
%TA.AperFunction,SMDPad,CuDef*%
%ADD28R,0.665000X0.200000*%
%TD*%
%TA.AperFunction,SMDPad,CuDef*%
%ADD29R,1.650000X1.650000*%
%TD*%
%TA.AperFunction,SMDPad,CuDef*%
%ADD30R,0.600000X1.070000*%
%TD*%
%TA.AperFunction,SMDPad,CuDef*%
%ADD31RoundRect,0.140000X0.140000X0.170000X-0.140000X0.170000X-0.140000X-0.170000X0.140000X-0.170000X0*%
%TD*%
%TA.AperFunction,ComponentPad*%
%ADD32R,1.700000X1.700000*%
%TD*%
%TA.AperFunction,ComponentPad*%
%ADD33C,1.700000*%
%TD*%
%TA.AperFunction,ViaPad*%
%ADD34C,0.450000*%
%TD*%
%TA.AperFunction,ViaPad*%
%ADD35C,0.600000*%
%TD*%
%TA.AperFunction,Conductor*%
%ADD36C,0.400000*%
%TD*%
%TA.AperFunction,Conductor*%
%ADD37C,0.200000*%
%TD*%
%TA.AperFunction,Conductor*%
%ADD38C,0.300000*%
%TD*%
G04 APERTURE END LIST*
D10*
%TO.P,C1,1*%
%TO.N,+3.3V*%
X78200000Y-91575000D03*
%TO.P,C1,2*%
%TO.N,GND*%
X78200000Y-90025000D03*
%TD*%
D11*
%TO.P,R8,1*%
%TO.N,/Mcu/pwm2*%
X89200000Y-87537500D03*
%TO.P,R8,2*%
%TO.N,Net-(D12-A)*%
X89200000Y-85887500D03*
%TD*%
D12*
%TO.P,R7,1*%
%TO.N,/Mcu/pwm1*%
X91562500Y-90300000D03*
%TO.P,R7,2*%
%TO.N,Net-(D11-A)*%
X93212500Y-90300000D03*
%TD*%
D11*
%TO.P,R6,1*%
%TO.N,/Mcu/pwm4*%
X87600000Y-87537500D03*
%TO.P,R6,2*%
%TO.N,Net-(D14-A)*%
X87600000Y-85887500D03*
%TD*%
D12*
%TO.P,R5,1*%
%TO.N,/Mcu/pwm8*%
X99387500Y-88700000D03*
%TO.P,R5,2*%
%TO.N,Net-(D13-A)*%
X101037500Y-88700000D03*
%TD*%
%TO.P,R4,1*%
%TO.N,/Mcu/pwm3*%
X91562500Y-88700000D03*
%TO.P,R4,2*%
%TO.N,Net-(D10-A)*%
X93212500Y-88700000D03*
%TD*%
D11*
%TO.P,R3,1*%
%TO.N,/Mcu/pwm5*%
X83800000Y-85112500D03*
%TO.P,R3,2*%
%TO.N,Net-(D9-A)*%
X83800000Y-83462500D03*
%TD*%
D12*
%TO.P,R2,1*%
%TO.N,/Mcu/pwm7*%
X99387500Y-90300000D03*
%TO.P,R2,2*%
%TO.N,Net-(D5-A)*%
X101037500Y-90300000D03*
%TD*%
D11*
%TO.P,R1,1*%
%TO.N,/Mcu/pwm6*%
X81800000Y-85112500D03*
%TO.P,R1,2*%
%TO.N,Net-(D1-A)*%
X81800000Y-83462500D03*
%TD*%
D13*
%TO.P,D16,1,K_1*%
%TO.N,/Mcu/cathode0*%
X93850258Y-70270073D03*
%TO.P,D16,2,A_2*%
%TO.N,Net-(D12-A)*%
X92370242Y-69731391D03*
%TD*%
D14*
%TO.P,D15,1,K_1*%
%TO.N,/Mcu/cathode0*%
X101595011Y-70224805D03*
%TO.P,D15,2,A_2*%
%TO.N,Net-(D11-A)*%
X103075027Y-69686123D03*
%TD*%
D15*
%TO.P,D14,1,K_1*%
%TO.N,GND*%
X85934470Y-80570830D03*
%TO.P,D14,2,A_2*%
%TO.N,Net-(D14-A)*%
X87140990Y-81583220D03*
%TD*%
D16*
%TO.P,D13,1,K_1*%
%TO.N,GND*%
X108103048Y-81456220D03*
%TO.P,D13,2,A_2*%
%TO.N,Net-(D13-A)*%
X109309568Y-80443830D03*
%TD*%
D17*
%TO.P,D12,1,K_1*%
%TO.N,/Mcu/cathode1*%
X88086401Y-63111176D03*
%TO.P,D12,2,A_2*%
%TO.N,Net-(D12-A)*%
X86517395Y-62973906D03*
%TD*%
D18*
%TO.P,D11,1,K_1*%
%TO.N,/Mcu/cathode1*%
X107060848Y-62985658D03*
%TO.P,D11,2,A_2*%
%TO.N,Net-(D11-A)*%
X105509776Y-63259154D03*
%TD*%
D19*
%TO.P,D10,1,K_1*%
%TO.N,GND*%
X96580519Y-85068464D03*
%TO.P,D10,2,A_2*%
%TO.N,Net-(D10-A)*%
X98155519Y-85068464D03*
%TD*%
D20*
%TO.P,D9,1,K_1*%
%TO.N,GND*%
X104986066Y-53955417D03*
%TO.P,D9,2,A_2*%
%TO.N,Net-(D9-A)*%
X103872372Y-55069111D03*
%TD*%
D21*
%TO.P,D8,1,K_1*%
%TO.N,GND*%
X112008366Y-64723634D03*
%TO.P,D8,2,A_2*%
%TO.N,Net-(D5-A)*%
X112335826Y-63183052D03*
%TD*%
%TO.P,D7,1,K_1*%
%TO.N,GND*%
X113532366Y-58500634D03*
%TO.P,D7,2,A_2*%
%TO.N,Net-(D5-A)*%
X113859826Y-56960052D03*
%TD*%
%TO.P,D6,1,K_1*%
%TO.N,GND*%
X114802366Y-52785634D03*
%TO.P,D6,2,A_2*%
%TO.N,Net-(D5-A)*%
X115129826Y-51245052D03*
%TD*%
%TO.P,D5,1,K_1*%
%TO.N,GND*%
X116203489Y-46900555D03*
%TO.P,D5,2,A_2*%
%TO.N,Net-(D5-A)*%
X116530949Y-45359973D03*
%TD*%
D22*
%TO.P,D4,1,K_1*%
%TO.N,GND*%
X83379826Y-64840676D03*
%TO.P,D4,2,A_2*%
%TO.N,Net-(D1-A)*%
X83052366Y-63300094D03*
%TD*%
%TO.P,D3,1,K_1*%
%TO.N,GND*%
X81965672Y-58881634D03*
%TO.P,D3,2,A_2*%
%TO.N,Net-(D1-A)*%
X81638212Y-57341052D03*
%TD*%
%TO.P,D2,1,K_1*%
%TO.N,GND*%
X80585826Y-53166634D03*
%TO.P,D2,2,A_2*%
%TO.N,Net-(D1-A)*%
X80258366Y-51626052D03*
%TD*%
%TO.P,D1,1,K_1*%
%TO.N,GND*%
X79070072Y-47009876D03*
%TO.P,D1,2,A_2*%
%TO.N,Net-(D1-A)*%
X78742612Y-45469294D03*
%TD*%
D23*
%TO.P,BT1,1,+_1*%
%TO.N,Net-(BT1-+)*%
X51900000Y-87000000D03*
D24*
%TO.P,BT1,2,-_2*%
%TO.N,GND*%
X96600000Y-87000000D03*
%TD*%
D25*
%TO.P,SW1,1,A_1*%
%TO.N,/Mcu/switch*%
X110820000Y-87200000D03*
%TO.P,SW1,2,B_2*%
%TO.N,GND*%
X115180000Y-87200000D03*
%TD*%
D26*
%TO.P,L1,1,1_1*%
%TO.N,Net-(BT1-+)*%
X74600000Y-86000000D03*
%TO.P,L1,2,2_2*%
%TO.N,Net-(U2-SW)*%
X74600000Y-88000000D03*
%TD*%
D27*
%TO.P,U3,1,P1.5/SCLK/I2CSCL/PWM3N_1*%
%TO.N,/Mcu/cathode1*%
X84400000Y-88590000D03*
%TO.P,U3,2,P1.6/RxD_3/MCLKO_2/XTALO/PWM4P_2*%
%TO.N,/Mcu/pwm4*%
X84000000Y-88590000D03*
%TO.P,U3,3,P1.7/TxD_3/XTALI/PWM5_2/PWM4N_3*%
%TO.N,/Mcu/pwm5*%
X83600000Y-88590000D03*
%TO.P,U3,4,P5.4/MCLKO/RST/PWM6_2_4*%
%TO.N,/Mcu/pwm6*%
X83200000Y-88590000D03*
%TO.P,U3,5,VCC_5*%
%TO.N,+3.3V*%
X82800000Y-88590000D03*
D28*
%TO.P,U3,6,ADC_VRef+_6*%
X82190000Y-89200000D03*
%TO.P,U3,7,GND_7*%
%TO.N,GND*%
X82190000Y-89600000D03*
%TO.P,U3,8,INT4/RxD/ADC8/P3.0_8*%
%TO.N,/Mcu/UART_RX*%
X82190000Y-90000000D03*
%TO.P,U3,9,TxD/ADC9/P3.1_9*%
%TO.N,/Mcu/UART_TX*%
X82190000Y-90400000D03*
%TO.P,U3,10,PWMETI/PWMETI2/INT0/SCLK_4/I2CSCL_4/ADC10/P3.2_10*%
%TO.N,/Mcu/switch*%
X82190000Y-90800000D03*
D27*
%TO.P,U3,11,PWM4N_2/PWM7_2/INT1/MISO_4/I2CSDA_4/ADC11/P3.3_11*%
%TO.N,/Mcu/pwm7*%
X82800000Y-91410000D03*
%TO.P,U3,12,PWM4P_2/PWM8_2/CMPO/ECI_2/T1CLKO/MOSI_4/T0/ADC12/P3.4_12*%
%TO.N,/Mcu/pwm8*%
X83200000Y-91410000D03*
%TO.P,U3,13,PWMFLT/SS_4/T0CLKO/T1/ADC13/P3.5_13*%
%TO.N,unconnected-(U3-PWMFLT{slash}SS_4{slash}T0CLKO{slash}T1{slash}ADC13{slash}P3.5-Pad13)*%
X83600000Y-91410000D03*
%TO.P,U3,14,INT2/CCP1_2/RxD_2/ADC14/P3.6_14*%
%TO.N,unconnected-(U3-INT2{slash}CCP1_2{slash}RxD_2{slash}ADC14{slash}P3.6-Pad14)*%
X84000000Y-91410000D03*
%TO.P,U3,15,INT3//TxD_2/P3.7_15*%
%TO.N,unconnected-(U3-INT3{slash}{slash}TxD_2{slash}P3.7-Pad15)*%
X84400000Y-91410000D03*
D28*
%TO.P,U3,16,P1.0/ADC0/RxD2/PWM1P_16*%
%TO.N,/Mcu/pwm1*%
X85010000Y-90800000D03*
%TO.P,U3,17,P1.4/MISO/I2CSDA/PWM3N_17*%
%TO.N,/Mcu/pwm3*%
X85010000Y-90400000D03*
%TO.P,U3,18,P1.3/MOSI/T2CLKO/PWM2N_18*%
%TO.N,/Mcu/cathode0*%
X85010000Y-90000000D03*
%TO.P,U3,19,P1.2/SS/T2/PWM2P_19*%
%TO.N,/Mcu/pwm2*%
X85010000Y-89600000D03*
%TO.P,U3,20,P1.1/ADC1/TxD2/PWM1N_20*%
%TO.N,unconnected-(U3-P1.1{slash}ADC1{slash}TxD2{slash}PWM1N-Pad20)*%
X85010000Y-89200000D03*
D29*
%TO.P,U3,21,EP_21*%
%TO.N,GND*%
X83600000Y-90000000D03*
%TD*%
D30*
%TO.P,U2,1,GND_1*%
%TO.N,GND*%
X75950000Y-89960000D03*
%TO.P,U2,2,SW_2*%
%TO.N,Net-(U2-SW)*%
X74050000Y-89960000D03*
%TO.P,U2,3,VOUT_3*%
%TO.N,+3.3V*%
X75000000Y-92440000D03*
%TD*%
D31*
%TO.P,C2,1*%
%TO.N,+3.3V*%
X82000000Y-87600000D03*
%TO.P,C2,2*%
%TO.N,GND*%
X81040000Y-87600000D03*
%TD*%
D32*
%TO.P,J1,1,Pin_1_1*%
%TO.N,GND*%
X113500000Y-91100000D03*
D33*
%TO.P,J1,2,Pin_2_2*%
%TO.N,+3.3V*%
X110960000Y-91100000D03*
%TO.P,J1,3,Pin_3_3*%
%TO.N,/Mcu/UART_RX*%
X108420000Y-91100000D03*
%TO.P,J1,4,Pin_4_4*%
%TO.N,/Mcu/UART_TX*%
X105880000Y-91100000D03*
%TD*%
D34*
%TO.N,GND*%
X114894019Y-53699464D03*
D35*
X78200000Y-89000000D03*
X80360000Y-87600000D03*
D34*
X116037019Y-48238464D03*
D35*
X116400000Y-87300000D03*
D34*
X81147095Y-89519522D03*
D35*
X107400000Y-82200000D03*
D34*
X79842019Y-53318464D03*
D35*
X95600000Y-85000000D03*
X85585202Y-79900000D03*
D34*
X79842019Y-46968464D03*
X83600000Y-90000000D03*
X82483619Y-65027864D03*
X83017019Y-59033464D03*
X104073619Y-53394664D03*
D35*
X76000000Y-89200000D03*
D34*
X113497019Y-59668464D03*
X112963619Y-64977064D03*
%TD*%
%TO.N,Net-(BT1-+)*%
D36*
X74600000Y-86000000D02*
X52900000Y-86000000D01*
X52900000Y-86000000D02*
X51900000Y-87000000D01*
%TO.N,+3.3V*%
X78200000Y-91575000D02*
X75865000Y-91575000D01*
X75865000Y-91575000D02*
X75000000Y-92440000D01*
X78200000Y-91575000D02*
X79825000Y-91575000D01*
X79825000Y-91575000D02*
X80000000Y-91400000D01*
%TO.N,GND*%
D37*
X85851111Y-79900000D02*
X85585202Y-79900000D01*
X113514173Y-58586222D02*
X113514173Y-59651310D01*
X108036019Y-81563981D02*
X107400000Y-82200000D01*
X81227573Y-89600000D02*
X81147095Y-89519522D01*
X111990173Y-64809222D02*
X112795777Y-64809222D01*
X80604019Y-53252222D02*
X79908261Y-53252222D01*
X114784173Y-52871222D02*
X114784173Y-53589618D01*
X115180000Y-87200000D02*
X116300000Y-87200000D01*
X114784173Y-53589618D02*
X114894019Y-53699464D01*
X113514173Y-59651310D02*
X113497019Y-59668464D01*
X85867441Y-80514586D02*
X85867441Y-79916330D01*
X78953019Y-47095464D02*
X79715019Y-47095464D01*
X81983865Y-58967222D02*
X82950777Y-58967222D01*
D36*
X96493019Y-85068464D02*
X95668464Y-85068464D01*
D37*
X75950000Y-89960000D02*
X75950000Y-89250000D01*
X79908261Y-53252222D02*
X79842019Y-53318464D01*
X82585219Y-64926264D02*
X82483619Y-65027864D01*
X85867441Y-79916330D02*
X85851111Y-79900000D01*
X79715019Y-47095464D02*
X79842019Y-46968464D01*
X116300000Y-87200000D02*
X116400000Y-87300000D01*
X112795777Y-64809222D02*
X112963619Y-64977064D01*
X75950000Y-89250000D02*
X76000000Y-89200000D01*
D36*
X95668464Y-85068464D02*
X95600000Y-85000000D01*
D37*
X82950777Y-58967222D02*
X83017019Y-59033464D01*
X104572501Y-53893546D02*
X104073619Y-53394664D01*
X80800000Y-87600000D02*
X80360000Y-87600000D01*
X82150000Y-89600000D02*
X81227573Y-89600000D01*
X78200000Y-89937500D02*
X78200000Y-89000000D01*
X83398019Y-64926264D02*
X82585219Y-64926264D01*
X116037019Y-46968464D02*
X116037019Y-48238464D01*
%TO.N,Net-(D5-A)*%
X114444356Y-61007127D02*
X112354019Y-63097464D01*
X115148019Y-51159464D02*
X117115479Y-49192004D01*
X113497019Y-52324852D02*
X114662407Y-51159464D01*
X111300000Y-80500000D02*
X111159990Y-80359990D01*
X113878019Y-56874464D02*
X114444356Y-57440801D01*
X117115479Y-49192004D02*
X117115479Y-45840722D01*
X103900000Y-90300000D02*
X111300000Y-82900000D01*
X114444356Y-57440801D02*
X114444356Y-61007127D01*
X111159990Y-80359990D02*
X111159990Y-64291493D01*
X111300000Y-82900000D02*
X111300000Y-80500000D01*
X111159990Y-64291493D02*
X112354019Y-63097464D01*
X113497019Y-52324852D02*
X113497019Y-56493464D01*
X115148019Y-51159464D02*
X114662407Y-51159464D01*
X101125000Y-90300000D02*
X103900000Y-90300000D01*
X117115479Y-45840722D02*
X116549142Y-45274385D01*
X113497019Y-56493464D02*
X113878019Y-56874464D01*
%TO.N,/Mcu/cathode0*%
X88079222Y-90000000D02*
X93932481Y-84146741D01*
X93932481Y-70300000D02*
X101467519Y-70300000D01*
X93932481Y-84146741D02*
X93932481Y-70300000D01*
X85010000Y-90000000D02*
X88079222Y-90000000D01*
X93932481Y-70300000D02*
X101467520Y-70300000D01*
%TO.N,Net-(D12-A)*%
X89200000Y-72105483D02*
X91604019Y-69701464D01*
X89200000Y-85800000D02*
X89200000Y-72105483D01*
X86430227Y-62966280D02*
X86430227Y-64527672D01*
X91604019Y-69701464D02*
X92288019Y-69701464D01*
X86430227Y-64527672D02*
X91604019Y-69701464D01*
%TO.N,Net-(D1-A)*%
X80725785Y-51540464D02*
X80240173Y-51540464D01*
X81620019Y-57255464D02*
X81620019Y-52434698D01*
X81800000Y-83375000D02*
X81800000Y-64448679D01*
X80240173Y-51540464D02*
X80240173Y-50541618D01*
X80240173Y-50541618D02*
X78022836Y-48324281D01*
X81032019Y-61212352D02*
X83034173Y-63214506D01*
X81620019Y-57255464D02*
X81032019Y-57843464D01*
X81620019Y-52434698D02*
X80725785Y-51540464D01*
X78022836Y-48324281D02*
X78022836Y-45950043D01*
X81032019Y-57843464D02*
X81032019Y-61212352D01*
X81800000Y-64448679D02*
X83034173Y-63214506D01*
X78022836Y-45950043D02*
X78589173Y-45383706D01*
%TO.N,Net-(D9-A)*%
X92086036Y-55130982D02*
X103810501Y-55130982D01*
X83800000Y-83375000D02*
X83800000Y-79937552D01*
X84328202Y-79409350D02*
X84328202Y-62888816D01*
X84328202Y-62888816D02*
X92086036Y-55130982D01*
X83800000Y-79937552D02*
X84328202Y-79409350D01*
%TO.N,Net-(D13-A)*%
X109376597Y-84360955D02*
X109376597Y-80387586D01*
X105037552Y-88700000D02*
X109376597Y-84360955D01*
X101125000Y-88700000D02*
X105037552Y-88700000D01*
%TO.N,+3.3V*%
D36*
X80000000Y-91400000D02*
X80000000Y-89775662D01*
X80000000Y-89775662D02*
X82000000Y-87775662D01*
D37*
X110960000Y-91100000D02*
X107785000Y-94275000D01*
X107785000Y-94275000D02*
X82875000Y-94275000D01*
D38*
X82875000Y-94275000D02*
X80000000Y-91400000D01*
D37*
X82150000Y-89200000D02*
X82800000Y-88550000D01*
X82800000Y-88400000D02*
X82000000Y-87600000D01*
D36*
X82000000Y-87775662D02*
X82000000Y-87600000D01*
%TO.N,Net-(D10-A)*%
D37*
X96947057Y-88700000D02*
X98243019Y-87404038D01*
X93300000Y-88700000D02*
X96947057Y-88700000D01*
X98243019Y-87404038D02*
X98243019Y-85068464D01*
%TO.N,/Mcu/pwm6*%
X81800000Y-86463866D02*
X82580000Y-87243866D01*
X82580000Y-87243866D02*
X82580000Y-87337500D01*
X82580000Y-87337500D02*
X83200000Y-87957500D01*
X83200000Y-87957500D02*
X83200000Y-88590000D01*
X81800000Y-85200000D02*
X81800000Y-86463866D01*
%TO.N,/Mcu/switch*%
X82546000Y-92146000D02*
X82546000Y-92313396D01*
X83032604Y-92800000D02*
X102000000Y-92800000D01*
X102000000Y-92800000D02*
X107600000Y-87200000D01*
X82190000Y-91790000D02*
X82546000Y-92146000D01*
X82546000Y-92313396D02*
X83032604Y-92800000D01*
X82190000Y-90800000D02*
X82190000Y-91790000D01*
X107600000Y-87200000D02*
X110820000Y-87200000D01*
%TO.N,/Mcu/pwm5*%
X83800000Y-86725508D02*
X83162045Y-87363463D01*
X83800000Y-85200000D02*
X83800000Y-86725508D01*
X83600000Y-88550000D02*
X83600000Y-87862954D01*
X83162045Y-87425000D02*
X83162045Y-87363463D01*
X83600000Y-87862954D02*
X83162045Y-87425000D01*
%TO.N,/Mcu/cathode1*%
X84881154Y-73381154D02*
X84881154Y-63081154D01*
X87120757Y-62065991D02*
X88173568Y-63118802D01*
X88173568Y-63118802D02*
X88939792Y-62352578D01*
X84400000Y-88590000D02*
X84400000Y-88000000D01*
X87889222Y-88590000D02*
X88375000Y-88104222D01*
X86790000Y-88590000D02*
X87889222Y-88590000D01*
X86200000Y-88000000D02*
X86790000Y-88590000D01*
X85896317Y-62065991D02*
X87120757Y-62065991D01*
X88375000Y-76875000D02*
X84881154Y-73381154D01*
X88375000Y-88104222D02*
X88375000Y-76875000D01*
X88939792Y-62352578D02*
X106529133Y-62352578D01*
X84881154Y-63081154D02*
X85896317Y-62065991D01*
X106529133Y-62352578D02*
X107147019Y-62970464D01*
X84400000Y-88000000D02*
X86200000Y-88000000D01*
%TO.N,/Mcu/pwm3*%
X89775000Y-90400000D02*
X85010000Y-90400000D01*
X91475000Y-88700000D02*
X89775000Y-90400000D01*
%TO.N,/Mcu/pwm8*%
X95957500Y-92042500D02*
X83300000Y-92042500D01*
X83300000Y-92042500D02*
X83200000Y-91942500D01*
X99300000Y-88700000D02*
X95957500Y-92042500D01*
X83200000Y-91942500D02*
X83200000Y-91410000D01*
%TO.N,/Mcu/pwm1*%
X91475000Y-90300000D02*
X90975000Y-90800000D01*
X90975000Y-90800000D02*
X85010000Y-90800000D01*
%TO.N,Net-(D11-A)*%
X105423605Y-67389841D02*
X103157250Y-69656196D01*
X102373000Y-83736505D02*
X95809505Y-90300000D01*
X95809505Y-90300000D02*
X93300000Y-90300000D01*
X102373000Y-72616035D02*
X102373000Y-83736505D01*
X105423605Y-63274348D02*
X105423605Y-67389841D01*
X103157250Y-69656196D02*
X103157250Y-71831785D01*
X103157250Y-71831785D02*
X102373000Y-72616035D01*
%TO.N,Net-(U2-SW)*%
D36*
X74600000Y-89712500D02*
X74050000Y-90262500D01*
X74600000Y-88000000D02*
X74600000Y-89712500D01*
%TO.N,Net-(D14-A)*%
D37*
X87600000Y-82031445D02*
X87208019Y-81639464D01*
X87600000Y-85800000D02*
X87600000Y-82031445D01*
%TO.N,/Mcu/pwm4*%
X84312552Y-87625000D02*
X84000000Y-87937552D01*
X87600000Y-87625000D02*
X84312552Y-87625000D01*
X84000000Y-87937552D02*
X84000000Y-88590000D01*
%TO.N,/Mcu/UART_RX*%
X81025000Y-91788604D02*
X81025000Y-90437955D01*
X81462954Y-90000000D02*
X82150000Y-90000000D01*
X82911396Y-93675000D02*
X81025000Y-91788604D01*
X108420000Y-91100000D02*
X105845000Y-93675000D01*
X81025000Y-90437955D02*
X81462954Y-90000000D01*
X105845000Y-93675000D02*
X82911396Y-93675000D01*
%TO.N,/Mcu/UART_TX*%
X82219000Y-92416918D02*
X81425000Y-91622918D01*
X81425000Y-91622918D02*
X81425000Y-90603640D01*
X82219000Y-92481448D02*
X82219000Y-92416918D01*
X81628640Y-90400000D02*
X82150000Y-90400000D01*
X82966552Y-93229000D02*
X82219000Y-92481448D01*
X103751000Y-93229000D02*
X82966552Y-93229000D01*
X105880000Y-91100000D02*
X103751000Y-93229000D01*
X81425000Y-90603640D02*
X81628640Y-90400000D01*
%TO.N,/Mcu/pwm7*%
X96743000Y-92369500D02*
X83064552Y-92369500D01*
X82800000Y-91937552D02*
X82800000Y-91410000D01*
X98812500Y-90300000D02*
X96743000Y-92369500D01*
X99300000Y-90300000D02*
X98812500Y-90300000D01*
X82873000Y-92010552D02*
X82800000Y-91937552D01*
X83064552Y-92369500D02*
X82873000Y-92177948D01*
X82873000Y-92177948D02*
X82873000Y-92010552D01*
%TO.N,/Mcu/pwm2*%
X89200000Y-87625000D02*
X89200000Y-88112500D01*
X89200000Y-88112500D02*
X87712500Y-89600000D01*
X87712500Y-89600000D02*
X85010000Y-89600000D01*
%TD*%
M02*
